<svg width="22" height="22" viewBox="0 0 22 22" fill="none" xmlns="http://www.w3.org/2000/svg">
<path d="M1.39999 4.3998H20.6M8.59999 16.3998V9.19981M13.4 16.3998V9.19981M15.8 21.1998H6.19999C4.87451 21.1998 3.79999 20.1253 3.79999 18.7998V5.5998C3.79999 4.93706 4.33725 4.3998 4.99999 4.3998H17C17.6627 4.3998 18.2 4.93706 18.2 5.5998V18.7998C18.2 20.1253 17.1255 21.1998 15.8 21.1998ZM8.59999 4.3998H13.4C14.0627 4.3998 14.6 3.86255 14.6 3.1998V1.9998C14.6 1.33706 14.0627 0.799805 13.4 0.799805H8.59999C7.93725 0.799805 7.39999 1.33706 7.39999 1.9998V3.1998C7.39999 3.86255 7.93725 4.3998 8.59999 4.3998Z" stroke="#1C1C1C" stroke-width="1.5" stroke-linecap="round" stroke-linejoin="round"/>
</svg>
