<svg width="180" height="180" viewBox="0 0 180 180" fill="none" xmlns="http://www.w3.org/2000/svg">
<g clip-path="url(#clip0_879_6165)">
<path d="M161.611 143.716H149.688V143.806H161.611V143.716Z" fill="#EBEBEB"/>
<path d="M118.886 144.691H115.758V144.781H118.886V144.691Z" fill="#EBEBEB"/>
<path d="M149.328 140.371H142.42V140.461H149.328V140.371Z" fill="#EBEBEB"/>
<path d="M34.0811 140.976H18.5327V141.066H34.0811V140.976Z" fill="#EBEBEB"/>
<path d="M39.5676 140.976H37.2888V141.066H39.5676V140.976Z" fill="#EBEBEB"/>
<path d="M80.7011 142.495H46.9763V142.585H80.7011V142.495Z" fill="#EBEBEB"/>
<path d="M84.96 121.864H15.4584C14.9133 121.864 14.3904 121.647 14.0049 121.262C13.6194 120.876 13.4028 120.353 13.4028 119.808V22.0933C13.4038 21.5487 13.6208 21.0268 14.0062 20.6421C14.3916 20.2573 14.9139 20.0413 15.4584 20.0413H84.96C85.5046 20.0413 86.0269 20.2573 86.4123 20.6421C86.7977 21.0268 87.0147 21.5487 87.0156 22.0933V119.808C87.0156 120.353 86.7991 120.876 86.4136 121.262C86.0281 121.647 85.5052 121.864 84.96 121.864ZM15.4584 20.1313C14.9377 20.1313 14.4383 20.3379 14.0698 20.7057C13.7013 21.0735 13.4938 21.5726 13.4928 22.0933V119.808C13.4938 120.329 13.7012 120.828 14.0696 121.197C14.438 121.565 14.9374 121.773 15.4584 121.774H84.96C85.481 121.773 85.9805 121.565 86.3489 121.197C86.7173 120.828 86.9247 120.329 86.9256 119.808V22.0933C86.9247 21.5726 86.7172 21.0735 86.3486 20.7057C85.9801 20.3379 85.4807 20.1313 84.96 20.1313H15.4584Z" fill="#EBEBEB"/>
<path d="M162.839 121.864H93.3228C92.7782 121.863 92.2563 121.646 91.8716 121.26C91.4868 120.875 91.2708 120.353 91.2708 119.808V22.0933C91.2717 21.5493 91.4882 21.0279 91.8728 20.6433C92.2574 20.2587 92.7788 20.0422 93.3228 20.0413H162.839C163.383 20.0413 163.906 20.2573 164.291 20.6421C164.676 21.0268 164.893 21.5487 164.894 22.0933V119.808C164.894 120.353 164.678 120.876 164.292 121.262C163.907 121.647 163.384 121.864 162.839 121.864ZM93.3228 20.1313C92.8024 20.1313 92.3034 20.338 91.9354 20.7059C91.5675 21.0739 91.3608 21.5729 91.3608 22.0933V119.808C91.3608 120.329 91.5673 120.828 91.9352 121.197C92.303 121.565 92.8021 121.773 93.3228 121.774H162.839C163.36 121.773 163.859 121.565 164.228 121.197C164.596 120.828 164.803 120.329 164.804 119.808V22.0933C164.803 21.5726 164.596 21.0735 164.227 20.7057C163.859 20.3379 163.359 20.1313 162.839 20.1313H93.3228Z" fill="#EBEBEB"/>
<path d="M179.647 137.92H-0.352783V138.01H179.647V137.92Z" fill="#EBEBEB"/>
<path d="M26.0928 135.788H56.6316L56.6316 95.1516H26.0928L26.0928 135.788Z" fill="#F0F0F0"/>
<path d="M20.268 135.788H26.0928L26.0928 95.1516H20.268L20.268 135.788Z" fill="#E6E6E6"/>
<path d="M28.0728 108.04H54.4932V98.1721H28.0728V108.04Z" fill="#FAFAFA"/>
<path d="M44.73 98.1685L44.6148 99.4861C44.5951 99.6952 44.4984 99.8895 44.3433 100.031C44.1883 100.173 43.9861 100.252 43.776 100.253H38.7936C38.5835 100.252 38.3813 100.173 38.2263 100.031C38.0712 99.8895 37.9745 99.6952 37.9548 99.4861L37.8396 98.1685H44.73Z" fill="#EBEBEB"/>
<path d="M28.0728 118.984H54.4932V109.116H28.0728V118.984Z" fill="#FAFAFA"/>
<path d="M44.73 109.116L44.6148 110.43C44.5959 110.64 44.4994 110.834 44.3442 110.976C44.189 111.118 43.9863 111.197 43.776 111.197H38.7936C38.5833 111.197 38.3806 111.118 38.2254 110.976C38.0702 110.834 37.9737 110.64 37.9548 110.43L37.8396 109.116H44.73Z" fill="#EBEBEB"/>
<path d="M28.0728 129.931H54.4932V120.064H28.0728V129.931Z" fill="#FAFAFA"/>
<path d="M44.73 120.064L44.6148 121.378C44.5959 121.587 44.4994 121.782 44.3442 121.924C44.189 122.066 43.9863 122.144 43.776 122.145H38.7936C38.5833 122.144 38.3806 122.066 38.2254 121.924C38.0702 121.782 37.9737 121.587 37.9548 121.378L37.8396 120.064H44.73Z" fill="#EBEBEB"/>
<path d="M28.0764 137.819H54.1728L54.4932 135.788H28.0764V137.819Z" fill="#E6E6E6"/>
<path d="M22.6187 137.819H28.0763V135.788H22.2983L22.6187 137.819Z" fill="#E0E0E0"/>
<path d="M40.3416 95.1984H50.7708L49.6152 81.972H39.186L40.3416 95.1984Z" fill="#FAFAFA"/>
<path d="M40.3416 95.1984H39.8448L38.6892 81.972H39.186L40.3416 95.1984Z" fill="#EBEBEB"/>
<path d="M41.2883 93.8484H49.5899L48.6683 83.322H40.3667L41.2883 93.8484Z" fill="#F0F0F0"/>
<path d="M41.8969 92.9808H48.8305L48.0601 84.186H41.1265L41.8969 92.9808Z" fill="#E6E6E6"/>
<path d="M37.4113 95.1985L38.1277 87.0121H27.7489L27.0325 95.1985H37.4113Z" fill="#F0F0F0"/>
<path d="M37.4111 95.1985L38.1275 87.0121H38.6891L37.9727 95.1985H37.4111Z" fill="#E0E0E0"/>
<path d="M36.4284 94.3633L36.9972 87.8473H28.7316L28.1628 94.3633H36.4284Z" fill="#EBEBEB"/>
<path d="M35.7949 93.8269L36.2701 88.3837H29.3653L28.8901 93.8269H35.7949Z" fill="#F5F5F5"/>
<path d="M83.1852 101.776H85.6404V137.448C85.6404 137.562 85.5953 137.671 85.515 137.751C85.4346 137.831 85.3257 137.876 85.212 137.876H83.61C83.4964 137.876 83.3875 137.831 83.3071 137.751C83.2268 137.671 83.1816 137.562 83.1816 137.448V101.776H83.1852Z" fill="#F0F0F0"/>
<path d="M154.559 98.5644H148.918V98.064C148.917 97.8315 148.964 97.6014 149.056 97.3877C149.147 97.1739 149.281 96.981 149.45 96.8207C149.618 96.6604 149.817 96.5361 150.035 96.4552C150.253 96.3744 150.486 96.3387 150.718 96.3504L152.928 96.4692C153.367 96.4932 153.779 96.6841 154.081 97.0028C154.383 97.3215 154.551 97.7438 154.552 98.1828L154.559 98.5644Z" fill="#F0F0F0"/>
<path d="M139.32 86.9004C139.309 86.6865 139.216 86.485 139.061 86.3376C138.905 86.1902 138.699 86.1081 138.485 86.1084H132.79C132.576 86.109 132.371 86.1915 132.216 86.3388C132.061 86.4861 131.969 86.6871 131.958 86.9004L133.312 98.7804H141.84L139.32 86.9004Z" fill="#E0E0E0"/>
<path d="M154.8 68.6305H152.676L150.3 91.0801H152.424C152.601 91.0813 152.773 91.0169 152.906 90.8993C153.039 90.7817 153.124 90.6192 153.144 90.4429L155.398 69.2749C155.41 69.1914 155.404 69.1061 155.379 69.0254C155.354 68.9446 155.312 68.8706 155.254 68.8086C155.197 68.7467 155.126 68.6985 155.047 68.6677C154.969 68.6368 154.884 68.6241 154.8 68.6305Z" fill="#E0E0E0"/>
<path d="M151.528 91.0801H119.682C119.601 91.0819 119.52 91.066 119.446 91.0337C119.371 91.0013 119.305 90.9532 119.251 90.8926C119.197 90.8321 119.156 90.7605 119.133 90.6829C119.109 90.6052 119.102 90.5234 119.113 90.4429L121.363 69.2749C121.384 69.0986 121.468 68.9361 121.601 68.8185C121.734 68.7009 121.906 68.6365 122.083 68.6377H153.929C154.01 68.6359 154.091 68.6518 154.165 68.6841C154.24 68.7165 154.306 68.7646 154.36 68.8252C154.414 68.8858 154.455 68.9573 154.478 69.035C154.502 69.1126 154.509 69.1945 154.498 69.2749L152.248 90.4429C152.227 90.6192 152.143 90.7817 152.01 90.8993C151.877 91.0169 151.705 91.0813 151.528 91.0801Z" fill="#EBEBEB"/>
<path d="M150.934 89.0028H120.902C120.832 89.004 120.761 88.9898 120.696 88.9613C120.631 88.9328 120.573 88.8906 120.526 88.8377C120.479 88.7847 120.444 88.7222 120.423 88.6544C120.402 88.5866 120.396 88.5151 120.406 88.4448L122.371 69.9768C122.389 69.825 122.461 69.6846 122.574 69.582C122.687 69.4793 122.834 69.4213 122.987 69.4188H153C153.071 69.4171 153.142 69.4309 153.207 69.4592C153.272 69.4875 153.33 69.5296 153.378 69.5827C153.425 69.6358 153.46 69.6986 153.481 69.7667C153.501 69.8347 153.507 69.9064 153.497 69.9768L151.56 88.4448C151.542 88.5982 151.468 88.7396 151.352 88.8424C151.237 88.9451 151.088 89.0022 150.934 89.0028Z" fill="#E0E0E0"/>
<path d="M142.258 97.8624H131.558C131.368 97.8624 131.213 98.0172 131.213 98.208V98.4384C131.213 98.6293 131.368 98.784 131.558 98.784H142.258C142.449 98.784 142.603 98.6293 142.603 98.4384V98.208C142.603 98.0172 142.449 97.8624 142.258 97.8624Z" fill="#E0E0E0"/>
<path d="M120.791 89.0028L129.715 81.2448C130.565 80.5248 131.648 80.5248 132.138 81.2448L137.311 89.0028H120.791Z" fill="#EBEBEB"/>
<path d="M129.715 81.2448L120.791 89.0028H129.348C128.495 88.5708 126.486 88.3404 126.724 87.3504C127.037 86.0652 131.015 86.5152 131.31 85.2948C131.605 84.0744 128.768 84.4596 129.125 82.98C129.312 82.206 130.046 81.3636 130.705 80.7336C130.338 80.8186 129.997 80.9944 129.715 81.2448Z" fill="#F5F5F5"/>
<path d="M133.92 89.0029L137.88 85.0897C138.24 84.7297 138.733 84.7297 138.96 85.0897L141.25 89.0029H133.92Z" fill="#EBEBEB"/>
<path d="M137.88 85.0896L133.92 89.0028H137.711C137.333 88.7832 136.444 88.668 136.548 88.1676C136.685 87.5196 138.449 87.7464 138.582 87.1308C138.715 86.5152 137.455 86.7096 137.614 85.9644C137.75 85.5351 137.99 85.1457 138.312 84.8304C138.147 84.8761 137.998 84.9657 137.88 85.0896Z" fill="#FAFAFA"/>
<path d="M140.692 89.0029L146.232 85.0897C146.761 84.7297 147.434 84.7297 147.737 85.0897L150.948 89.0029H140.692Z" fill="#EBEBEB"/>
<path d="M146.232 85.0896L140.692 89.0028H146.005C145.476 88.7832 144.227 88.668 144.374 88.1676C144.569 87.5196 147.038 87.7464 147.222 87.1308C147.406 86.5152 145.645 86.7096 145.865 85.9644C146.085 85.5054 146.425 85.1138 146.848 84.8304C146.626 84.8703 146.416 84.9589 146.232 85.0896Z" fill="#FAFAFA"/>
<path d="M146.216 79.6574C147.845 78.1922 148.205 75.9367 147.02 74.6195C145.835 73.3024 143.554 73.4225 141.925 74.8877C140.296 76.353 139.936 78.6085 141.121 79.9256C142.306 81.2427 144.587 81.1226 146.216 79.6574Z" fill="#F0F0F0"/>
<path opacity="0.8" d="M146.216 79.6574C147.845 78.1922 148.205 75.9367 147.02 74.6195C145.835 73.3024 143.554 73.4225 141.925 74.8877C140.296 76.353 139.936 78.6085 141.121 79.9256C142.306 81.2427 144.587 81.1226 146.216 79.6574Z" fill="white"/>
<path d="M159.171 98.5645H137.895V101.776H159.171V98.5645Z" fill="#E6E6E6"/>
<path d="M98.3952 101.776H100.85V137.448C100.85 137.562 100.805 137.671 100.725 137.751C100.645 137.831 100.536 137.876 100.422 137.876H98.82C98.7064 137.876 98.5974 137.831 98.5171 137.751C98.4367 137.671 98.3916 137.562 98.3916 137.448V101.776H98.3952Z" fill="#E6E6E6"/>
<path d="M155.297 101.776H157.752V137.448C157.752 137.505 157.742 137.561 157.72 137.614C157.699 137.667 157.667 137.714 157.626 137.755C157.586 137.795 157.538 137.827 157.486 137.848C157.433 137.87 157.377 137.881 157.32 137.88H155.718C155.604 137.88 155.495 137.835 155.415 137.755C155.335 137.674 155.29 137.565 155.29 137.452V101.776H155.297Z" fill="#E6E6E6"/>
<path d="M143.96 98.5645H81.7668V101.776H143.96V98.5645Z" fill="#F5F5F5"/>
<path d="M140.09 101.776H142.56V137.448C142.56 137.562 142.515 137.671 142.434 137.751C142.354 137.831 142.245 137.876 142.132 137.876H140.53C140.416 137.876 140.307 137.831 140.227 137.751C140.146 137.671 140.101 137.562 140.101 137.448V101.776H140.09Z" fill="#F0F0F0"/>
<path d="M122.818 97.8156H122.04C122 97.8156 121.962 97.7997 121.933 97.7714C121.905 97.743 121.889 97.7046 121.889 97.6645V96.84C121.889 96.7999 121.905 96.7615 121.933 96.7331C121.962 96.7048 122 96.6888 122.04 96.6888H122.609C122.642 96.6891 122.675 96.7001 122.701 96.7202C122.728 96.7403 122.747 96.7684 122.757 96.8005L122.98 97.6429C122.983 97.6654 122.981 97.6884 122.974 97.7101C122.968 97.7318 122.956 97.7518 122.94 97.7684C122.925 97.785 122.906 97.7979 122.884 97.8061C122.863 97.8142 122.84 97.8175 122.818 97.8156Z" fill="#F5F5F5"/>
<path d="M123.916 97.8156H123.12C123.1 97.8156 123.08 97.8117 123.062 97.8041C123.044 97.7965 123.027 97.7854 123.013 97.7714C122.999 97.7573 122.988 97.7406 122.98 97.7223C122.973 97.704 122.969 97.6843 122.969 97.6645V96.84C122.969 96.8202 122.973 96.8005 122.98 96.7822C122.988 96.7638 122.999 96.7472 123.013 96.7331C123.027 96.7191 123.044 96.708 123.062 96.7004C123.08 96.6928 123.1 96.6888 123.12 96.6888H123.689C123.722 96.6891 123.754 96.7001 123.781 96.7202C123.808 96.7403 123.827 96.7684 123.836 96.8005L124.06 97.6429C124.063 97.6638 124.061 97.6852 124.055 97.7057C124.05 97.7261 124.04 97.7451 124.026 97.7614C124.012 97.7776 123.996 97.7909 123.977 97.8003C123.958 97.8096 123.937 97.8149 123.916 97.8156Z" fill="#F5F5F5"/>
<path d="M125.014 97.8156H124.218C124.178 97.8156 124.14 97.7997 124.111 97.7714C124.083 97.743 124.067 97.7046 124.067 97.6645V96.84C124.067 96.7999 124.083 96.7615 124.111 96.7331C124.14 96.7048 124.178 96.6888 124.218 96.6888H124.79C124.824 96.6891 124.856 96.7001 124.883 96.7202C124.909 96.7403 124.929 96.7684 124.938 96.8005L125.161 97.6429C125.164 97.6641 125.163 97.6858 125.157 97.7065C125.151 97.7272 125.141 97.7463 125.127 97.7627C125.113 97.779 125.095 97.7922 125.076 97.8013C125.056 97.8105 125.035 97.8154 125.014 97.8156Z" fill="#F5F5F5"/>
<path d="M126.112 97.8156H125.316C125.276 97.8156 125.237 97.7997 125.209 97.7714C125.181 97.743 125.165 97.7046 125.165 97.6645V96.8401C125.165 96.7999 125.181 96.7615 125.209 96.7331C125.237 96.7048 125.276 96.6888 125.316 96.6888H125.888C125.921 96.6887 125.954 96.6996 125.98 96.7198C126.006 96.74 126.024 96.7684 126.032 96.8005L126.259 97.6429C126.262 97.6641 126.261 97.6858 126.255 97.7065C126.249 97.7272 126.238 97.7463 126.225 97.7627C126.211 97.779 126.193 97.7922 126.174 97.8013C126.154 97.8105 126.133 97.8154 126.112 97.8156Z" fill="#F5F5F5"/>
<path d="M127.21 97.8156H126.414C126.374 97.8156 126.336 97.7997 126.307 97.7714C126.279 97.743 126.263 97.7046 126.263 97.6645V96.84C126.263 96.7999 126.279 96.7615 126.307 96.7331C126.336 96.7048 126.374 96.6888 126.414 96.6888H126.987C127.019 96.6893 127.051 96.7004 127.077 96.7205C127.103 96.7407 127.122 96.7687 127.131 96.8005L127.354 97.6429C127.357 97.6638 127.355 97.6852 127.35 97.7057C127.344 97.7261 127.334 97.7451 127.32 97.7614C127.307 97.7776 127.29 97.7909 127.271 97.8003C127.252 97.8096 127.231 97.8149 127.21 97.8156Z" fill="#F5F5F5"/>
<path d="M128.308 97.8157H127.512C127.472 97.8157 127.433 97.7997 127.405 97.7714C127.377 97.743 127.361 97.7046 127.361 97.6645V96.8401C127.361 96.8 127.377 96.7615 127.405 96.7331C127.433 96.7048 127.472 96.6889 127.512 96.6889H128.081C128.114 96.6885 128.147 96.6992 128.174 96.7194C128.2 96.7396 128.22 96.7681 128.228 96.8005L128.452 97.6429C128.455 97.6639 128.453 97.6853 128.448 97.7057C128.442 97.7261 128.432 97.7451 128.418 97.7614C128.405 97.7777 128.388 97.7909 128.369 97.8003C128.35 97.8096 128.329 97.8149 128.308 97.8157Z" fill="#F5F5F5"/>
<path d="M129.406 97.8156H128.61C128.57 97.8156 128.531 97.7997 128.503 97.7714C128.475 97.743 128.459 97.7046 128.459 97.6645V96.84C128.459 96.7999 128.475 96.7615 128.503 96.7331C128.531 96.7048 128.57 96.6888 128.61 96.6888H129.179C129.212 96.6891 129.244 96.7001 129.271 96.7202C129.298 96.7403 129.317 96.7684 129.326 96.8005L129.55 97.6429C129.553 97.6638 129.551 97.6852 129.545 97.7057C129.54 97.7261 129.53 97.7451 129.516 97.7614C129.502 97.7776 129.486 97.7909 129.467 97.8003C129.448 97.8096 129.427 97.8149 129.406 97.8156Z" fill="#F5F5F5"/>
<path d="M130.5 97.8156H129.708C129.668 97.8156 129.63 97.7997 129.601 97.7714C129.573 97.743 129.557 97.7046 129.557 97.6645V96.84C129.557 96.7999 129.573 96.7615 129.601 96.7331C129.63 96.7048 129.668 96.6888 129.708 96.6888H130.277C130.31 96.6891 130.343 96.7001 130.369 96.7202C130.396 96.7403 130.415 96.7684 130.424 96.8005L130.648 97.6429C130.651 97.6641 130.649 97.6858 130.643 97.7065C130.637 97.7272 130.627 97.7463 130.613 97.7627C130.599 97.779 130.582 97.7922 130.562 97.8013C130.543 97.8105 130.522 97.8154 130.5 97.8156Z" fill="#F5F5F5"/>
<path d="M131.598 97.8156H130.806C130.766 97.8156 130.727 97.7997 130.699 97.7714C130.671 97.743 130.655 97.7046 130.655 97.6645V96.84C130.655 96.7999 130.671 96.7615 130.699 96.7331C130.727 96.7048 130.766 96.6888 130.806 96.6888H131.375C131.408 96.6891 131.441 96.7001 131.467 96.7202C131.494 96.7403 131.513 96.7684 131.522 96.8005L131.746 97.6429C131.749 97.6641 131.747 97.6858 131.741 97.7065C131.735 97.7272 131.725 97.7463 131.711 97.7627C131.697 97.779 131.68 97.7922 131.66 97.8013C131.641 97.8105 131.619 97.8154 131.598 97.8156Z" fill="#F5F5F5"/>
<path d="M132.696 97.8156H131.9C131.881 97.8156 131.861 97.8117 131.843 97.8041C131.824 97.7965 131.808 97.7854 131.794 97.7714C131.78 97.7573 131.768 97.7406 131.761 97.7223C131.753 97.704 131.749 97.6843 131.749 97.6645V96.84C131.749 96.8202 131.753 96.8005 131.761 96.7822C131.768 96.7638 131.78 96.7472 131.794 96.7331C131.808 96.7191 131.824 96.708 131.843 96.7004C131.861 96.6928 131.881 96.6888 131.9 96.6888H132.48C132.513 96.6891 132.546 96.7001 132.572 96.7202C132.599 96.7403 132.618 96.7684 132.628 96.8005L132.851 97.6429C132.854 97.6647 132.852 97.6871 132.846 97.7082C132.84 97.7294 132.829 97.7489 132.814 97.7654C132.799 97.7819 132.781 97.7949 132.761 97.8036C132.74 97.8123 132.718 97.8164 132.696 97.8156Z" fill="#F5F5F5"/>
<path d="M133.794 97.8156H132.998C132.958 97.8156 132.92 97.7997 132.891 97.7714C132.863 97.743 132.847 97.7046 132.847 97.6645V96.8401C132.847 96.7999 132.863 96.7615 132.891 96.7331C132.92 96.7048 132.958 96.6888 132.998 96.6888H133.56C133.593 96.6887 133.625 96.6996 133.651 96.7198C133.677 96.74 133.696 96.7684 133.704 96.8005L133.931 97.6429C133.934 97.6633 133.933 97.6841 133.927 97.7041C133.922 97.724 133.913 97.7426 133.9 97.7588C133.887 97.775 133.871 97.7884 133.853 97.7982C133.835 97.808 133.815 97.8139 133.794 97.8156Z" fill="#F5F5F5"/>
<path d="M134.892 97.8156H134.097C134.056 97.8156 134.018 97.7997 133.99 97.7714C133.961 97.743 133.945 97.7046 133.945 97.6645V96.84C133.945 96.7999 133.961 96.7615 133.99 96.7331C134.018 96.7048 134.056 96.6888 134.097 96.6888H134.669C134.702 96.6893 134.734 96.7004 134.76 96.7205C134.786 96.7407 134.804 96.7687 134.813 96.8005L135.036 97.6429C135.039 97.6638 135.038 97.6852 135.032 97.7057C135.026 97.7261 135.016 97.7451 135.003 97.7614C134.989 97.7776 134.972 97.7909 134.953 97.8003C134.934 97.8096 134.913 97.8149 134.892 97.8156Z" fill="#F5F5F5"/>
<path d="M135.99 97.8157H135.194C135.175 97.8157 135.155 97.8117 135.137 97.8042C135.118 97.7966 135.102 97.7854 135.087 97.7714C135.073 97.7573 135.062 97.7407 135.055 97.7223C135.047 97.704 135.043 97.6843 135.043 97.6645V96.8401C135.043 96.8202 135.047 96.8005 135.055 96.7822C135.062 96.7638 135.073 96.7472 135.087 96.7331C135.102 96.7191 135.118 96.708 135.137 96.7004C135.155 96.6928 135.175 96.6889 135.194 96.6889H135.763C135.797 96.6885 135.829 96.6992 135.856 96.7194C135.883 96.7396 135.902 96.7681 135.911 96.8005L136.134 97.6429C136.137 97.6639 136.136 97.6853 136.13 97.7057C136.124 97.7261 136.114 97.7451 136.101 97.7614C136.087 97.7777 136.07 97.7909 136.051 97.8003C136.032 97.8096 136.011 97.8149 135.99 97.8157Z" fill="#F5F5F5"/>
<path d="M137.084 97.8156H136.292C136.252 97.8156 136.214 97.7997 136.185 97.7714C136.157 97.743 136.141 97.7046 136.141 97.6645V96.84C136.141 96.7999 136.157 96.7615 136.185 96.7331C136.214 96.7048 136.252 96.6888 136.292 96.6888H136.861C136.894 96.6891 136.927 96.7001 136.953 96.7202C136.98 96.7403 136.999 96.7684 137.009 96.8005L137.232 97.6429C137.235 97.6641 137.233 97.6858 137.227 97.7065C137.222 97.7272 137.211 97.7463 137.197 97.7627C137.183 97.779 137.166 97.7922 137.146 97.8013C137.127 97.8105 137.106 97.8154 137.084 97.8156Z" fill="#F5F5F5"/>
<path d="M138.182 97.8156H137.39C137.35 97.8156 137.312 97.7997 137.284 97.7714C137.255 97.743 137.239 97.7046 137.239 97.6645V96.84C137.239 96.7999 137.255 96.7615 137.284 96.7331C137.312 96.7048 137.35 96.6888 137.39 96.6888H137.959C137.993 96.6891 138.025 96.7001 138.052 96.7202C138.078 96.7403 138.098 96.7684 138.107 96.8005L138.33 97.6429C138.333 97.6641 138.332 97.6858 138.326 97.7065C138.32 97.7272 138.309 97.7463 138.295 97.7627C138.281 97.779 138.264 97.7922 138.245 97.8013C138.225 97.8105 138.204 97.8154 138.182 97.8156Z" fill="#F5F5F5"/>
<path d="M138.982 97.2433H121.226V98.5645H138.982V97.2433Z" fill="#EBEBEB"/>
<path d="M88.2648 152.536C126.814 152.536 158.065 150.711 158.065 148.46C158.065 146.21 126.814 144.385 88.2648 144.385C49.7151 144.385 18.4644 146.21 18.4644 148.46C18.4644 150.711 49.7151 152.536 88.2648 152.536Z" fill="#F5F5F5"/>
<path d="M26.2117 102.967H126.5L121.262 28.0764H20.9773L26.2117 102.967Z" fill="#407BFF"/>
<g opacity="0.6">
<path d="M26.2117 102.967H126.5L121.262 28.0764H20.9773L26.2117 102.967Z" fill="white"/>
</g>
<path d="M104.811 37.44C104.86 37.4393 104.908 37.4256 104.951 37.4004L106.557 36.3816C106.594 36.3584 106.625 36.3261 106.646 36.2877C106.668 36.2492 106.679 36.206 106.679 36.162C106.679 36.1184 106.668 36.0756 106.647 36.0372C106.627 35.9989 106.597 35.9663 106.56 35.9424L104.872 34.8372C104.814 34.7995 104.744 34.7863 104.676 34.8005C104.609 34.8147 104.55 34.8551 104.512 34.9128C104.474 34.9706 104.461 35.041 104.475 35.1085C104.489 35.176 104.53 35.2351 104.587 35.2728L105.937 36.1584L104.67 36.9576C104.623 36.9885 104.587 37.0336 104.568 37.0864C104.548 37.1391 104.546 37.1967 104.562 37.2507C104.578 37.3047 104.61 37.3522 104.655 37.3863C104.7 37.4204 104.754 37.4392 104.811 37.44Z" fill="#263238"/>
<path d="M103.936 36.4248H106.42C106.488 36.4248 106.554 36.3975 106.603 36.3489C106.652 36.3003 106.679 36.2344 106.679 36.1656C106.679 36.0966 106.652 36.0302 106.603 35.9811C106.555 35.9319 106.489 35.9038 106.42 35.9028H103.936C103.867 35.9038 103.801 35.9319 103.752 35.9811C103.704 36.0302 103.677 36.0966 103.677 36.1656C103.677 36.2344 103.704 36.3003 103.752 36.3489C103.801 36.3975 103.867 36.4248 103.936 36.4248Z" fill="#263238"/>
<path d="M100.008 37.44C100.052 37.44 100.095 37.4291 100.133 37.4083C100.171 37.3876 100.204 37.3577 100.228 37.3212C100.265 37.2632 100.278 37.1931 100.263 37.1258C100.249 37.0585 100.209 36.9994 100.152 36.9612L98.8021 36.0792L100.08 35.28C100.138 35.2424 100.179 35.1836 100.193 35.1162C100.208 35.0489 100.196 34.9784 100.159 34.92C100.141 34.891 100.117 34.8659 100.089 34.8462C100.061 34.8265 100.029 34.8126 99.9958 34.8052C99.9624 34.7979 99.9277 34.7972 99.894 34.8033C99.8603 34.8094 99.8281 34.8222 99.7993 34.8408L98.1901 35.8596C98.1542 35.8831 98.1245 35.9151 98.1038 35.9528C98.0831 35.9905 98.0719 36.0326 98.0713 36.0756C98.0707 36.1193 98.0813 36.1624 98.1021 36.2009C98.1229 36.2393 98.1532 36.2718 98.1901 36.2952L99.8785 37.4004C99.9174 37.425 99.9621 37.4387 100.008 37.44Z" fill="#263238"/>
<path d="M98.3197 36.3384H100.8C100.869 36.3384 100.936 36.3112 100.985 36.2627C101.034 36.2142 101.062 36.1483 101.063 36.0792C101.063 36.0447 101.056 36.0105 101.043 35.9786C101.03 35.9468 101.01 35.9178 100.986 35.8934C100.962 35.869 100.933 35.8496 100.901 35.8364C100.869 35.8232 100.835 35.8164 100.8 35.8164H98.3197C98.2507 35.8174 98.1847 35.8455 98.1362 35.8946C98.0877 35.9438 98.0605 36.0101 98.0605 36.0792C98.0605 36.148 98.0879 36.2139 98.1365 36.2625C98.1851 36.3111 98.251 36.3384 98.3197 36.3384Z" fill="#263238"/>
<path d="M93.8233 37.9764C94.0367 37.979 94.2482 37.9368 94.4441 37.8524C94.6401 37.7681 94.8162 37.6435 94.9609 37.4868C95.1069 37.3303 95.2188 37.1451 95.2894 36.9431C95.3601 36.7411 95.388 36.5265 95.3713 36.3132C95.3339 35.8743 95.135 35.465 94.8132 35.1644C94.4913 34.8638 94.0693 34.6933 93.6289 34.686C93.4154 34.6842 93.2039 34.727 93.0078 34.8116C92.8117 34.8962 92.6354 35.0206 92.4901 35.1771C92.3448 35.3336 92.2337 35.5186 92.1639 35.7204C92.094 35.9222 92.067 36.1363 92.0845 36.3492C92.0893 36.4179 92.1212 36.4819 92.1732 36.5272C92.2252 36.5724 92.293 36.5951 92.3617 36.5904C92.4305 36.5856 92.4945 36.5537 92.5397 36.5017C92.585 36.4497 92.6077 36.3819 92.6029 36.3132C92.5903 36.1716 92.6076 36.0289 92.6536 35.8944C92.6996 35.7599 92.7734 35.6365 92.8701 35.5324C92.9668 35.4282 93.0843 35.3455 93.2151 35.2896C93.3458 35.2337 93.4868 35.2059 93.6289 35.208C93.9378 35.2123 94.234 35.3317 94.4597 35.5427C94.6854 35.7537 94.8243 36.0412 94.8493 36.3492C94.8631 36.491 94.8467 36.6341 94.8011 36.7692C94.7555 36.9042 94.6817 37.028 94.5848 37.1324C94.4878 37.2369 94.3698 37.3196 94.2386 37.375C94.1073 37.4305 93.9658 37.4576 93.8233 37.4544C93.7546 37.4544 93.6886 37.4817 93.64 37.5303C93.5914 37.5789 93.5641 37.6448 93.5641 37.7136C93.5641 37.7826 93.5913 37.8489 93.6398 37.8981C93.6883 37.9473 93.7543 37.9754 93.8233 37.9764Z" fill="#263238"/>
<path d="M92.3473 36.6192H92.4193L93.2581 36.3744C93.2909 36.3647 93.3216 36.3486 93.3482 36.3271C93.3749 36.3056 93.397 36.279 93.4134 36.2489C93.4298 36.2188 93.4401 36.1858 93.4437 36.1518C93.4473 36.1177 93.4442 36.0832 93.4345 36.0504C93.4248 36.0175 93.4087 35.9869 93.3872 35.9603C93.3657 35.9336 93.3391 35.9115 93.309 35.8951C93.2789 35.8787 93.2459 35.8684 93.2118 35.8648C93.1778 35.8612 93.1433 35.8643 93.1105 35.874L92.4625 36.0648L92.1601 35.5608C92.1243 35.5016 92.0664 35.459 91.9992 35.4425C91.9321 35.426 91.8611 35.4368 91.8019 35.4726C91.7427 35.5084 91.7001 35.5662 91.6836 35.6334C91.6671 35.7006 91.6779 35.7716 91.7137 35.8308L92.1241 36.4968C92.1473 36.5349 92.1802 36.5663 92.2194 36.5878C92.2585 36.6092 92.3026 36.6201 92.3473 36.6192Z" fill="#263238"/>
<path d="M49.59 36.9324C49.4585 36.8104 49.3523 36.6637 49.2775 36.5006C49.2028 36.3375 49.1609 36.1613 49.1544 35.982C49.1462 35.8216 49.1704 35.6612 49.2254 35.5103C49.2805 35.3594 49.3653 35.2211 49.4748 35.1036C49.5848 34.9857 49.7173 34.8909 49.8644 34.8247C50.0115 34.7586 50.1703 34.7224 50.3316 34.7184C50.5099 34.7111 50.6879 34.7392 50.8553 34.801C51.0228 34.8628 51.1763 34.9571 51.3072 35.0784C51.5738 35.3244 51.7318 35.6663 51.7464 36.0288C51.7531 36.1894 51.7279 36.3497 51.6723 36.5004C51.6166 36.6512 51.5317 36.7894 51.4224 36.9072C51.3131 37.0252 51.1814 37.1201 51.0348 37.1862C50.8883 37.2524 50.7299 37.2885 50.5692 37.2924H50.5224C50.1776 37.2925 49.8452 37.1642 49.59 36.9324ZM50.3496 35.2368C50.2574 35.2382 50.1664 35.258 50.0821 35.2952C49.9978 35.3324 49.9218 35.3862 49.8586 35.4534C49.7955 35.5206 49.7465 35.5997 49.7146 35.6862C49.6826 35.7727 49.6684 35.8647 49.6728 35.9568C49.683 36.1809 49.7813 36.3918 49.9464 36.5436C50.1082 36.6976 50.3242 36.7817 50.5476 36.7776C50.6398 36.7763 50.7307 36.7564 50.8151 36.7192C50.8994 36.682 50.9754 36.6282 51.0386 36.561C51.1017 36.4939 51.1507 36.4147 51.1826 36.3282C51.2145 36.2417 51.2287 36.1497 51.2244 36.0576C51.2142 35.8336 51.1159 35.6226 50.9508 35.4708C50.7967 35.3228 50.592 35.2391 50.3784 35.2368H50.3496Z" fill="#263238"/>
<path d="M48.8665 37.9764C48.9026 37.9761 48.9382 37.9682 48.971 37.9533C49.0039 37.9385 49.0333 37.9169 49.0573 37.89L49.9609 36.918C50.0087 36.8674 50.0343 36.7999 50.0323 36.7304C50.0303 36.6608 50.0007 36.595 49.9501 36.5472C49.8995 36.4995 49.832 36.4738 49.7625 36.4758C49.6929 36.4778 49.6271 36.5074 49.5793 36.558L48.6757 37.53C48.6291 37.5783 48.603 37.6429 48.603 37.71C48.603 37.7772 48.6291 37.8417 48.6757 37.89C48.7 37.9166 48.7295 37.9379 48.7623 37.9528C48.7951 37.9676 48.8305 37.9757 48.8665 37.9764Z" fill="#263238"/>
<path d="M21.2689 32.2884H121.558L121.263 28.0764H20.9773L21.2689 32.2884Z" fill="#407BFF"/>
<path opacity="0.4" d="M21.2689 32.2884H121.558L121.263 28.0764H20.9773L21.2689 32.2884Z" fill="#1C1C1C"/>
<path d="M30.9816 30.1825C31.011 30.5223 31.1652 30.8391 31.4145 31.0718C31.6639 31.3046 31.9906 31.4366 32.3316 31.4425C32.4936 31.4446 32.6543 31.4127 32.8032 31.3489C32.9521 31.2852 33.086 31.1909 33.1963 31.0721C33.3065 30.9534 33.3906 30.8129 33.4432 30.6597C33.4958 30.5064 33.5157 30.3439 33.5016 30.1825C33.4739 29.8427 33.3207 29.5254 33.0718 29.2924C32.8228 29.0595 32.4961 28.9276 32.1552 28.9225C31.9931 28.9204 31.8323 28.9522 31.6832 29.016C31.5341 29.0797 31.4 29.174 31.2895 29.2926C31.1789 29.4113 31.0945 29.5517 31.0414 29.705C30.9884 29.8582 30.968 30.0209 30.9816 30.1825Z" fill="white"/>
<path d="M27.1188 30.1825C27.1482 30.5223 27.3024 30.8391 27.5517 31.0718C27.8011 31.3046 28.1278 31.4366 28.4688 31.4425C28.6308 31.4446 28.7915 31.4127 28.9404 31.3489C29.0893 31.2852 29.2232 31.1909 29.3335 31.0721C29.4437 30.9534 29.5279 30.8129 29.5804 30.6597C29.633 30.5064 29.6529 30.3439 29.6388 30.1825C29.6111 29.8427 29.4579 29.5254 29.209 29.2924C28.96 29.0595 28.6333 28.9276 28.2924 28.9225C28.1303 28.9204 27.9695 28.9522 27.8204 29.016C27.6713 29.0797 27.5372 29.174 27.4267 29.2926C27.3161 29.4113 27.2317 29.5517 27.1786 29.705C27.1256 29.8582 27.1053 30.0209 27.1188 30.1825Z" fill="white"/>
<path d="M23.256 30.1825C23.2846 30.5226 23.4386 30.8399 23.6881 31.0728C23.9376 31.3056 24.2648 31.4374 24.606 31.4425C24.768 31.4446 24.9287 31.4127 25.0776 31.3489C25.2265 31.2852 25.3604 31.1909 25.4707 31.0721C25.5809 30.9534 25.6651 30.8129 25.7177 30.6597C25.7702 30.5064 25.7901 30.3439 25.776 30.1825C25.7483 29.8427 25.5951 29.5254 25.3462 29.2924C25.0973 29.0595 24.7705 28.9276 24.4296 28.9225C24.2675 28.9204 24.1067 28.9522 23.9576 29.016C23.8085 29.0797 23.6744 29.174 23.5639 29.2926C23.4534 29.4113 23.3689 29.5517 23.3159 29.705C23.2628 29.8582 23.2425 30.0209 23.256 30.1825Z" fill="white"/>
<path d="M117.058 35.0029L113.868 34.9525C113.833 34.952 113.798 34.9446 113.765 34.9306C113.732 34.9165 113.703 34.8963 113.678 34.8709C113.653 34.8455 113.634 34.8154 113.621 34.7825C113.608 34.7495 113.601 34.7143 113.602 34.6789C113.605 34.6082 113.635 34.5414 113.686 34.492C113.737 34.4426 113.804 34.4142 113.875 34.4125L117.065 34.4629C117.136 34.4629 117.205 34.4913 117.256 34.542C117.306 34.5926 117.335 34.6613 117.335 34.7329C117.335 34.8045 117.306 34.8732 117.256 34.9238C117.205 34.9744 117.136 35.0029 117.065 35.0029H117.058Z" fill="#263238"/>
<path d="M117.184 36.4356L113.998 36.3852C113.962 36.3847 113.927 36.3773 113.895 36.3633C113.862 36.3493 113.832 36.329 113.808 36.3036C113.783 36.2782 113.764 36.2482 113.75 36.2152C113.737 36.1823 113.731 36.1471 113.731 36.1116C113.735 36.0409 113.765 35.9741 113.816 35.9247C113.867 35.8753 113.934 35.8469 114.005 35.8452L117.194 35.8956C117.23 35.8961 117.265 35.9035 117.297 35.9175C117.33 35.9315 117.36 35.9518 117.384 35.9772C117.409 36.0026 117.429 36.0327 117.442 36.0656C117.455 36.0986 117.461 36.1338 117.461 36.1692C117.459 36.2412 117.429 36.3094 117.377 36.3593C117.325 36.4092 117.256 36.4366 117.184 36.4356Z" fill="#263238"/>
<path d="M117.306 37.8685L114.12 37.8181C114.085 37.8176 114.05 37.8102 114.017 37.7962C113.985 37.7821 113.955 37.7619 113.93 37.7365C113.906 37.711 113.886 37.681 113.873 37.6481C113.86 37.6151 113.853 37.5799 113.854 37.5445C113.857 37.4738 113.888 37.407 113.938 37.3576C113.989 37.3082 114.057 37.2798 114.127 37.2781L117.317 37.3285C117.389 37.3285 117.457 37.3569 117.508 37.4076C117.559 37.4582 117.587 37.5269 117.587 37.5985C117.587 37.6701 117.559 37.7388 117.508 37.7894C117.457 37.84 117.389 37.8685 117.317 37.8685H117.306Z" fill="#263238"/>
<path d="M56.2464 37.7137H86.8104C87.0148 37.717 87.2176 37.6773 87.4056 37.5972C87.5937 37.5171 87.7628 37.3983 87.902 37.2486C88.0412 37.0989 88.1473 36.9216 88.2136 36.7282C88.2798 36.5348 88.3046 36.3297 88.2864 36.1261C88.2507 35.6977 88.057 35.298 87.743 35.0046C87.4289 34.7112 87.017 34.545 86.5872 34.5385H56.0232C55.819 34.5357 55.6164 34.5758 55.4286 34.6561C55.2408 34.7364 55.072 34.8551 54.9329 35.0047C54.7938 35.1543 54.6877 35.3314 54.6212 35.5245C54.5548 35.7177 54.5296 35.9226 54.5472 36.1261C54.5829 36.5544 54.7766 36.9541 55.0906 37.2475C55.4047 37.541 55.8167 37.7071 56.2464 37.7137Z" fill="white"/>
<g opacity="0.5">
<path d="M72.9179 42.3973H74.3867L74.2463 40.3489H72.7739L72.9179 42.3973Z" fill="#1C1C1C"/>
<path d="M72.2017 42.3829L73.7533 43.8337L75.1033 42.3829H72.2017Z" fill="#1C1C1C"/>
<path d="M70.7148 44.8561H76.932L76.7592 42.3829H75.978L76.0968 44.0749H71.442L71.3232 42.3685H70.542L70.7148 44.8561Z" fill="#1C1C1C"/>
<g opacity="0.5">
<path d="M72.9179 42.3973H74.3867L74.2463 40.3489H72.7739L72.9179 42.3973Z" fill="#1C1C1C"/>
<path d="M72.2017 42.3829L73.7533 43.8337L75.1033 42.3829H72.2017Z" fill="#1C1C1C"/>
<path d="M70.7148 44.8561H76.932L76.7592 42.3829H75.978L76.0968 44.0749H71.442L71.3232 42.3685H70.542L70.7148 44.8561Z" fill="#1C1C1C"/>
</g>
</g>
<path opacity="0.1" d="M105.757 28.0764L126.245 103.079H121.421L101.095 28.0764H105.757Z" fill="white"/>
<path opacity="0.1" d="M38.5346 28.0764L59.0186 103.079H54.1982L33.8726 28.0764H38.5346Z" fill="white"/>
<path opacity="0.1" d="M98.316 28.0764L118.804 103.079H107.5L87.1704 28.0764H98.316Z" fill="white"/>
<path d="M59.6809 58.0788H89.7481C90.178 58.0849 90.6044 58.0009 90.9998 57.832C91.3951 57.6631 91.7507 57.4132 92.0435 57.0984C92.3362 56.7835 92.5597 56.4108 92.6995 56.0042C92.8393 55.5977 92.8922 55.1663 92.8549 54.738L92.6317 51.5484C92.5576 50.6469 92.1504 49.8053 91.4895 49.1877C90.8286 48.57 89.9614 48.2206 89.0569 48.2076H58.9897C58.5599 48.2014 58.1335 48.2855 57.7381 48.4544C57.3427 48.6233 56.9872 48.8732 56.6944 49.188C56.4016 49.5028 56.1781 49.8756 56.0384 50.2821C55.8986 50.6887 55.8456 51.1201 55.8829 51.5484L56.1061 54.738C56.1811 55.6392 56.5885 56.4803 57.2493 57.0978C57.91 57.7153 58.7767 58.0649 59.6809 58.0788Z" fill="#407BFF"/>
<path d="M66.1428 53.0928C66.1215 52.9436 66.1343 52.7915 66.1802 52.6479C66.2261 52.5044 66.304 52.3731 66.4079 52.2639C66.5119 52.1548 66.6392 52.0706 66.7803 52.0178C66.9215 51.9649 67.0728 51.9448 67.2228 51.9588C67.3911 51.9542 67.5586 51.9837 67.7151 52.0455C67.8717 52.1074 68.014 52.2004 68.1336 52.3188L67.8961 52.5708C67.8163 52.4882 67.7206 52.4227 67.6148 52.3782C67.509 52.3336 67.3953 52.311 67.2805 52.3116C67.1787 52.3019 67.0761 52.3157 66.9806 52.352C66.885 52.3883 66.7991 52.4461 66.7295 52.521C66.6599 52.5958 66.6084 52.6857 66.5791 52.7836C66.5498 52.8815 66.5434 52.9848 66.5605 53.0856C66.5796 53.301 66.6798 53.5012 66.8409 53.6455C67.0019 53.7899 67.2118 53.8677 67.4281 53.8632C67.5357 53.8667 67.6427 53.8448 67.7403 53.7991C67.8379 53.7534 67.9234 53.6853 67.9897 53.6004L68.2813 53.8524C68.1806 53.9743 68.0523 54.0706 67.9071 54.1332C67.7619 54.1958 67.6038 54.2229 67.4461 54.2124C67.1285 54.2211 66.8192 54.1112 66.5782 53.9043C66.3373 53.6973 66.1821 53.408 66.1428 53.0928Z" fill="white"/>
<path d="M68.4253 51.858H68.8177L69.0625 54.198H68.6701L68.4253 51.858Z" fill="white"/>
<path d="M69.2966 51.9984C69.2933 51.9675 69.2969 51.9362 69.307 51.9068C69.3172 51.8775 69.3337 51.8507 69.3553 51.8284C69.3769 51.8061 69.4032 51.7888 69.4322 51.7777C69.4613 51.7666 69.4924 51.7621 69.5234 51.7644C69.5889 51.7619 69.653 51.7836 69.7035 51.8255C69.754 51.8673 69.7873 51.9263 69.797 51.9912C69.802 52.0229 69.7997 52.0554 69.7904 52.0861C69.781 52.1168 69.7648 52.145 69.743 52.1686C69.7211 52.1922 69.6942 52.2105 69.6643 52.2221C69.6344 52.2338 69.6022 52.2385 69.5702 52.236C69.5032 52.2373 69.4381 52.2138 69.3876 52.1699C69.337 52.126 69.3046 52.0648 69.2966 51.9984ZM69.401 52.5132H69.797L69.9734 54.198H69.581L69.401 52.5132Z" fill="white"/>
<path d="M70.2614 53.3556C70.2451 53.2422 70.2547 53.1266 70.2895 53.0176C70.3244 52.9085 70.3836 52.8087 70.4626 52.7259C70.5417 52.643 70.6385 52.5792 70.7459 52.5392C70.8532 52.4992 70.9682 52.4842 71.0822 52.4952C71.2318 52.4876 71.3808 52.5196 71.5141 52.5878C71.6474 52.6561 71.7605 52.7582 71.8418 52.884L71.5574 53.0604C71.5076 52.9892 71.4413 52.9311 71.3642 52.891C71.2871 52.8508 71.2015 52.8299 71.1146 52.83C71.0475 52.8257 70.9803 52.8371 70.9183 52.8631C70.8563 52.8892 70.8012 52.9292 70.7572 52.9801C70.7133 53.031 70.6818 53.0914 70.6651 53.1566C70.6484 53.2217 70.647 53.2898 70.661 53.3556C70.6685 53.4995 70.7316 53.6348 70.8371 53.7329C70.9426 53.831 71.0822 53.8842 71.2262 53.8812C71.3073 53.8845 71.3876 53.8642 71.4572 53.8226C71.5269 53.781 71.583 53.7201 71.6186 53.6472L71.939 53.8236C71.8813 53.9517 71.7851 54.0586 71.6638 54.1296C71.5425 54.2005 71.4022 54.232 71.2622 54.2196C71.0172 54.2284 70.7779 54.1442 70.5923 53.984C70.4067 53.8237 70.2885 53.5993 70.2614 53.3556Z" fill="white"/>
<path d="M72.9144 53.4744L72.6516 53.7516L72.6984 54.198H72.3024L72.0576 51.858H72.45L72.6012 53.2692L73.3212 52.5132H73.8L73.1736 53.2332L74.0448 54.2124H73.566L72.9144 53.4744Z" fill="white"/>
<path d="M76.9394 51.9912L77.1734 54.198H76.763L76.6622 53.2512H75.5246L75.6218 54.198H75.215L74.981 51.9912H75.3914L75.4886 52.902H76.6262L76.529 51.9912H76.9394Z" fill="white"/>
<path d="M79.2254 53.4816H77.9078C77.9468 53.6045 78.0257 53.7109 78.132 53.7839C78.2383 53.8569 78.3659 53.8924 78.4946 53.8848C78.5764 53.8892 78.6581 53.875 78.7336 53.8432C78.809 53.8114 78.8763 53.7628 78.9302 53.7012L79.1678 53.946C79.0895 54.04 78.9898 54.1139 78.877 54.1615C78.7643 54.2091 78.6418 54.229 78.5198 54.2196C78.2713 54.2348 78.0266 54.1534 77.8367 53.9924C77.6468 53.8314 77.5266 53.6032 77.501 53.3556C77.483 53.2456 77.4899 53.133 77.5213 53.0261C77.5528 52.9192 77.6079 52.8208 77.6826 52.7381C77.7573 52.6555 77.8497 52.5907 77.9529 52.5486C78.0561 52.5066 78.1674 52.4883 78.2786 52.4952C78.5171 52.492 78.7478 52.5806 78.9227 52.7428C79.0976 52.905 79.2034 53.1283 79.2182 53.3664C79.2228 53.4046 79.2252 53.4431 79.2254 53.4816ZM77.8754 53.2188H78.8402C78.8145 53.1011 78.7488 52.9959 78.6543 52.921C78.5598 52.8462 78.4423 52.8064 78.3218 52.8084C78.265 52.8034 78.2077 52.8103 78.1537 52.8287C78.0997 52.847 78.0501 52.8765 78.0081 52.9151C77.9661 52.9537 77.9326 53.0007 77.9097 53.053C77.8869 53.1052 77.8752 53.1617 77.8754 53.2188Z" fill="white"/>
<path d="M80.4782 52.4952L80.5178 52.8552H80.4278C80.129 52.8552 79.9562 53.0316 79.9922 53.3772L80.0786 54.1944H79.6862L79.5098 52.5096H79.8698L79.895 52.7544C79.9571 52.6598 80.0451 52.5851 80.1485 52.5392C80.2519 52.4932 80.3663 52.4779 80.4782 52.4952Z" fill="white"/>
<path d="M82.4762 53.4816H81.1586C81.197 53.6048 81.2758 53.7116 81.3822 53.7847C81.4886 53.8578 81.6165 53.8931 81.7454 53.8848C81.8271 53.8892 81.9088 53.875 81.9843 53.8432C82.0598 53.8114 82.127 53.7628 82.181 53.7012L82.4186 53.946C82.3402 54.04 82.2405 54.1139 82.1278 54.1615C82.015 54.2091 81.8926 54.229 81.7706 54.2196C81.5221 54.2348 81.2773 54.1534 81.0874 53.9924C80.8976 53.8314 80.7773 53.6032 80.7518 53.3556C80.7337 53.2456 80.7406 53.133 80.7721 53.0261C80.8035 52.9192 80.8586 52.8208 80.9333 52.7381C81.0081 52.6555 81.1004 52.5907 81.2036 52.5486C81.3068 52.5066 81.4181 52.4883 81.5294 52.4952C81.7679 52.492 81.9985 52.5806 82.1734 52.7428C82.3484 52.905 82.4542 53.1283 82.469 53.3664C82.4735 53.4046 82.4759 53.4431 82.4762 53.4816ZM81.1262 53.2188H82.0802C82.0544 53.1011 81.9887 52.9959 81.8942 52.921C81.7997 52.8462 81.6823 52.8064 81.5618 52.8084C81.5058 52.8049 81.4497 52.813 81.397 52.8321C81.3442 52.8512 81.2959 52.8808 81.2551 52.9193C81.2143 52.9578 81.1818 53.0042 81.1596 53.0557C81.1374 53.1072 81.126 53.1627 81.1262 53.2188Z" fill="white"/>
<path d="M93.9276 61.7005L90.72 60.1201C90.72 60.1201 89.874 59.1445 90.7632 58.7269C90.936 58.6542 91.1231 58.6219 91.3103 58.6325C91.4974 58.6431 91.6797 58.6963 91.8432 58.7881L93.0348 59.4325L87.7176 54.1153C87.5777 53.9703 87.4995 53.7767 87.4995 53.5753C87.4995 53.3738 87.5777 53.1802 87.7176 53.0353C87.8634 52.8899 88.0608 52.8083 88.2666 52.8083C88.4724 52.8083 88.6698 52.8899 88.8156 53.0353L92.52 56.7253L90.828 55.0333L91.3896 54.4753C91.4539 54.4103 91.5304 54.3587 91.6147 54.3235C91.6991 54.2883 91.7896 54.2701 91.881 54.2701C91.9724 54.2701 92.0629 54.2883 92.1472 54.3235C92.2316 54.3587 92.3081 54.4103 92.3724 54.4753L93.8124 55.9153L92.304 54.4069L92.9556 53.7553C93.0864 53.6258 93.263 53.5531 93.447 53.5531C93.631 53.5531 93.8076 53.6258 93.9384 53.7553L95.184 55.0009L93.996 53.8129L94.374 53.4349C94.5048 53.3054 94.6814 53.2327 94.8654 53.2327C95.0494 53.2327 95.226 53.3054 95.3568 53.4349L98.3556 56.4373C98.4932 56.5789 98.614 56.7359 98.7156 56.9053L99.216 57.7405C99.4151 58.0735 99.5208 58.454 99.522 58.8421L96.48 61.8697L95.13 61.9453C94.7149 61.9677 94.3009 61.8834 93.9276 61.7005Z" fill="white"/>
<path d="M86.573 52.218C86.5253 52.2178 86.4782 52.2082 86.4344 52.1896C86.3905 52.1711 86.3507 52.144 86.3174 52.11L85.2194 51.012C85.1604 50.9431 85.1296 50.8546 85.1331 50.7639C85.1366 50.6733 85.1741 50.5874 85.2383 50.5233C85.3024 50.4592 85.3883 50.4216 85.4789 50.4181C85.5695 50.4146 85.6581 50.4454 85.727 50.5044L86.8286 51.6024C86.8956 51.6699 86.9333 51.7611 86.9333 51.8562C86.9333 51.9513 86.8956 52.0426 86.8286 52.11C86.7952 52.144 86.7555 52.1711 86.7116 52.1896C86.6677 52.2082 86.6206 52.2178 86.573 52.218Z" fill="white"/>
<path d="M85.8313 54H84.2797C84.1842 54 84.0926 53.9621 84.0251 53.8946C83.9576 53.8271 83.9197 53.7355 83.9197 53.64C83.9197 53.5446 83.9576 53.453 84.0251 53.3855C84.0926 53.318 84.1842 53.28 84.2797 53.28H85.8313C85.9268 53.28 86.0183 53.318 86.0858 53.3855C86.1533 53.453 86.1913 53.5446 86.1913 53.64C86.1913 53.7355 86.1533 53.8271 86.0858 53.8946C86.0183 53.9621 85.9268 54 85.8313 54Z" fill="white"/>
<path d="M90.1334 52.218C90.0626 52.2177 89.9935 52.1966 89.9347 52.1573C89.8759 52.1179 89.83 52.0621 89.8027 51.9968C89.7754 51.9315 89.768 51.8596 89.7814 51.7901C89.7947 51.7206 89.8283 51.6566 89.8778 51.606L90.9794 50.5044C91.0129 50.4707 91.0527 50.4439 91.0966 50.4256C91.1404 50.4074 91.1875 50.3979 91.235 50.3979C91.2825 50.3979 91.3296 50.4074 91.3735 50.4256C91.4173 50.4439 91.4571 50.4707 91.4906 50.5044C91.5577 50.5719 91.5953 50.6631 91.5953 50.7582C91.5953 50.8533 91.5577 50.9446 91.4906 51.012L90.389 52.1136C90.3554 52.147 90.3155 52.1734 90.2716 52.1913C90.2278 52.2092 90.1808 52.2183 90.1334 52.218Z" fill="white"/>
<path d="M85.4749 56.88C85.4034 56.8804 85.3334 56.8595 85.2738 56.82C85.2142 56.7805 85.1677 56.7241 85.1403 56.6581C85.1129 56.592 85.1058 56.5193 85.1198 56.4492C85.1339 56.3791 85.1685 56.3147 85.2193 56.2644L86.2993 55.1844C86.3667 55.1173 86.458 55.0797 86.5531 55.0797C86.6482 55.0797 86.7394 55.1173 86.8069 55.1844C86.8739 55.2518 86.9116 55.3431 86.9116 55.4382C86.9116 55.5333 86.8739 55.6245 86.8069 55.692L85.7269 56.79C85.6576 56.8513 85.5673 56.8835 85.4749 56.88Z" fill="white"/>
<path d="M88.3512 51.48C88.2557 51.48 88.1642 51.4421 88.0967 51.3746C88.0291 51.3071 87.9912 51.2155 87.9912 51.12V49.5648C87.9912 49.4694 88.0291 49.3778 88.0967 49.3103C88.1642 49.2428 88.2557 49.2048 88.3512 49.2048C88.4467 49.2048 88.5383 49.2428 88.6058 49.3103C88.6733 49.3778 88.7112 49.4694 88.7112 49.5648V51.12C88.7112 51.2155 88.6733 51.3071 88.6058 51.3746C88.5383 51.4421 88.4467 51.48 88.3512 51.48Z" fill="white"/>
<path d="M62.3376 90.7452H93.834L91.386 62.7876H59.8896L62.3376 90.7452Z" fill="#407BFF"/>
<path opacity="0.9" d="M62.3376 90.7452H93.834L91.386 62.7876H59.8896L62.3376 90.7452Z" fill="white"/>
<path d="M62.6689 80.8272H91.7281L90.2665 64.1232H61.2073L62.6689 80.8272Z" fill="#407BFF"/>
<path d="M82.6166 83.8081H90.2054L90.047 81.9937H82.4546L82.6166 83.8081Z" fill="#407BFF"/>
<path d="M73.6849 83.8081H81.2737L81.1154 81.9937H73.5229L73.6849 83.8081Z" fill="#407BFF"/>
<path d="M64.7497 83.8081H72.3421L72.1837 81.9937H64.5913L64.7497 83.8081Z" fill="#407BFF"/>
<path opacity="0.5" d="M82.6166 83.8081H90.2054L90.047 81.9937H82.4546L82.6166 83.8081Z" fill="white"/>
<path opacity="0.5" d="M73.6849 83.8081H81.2737L81.1154 81.9937H73.5229L73.6849 83.8081Z" fill="white"/>
<path opacity="0.5" d="M64.5913 81.9937L64.7497 83.8081H72.3421L72.1837 81.9937" fill="white"/>
<path d="M86.9545 86.4144H88.1245L88.0345 85.374H86.8645L86.9545 86.4144Z" fill="#407BFF"/>
<path d="M81.9325 86.4144H86.2741L86.1841 85.374H81.8425L81.9325 86.4144Z" fill="#407BFF"/>
<path d="M76.8205 86.4144H81.1621L81.0721 85.374H76.7305L76.8205 86.4144Z" fill="#407BFF"/>
<path d="M67.2948 86.4144H69.4656L69.3756 85.374H67.2012L67.2948 86.4144Z" fill="#407BFF"/>
<path d="M70.0993 86.4144H76.0249L75.9349 85.374H70.0093L70.0993 86.4144Z" fill="#407BFF"/>
<path d="M72.8246 88.1821H68.4794L68.3894 87.1453H72.7346L72.8246 88.1821Z" fill="#407BFF"/>
<path d="M77.9364 88.1821H73.5912L73.5012 87.1453H77.8464L77.9364 88.1821Z" fill="#407BFF"/>
<path d="M87.462 88.1821H85.2912L85.2012 87.1453H87.372L87.462 88.1821Z" fill="#407BFF"/>
<path d="M84.654 88.1821H78.7284L78.6384 87.1453H84.564L84.654 88.1821Z" fill="#407BFF"/>
<g opacity="0.6">
<path d="M86.9543 86.4144H88.1243L88.0343 85.374H86.8643L86.9543 86.4144Z" fill="white"/>
<path d="M81.9323 86.4144H86.2739L86.1839 85.374H81.8423L81.9323 86.4144Z" fill="white"/>
<path d="M76.8205 86.4144H81.1621L81.0721 85.374H76.7305L76.8205 86.4144Z" fill="white"/>
<path d="M67.2948 86.4144H69.4656L69.3756 85.374H67.2012L67.2948 86.4144Z" fill="white"/>
<path d="M70.0993 86.4144H76.0249L75.9349 85.374H70.0093L70.0993 86.4144Z" fill="white"/>
</g>
<g opacity="0.6">
<path d="M72.8246 88.1821H68.4794L68.3894 87.1453H72.7346L72.8246 88.1821Z" fill="white"/>
<path d="M77.9367 88.1821H73.5915L73.5015 87.1453H77.8467L77.9367 88.1821Z" fill="white"/>
<path d="M87.4622 88.1821H85.2914L85.2014 87.1453H87.3722L87.4622 88.1821Z" fill="white"/>
<path d="M84.6543 88.1821H78.7287L78.6387 87.1453H84.5643L84.6543 88.1821Z" fill="white"/>
</g>
<path d="M91.7318 80.8632L81.3926 71.6904L77.2202 80.8632H91.7318Z" fill="white"/>
<path d="M81.533 80.8633L68.0942 68.9401L62.6726 80.8633H81.533Z" fill="white"/>
<path d="M73.9296 69.0625C73.9869 69.6609 74.262 70.2174 74.7027 70.6263C75.1434 71.0351 75.719 71.2678 76.32 71.2801C76.6015 71.2848 76.8808 71.2296 77.1393 71.118C77.3979 71.0065 77.6297 70.8412 77.8193 70.6331C78.009 70.425 78.1522 70.1789 78.2395 69.9112C78.3267 69.6435 78.3559 69.3603 78.3252 69.0805C78.2653 68.4847 77.9889 67.9316 77.5482 67.5262C77.1076 67.1207 76.5335 66.8911 75.9348 66.8809C75.655 66.8764 75.3774 66.9312 75.1202 67.0417C74.8631 67.1522 74.6322 67.3158 74.4429 67.5219C74.2535 67.7279 74.1098 67.9717 74.0214 68.2372C73.9329 68.5028 73.9016 68.784 73.9296 69.0625Z" fill="white"/>
<path d="M150.729 137.945L150.426 137.981C150.408 137.83 148.583 122.562 152.349 110.088C156.089 97.6895 153.511 89.7911 153.486 89.7119L153.774 89.6147C153.799 89.6939 156.406 97.6859 152.637 110.178C148.893 122.587 150.711 137.794 150.729 137.945Z" fill="#407BFF"/>
<path d="M154.022 91.4112C153.371 90.6348 152.488 90.0873 151.502 89.8488L151.571 89.5536C152.624 89.8054 153.569 90.3883 154.267 91.2168L154.022 91.4112Z" fill="#407BFF"/>
<path d="M155.312 92.6757L154.444 93.1663L154.592 93.4295L155.461 92.9389L155.312 92.6757Z" fill="#407BFF"/>
<path d="M153.695 99.72C152.939 98.0001 151.541 96.6436 149.8 95.94L149.915 95.6592C151.729 96.3938 153.186 97.8065 153.976 99.5976L153.695 99.72Z" fill="#407BFF"/>
<path d="M152.885 109.249H152.583C152.572 108.635 152.425 108.031 152.154 107.481C151.883 106.93 151.493 106.446 151.013 106.063L151.2 105.84C151.714 106.249 152.132 106.767 152.423 107.357C152.714 107.946 152.872 108.592 152.885 109.249Z" fill="#407BFF"/>
<path d="M152.208 111.69L151.927 111.578C152.082 111.192 152.315 110.841 152.611 110.548C152.907 110.256 153.26 110.027 153.648 109.876L153.756 110.16C153.407 110.295 153.089 110.501 152.823 110.764C152.557 111.027 152.347 111.342 152.208 111.69Z" fill="#407BFF"/>
<path d="M150.246 127.159L150.012 126.968C150.372 126.522 150.66 124.83 150.808 123.923C150.844 123.703 150.876 123.52 150.901 123.386L151.2 123.44C151.175 123.574 151.142 123.757 151.106 123.97C150.883 125.327 150.635 126.691 150.246 127.159Z" fill="#407BFF"/>
<path d="M150.07 132.019C149.861 131.426 149.47 130.913 148.953 130.554C148.436 130.195 147.819 130.009 147.19 130.021V129.719C147.887 129.702 148.572 129.906 149.145 130.303C149.719 130.699 150.152 131.267 150.383 131.926L150.07 132.019Z" fill="#407BFF"/>
<path d="M152.385 135.194L150.25 137.583L150.475 137.785L152.611 135.396L152.385 135.194Z" fill="#407BFF"/>
<path d="M153.893 119.61C154.379 121.176 151.013 124.157 151.013 124.157C151.013 124.157 146.52 123.595 146.052 122.04C145.584 120.485 146.7 117.911 148.867 117.241C151.034 116.572 153.41 118.044 153.893 119.61Z" fill="#407BFF"/>
<path d="M157.637 100.606C157.212 102.269 154.015 103.45 154.015 103.45C154.015 103.45 151.787 100.872 152.215 99.2088C152.644 97.5456 154.411 95.7132 155.909 96.102C157.407 96.4908 158.065 98.9424 157.637 100.606Z" fill="#407BFF"/>
<path d="M144.817 125.456C146.822 126.238 148.057 129.776 148.057 129.776C148.057 129.776 144.749 131.576 142.744 130.777C140.738 129.978 138.6 127.8 139.183 126.335C139.766 124.87 142.808 124.675 144.817 125.456Z" fill="#407BFF"/>
<path d="M149.216 105.934C149.622 106.274 150.087 106.537 150.588 106.708C150.841 106.788 151.112 106.797 151.37 106.734C151.628 106.67 151.863 106.537 152.05 106.348C152.478 105.854 152.363 105.088 152.093 104.49C151.556 103.309 149.573 101.304 148.061 101.88C145.868 102.726 148.237 105.206 149.216 105.934Z" fill="#407BFF"/>
<path d="M153.72 108.943C153.432 109.303 153.126 109.75 153.285 110.178C153.374 110.361 153.522 110.509 153.706 110.599C153.889 110.689 154.096 110.716 154.296 110.675C154.691 110.581 155.06 110.4 155.376 110.146C156.15 109.606 157.738 108.479 156.723 107.424C155.707 106.369 154.307 108.191 153.72 108.943Z" fill="#407BFF"/>
<path d="M147.24 93.9347C147.073 93.9437 146.914 94.0054 146.784 94.1108C146.655 94.2163 146.563 94.3601 146.52 94.5215C146.452 94.9031 146.772 95.2415 147.078 95.4791C147.848 96.0695 150.16 97.6679 150.678 96.1271C151.146 94.6799 148.248 93.8195 147.24 93.9347Z" fill="#407BFF"/>
<path d="M151.485 88.8624C151.009 88.9056 150.534 88.7328 150.045 88.7652C149.555 88.7976 149.037 89.1792 149.145 89.6472C149.253 90.1152 149.778 90.2196 150.225 90.2484C150.979 90.2962 151.737 90.2441 152.478 90.0936C152.654 90.0778 152.818 89.9954 152.935 89.8632C153.13 89.5788 152.82 89.1972 152.493 89.0964C152.153 89.053 151.818 88.9734 151.495 88.8588L151.485 88.8624Z" fill="#407BFF"/>
<path d="M156.143 92.16C156.622 92.16 157.082 91.9692 157.561 91.9656C158.04 91.962 158.594 92.3256 158.519 92.7864C158.443 93.2472 157.925 93.4056 157.486 93.4596C156.737 93.5604 155.977 93.5604 155.228 93.4596C155.052 93.4567 154.883 93.3858 154.757 93.2616C154.544 92.9916 154.829 92.5884 155.149 92.466C155.486 92.4018 155.814 92.3004 156.128 92.1636L156.143 92.16Z" fill="#407BFF"/>
<path d="M155.671 127.4C155.778 127.286 155.923 127.215 156.078 127.199C156.18 127.21 156.276 127.255 156.35 127.327C156.423 127.398 156.471 127.493 156.485 127.595C156.507 127.8 156.48 128.007 156.406 128.2C156.082 129.28 152.446 137.142 151.603 135.731C151.107 134.899 152.323 132.131 152.683 131.353C153.377 129.832 154.397 128.483 155.671 127.4Z" fill="#407BFF"/>
<path d="M153.493 89.1612C153.781 88.5132 154.094 87.8328 154.67 87.4152C155.246 86.9976 156.164 86.9652 156.582 87.5412C157.05 88.182 156.582 89.1576 155.862 89.4996C155.142 89.8416 154.307 89.7372 153.518 89.6292C153.518 89.5104 153.518 89.3952 153.5 89.2692L153.493 89.1612Z" fill="#407BFF"/>
<g opacity="0.6">
<path d="M150.729 137.945L150.426 137.981C150.408 137.83 148.583 122.562 152.349 110.088C156.089 97.6895 153.511 89.7911 153.486 89.7119L153.774 89.6147C153.799 89.6939 156.406 97.6859 152.637 110.178C148.893 122.587 150.711 137.794 150.729 137.945Z" fill="white"/>
<path d="M154.022 91.4112C153.371 90.6348 152.488 90.0873 151.502 89.8488L151.571 89.5536C152.624 89.8054 153.569 90.3883 154.267 91.2168L154.022 91.4112Z" fill="white"/>
<path d="M155.312 92.6757L154.444 93.1663L154.592 93.4295L155.461 92.9389L155.312 92.6757Z" fill="white"/>
<path d="M153.695 99.72C152.939 98.0001 151.541 96.6436 149.8 95.94L149.915 95.6592C151.729 96.3938 153.186 97.8065 153.976 99.5976L153.695 99.72Z" fill="white"/>
<path d="M152.885 109.249H152.583C152.572 108.635 152.425 108.031 152.154 107.481C151.883 106.93 151.493 106.446 151.013 106.063L151.2 105.84C151.714 106.249 152.132 106.767 152.423 107.357C152.714 107.946 152.872 108.592 152.885 109.249Z" fill="white"/>
<path d="M152.208 111.69L151.927 111.578C152.082 111.192 152.315 110.841 152.611 110.548C152.907 110.256 153.26 110.027 153.648 109.876L153.756 110.16C153.407 110.295 153.089 110.501 152.823 110.764C152.557 111.027 152.347 111.342 152.208 111.69Z" fill="white"/>
<path d="M150.246 127.159L150.012 126.968C150.372 126.522 150.66 124.83 150.808 123.923C150.844 123.703 150.876 123.52 150.901 123.386L151.2 123.44C151.175 123.574 151.142 123.757 151.106 123.97C150.883 125.327 150.635 126.691 150.246 127.159Z" fill="white"/>
<path d="M150.07 132.019C149.861 131.426 149.47 130.913 148.953 130.554C148.436 130.195 147.819 130.009 147.19 130.021V129.719C147.887 129.702 148.572 129.906 149.145 130.303C149.719 130.699 150.152 131.267 150.383 131.926L150.07 132.019Z" fill="white"/>
<path d="M152.385 135.194L150.25 137.583L150.475 137.785L152.611 135.396L152.385 135.194Z" fill="white"/>
<path d="M153.893 119.61C154.379 121.176 151.013 124.157 151.013 124.157C151.013 124.157 146.52 123.595 146.052 122.04C145.584 120.485 146.7 117.911 148.867 117.241C151.034 116.572 153.41 118.044 153.893 119.61Z" fill="white"/>
<path d="M157.637 100.606C157.212 102.269 154.015 103.45 154.015 103.45C154.015 103.45 151.787 100.872 152.215 99.2088C152.644 97.5456 154.411 95.7132 155.909 96.102C157.407 96.4908 158.065 98.9424 157.637 100.606Z" fill="white"/>
<path d="M144.817 125.456C146.822 126.238 148.057 129.776 148.057 129.776C148.057 129.776 144.749 131.576 142.744 130.777C140.738 129.978 138.6 127.8 139.183 126.335C139.766 124.87 142.808 124.675 144.817 125.456Z" fill="white"/>
<path d="M149.216 105.934C149.622 106.274 150.087 106.537 150.588 106.708C150.841 106.788 151.112 106.797 151.37 106.734C151.628 106.67 151.863 106.537 152.05 106.348C152.478 105.854 152.363 105.088 152.093 104.49C151.556 103.309 149.573 101.304 148.061 101.88C145.868 102.726 148.237 105.206 149.216 105.934Z" fill="white"/>
<path d="M153.72 108.943C153.432 109.303 153.126 109.75 153.285 110.178C153.374 110.361 153.522 110.509 153.706 110.599C153.889 110.689 154.096 110.716 154.296 110.675C154.691 110.581 155.06 110.4 155.376 110.146C156.15 109.606 157.738 108.479 156.723 107.424C155.707 106.369 154.307 108.191 153.72 108.943Z" fill="white"/>
<path d="M147.24 93.9347C147.073 93.9437 146.914 94.0054 146.784 94.1108C146.655 94.2163 146.563 94.3601 146.52 94.5215C146.452 94.9031 146.772 95.2415 147.078 95.4791C147.848 96.0695 150.16 97.6679 150.678 96.1271C151.146 94.6799 148.248 93.8195 147.24 93.9347Z" fill="white"/>
<path d="M151.485 88.8624C151.009 88.9056 150.534 88.7328 150.045 88.7652C149.555 88.7976 149.037 89.1792 149.145 89.6472C149.253 90.1152 149.778 90.2196 150.225 90.2484C150.979 90.2962 151.737 90.2441 152.478 90.0936C152.654 90.0778 152.818 89.9954 152.935 89.8632C153.13 89.5788 152.82 89.1972 152.493 89.0964C152.153 89.053 151.818 88.9734 151.495 88.8588L151.485 88.8624Z" fill="white"/>
<path d="M156.143 92.16C156.622 92.16 157.082 91.9692 157.561 91.9656C158.04 91.962 158.594 92.3256 158.519 92.7864C158.443 93.2472 157.925 93.4056 157.486 93.4596C156.737 93.5604 155.977 93.5604 155.228 93.4596C155.052 93.4567 154.883 93.3858 154.757 93.2616C154.544 92.9916 154.829 92.5884 155.149 92.466C155.486 92.4018 155.814 92.3004 156.128 92.1636L156.143 92.16Z" fill="white"/>
<path d="M155.671 127.4C155.778 127.286 155.923 127.215 156.078 127.199C156.18 127.21 156.276 127.255 156.35 127.327C156.423 127.398 156.471 127.493 156.485 127.595C156.507 127.8 156.48 128.007 156.406 128.2C156.082 129.28 152.446 137.142 151.603 135.731C151.107 134.899 152.323 132.131 152.683 131.353C153.377 129.832 154.397 128.483 155.671 127.4Z" fill="white"/>
<path d="M153.493 89.1612C153.781 88.5132 154.094 87.8328 154.67 87.4152C155.246 86.9976 156.164 86.9652 156.582 87.5412C157.05 88.182 156.582 89.1576 155.862 89.4996C155.142 89.8416 154.307 89.7372 153.518 89.6292C153.518 89.5104 153.518 89.3952 153.5 89.2692L153.493 89.1612Z" fill="white"/>
</g>
<path d="M155.959 148.252C152.135 149.152 148.155 149.152 144.331 148.252L142.531 134.906H157.774L155.959 148.252Z" fill="#263238"/>
<g opacity="0.8">
<path d="M155.959 148.252C152.135 149.152 148.155 149.152 144.331 148.252L142.531 134.906H157.774L155.959 148.252Z" fill="white"/>
</g>
<path d="M114.077 71.9749C113.289 74.4625 114.153 80.5465 111.676 82.1269C110.622 82.7744 109.762 83.6945 109.187 84.7901C108.612 85.8856 108.344 87.1159 108.411 88.3513C110.023 86.1229 112.705 84.8521 115.42 84.3913C118.134 83.9305 120.913 84.2041 123.646 84.5245C124.935 84.6757 130.954 86.5873 130.626 87.8437C132.563 84.9637 130.356 72.0037 129.481 68.6269C129.219 67.6153 129.73 66.1897 128.733 65.8837C126.425 65.1637 121.428 63.7633 116.374 67.0141C114.343 68.3245 114.585 70.3837 114.077 71.9749Z" fill="#407BFF"/>
<g opacity="0.5">
<path d="M114.077 71.9749C113.289 74.4625 114.153 80.5465 111.676 82.1269C110.622 82.7744 109.762 83.6945 109.187 84.7901C108.612 85.8856 108.344 87.1159 108.411 88.3513C110.023 86.1229 112.705 84.8521 115.42 84.3913C118.134 83.9305 120.913 84.2041 123.646 84.5245C124.935 84.6757 130.954 86.5873 130.626 87.8437C132.563 84.9637 130.356 72.0037 129.481 68.6269C129.219 67.6153 129.73 66.1897 128.733 65.8837C126.425 65.1637 121.428 63.7633 116.374 67.0141C114.343 68.3245 114.585 70.3837 114.077 71.9749Z" fill="#1C1C1C"/>
</g>
<path d="M101.905 67.9284L100.573 64.5444L98.939 67.0824C98.939 67.0824 99.7994 68.8032 100.847 68.8824L101.905 67.9284Z" fill="#DD8C6A"/>
<path d="M98.2801 63.792L97.7689 64.3644C97.62 64.5335 97.5356 64.7496 97.5303 64.9748C97.525 65.1999 97.5993 65.4198 97.7401 65.5956L98.9281 67.0788L100.562 64.5588L99.6409 63.72C99.5478 63.6333 99.4383 63.5662 99.3188 63.5227C99.1992 63.4792 99.0722 63.4603 98.9452 63.467C98.8182 63.4737 98.6938 63.506 98.5795 63.5618C98.4653 63.6177 98.3634 63.6959 98.2801 63.792Z" fill="#DD8C6A"/>
<path d="M99.3601 66.6864L98.9389 66.4344C98.7262 66.3086 98.5324 66.1534 98.3629 65.9736L98.2981 65.6784C98.3499 65.6046 98.4241 65.5494 98.5096 65.5209C98.5951 65.4924 98.6876 65.4921 98.7733 65.52L99.1333 65.6424L100.933 65.8908V66.6468L100.361 67.428H100.177C99.9728 67.4297 99.7752 67.3543 99.6238 67.2169C99.4723 67.0795 99.3782 66.8901 99.3601 66.6864Z" fill="#DD8C6A"/>
<path d="M113.357 68.9329C113.357 68.9329 109.958 71.5033 107.359 73.8865C107.359 73.8865 102.521 68.8789 101.826 67.6261L100.469 68.8069C101 70.5911 101.713 72.3161 102.596 73.9549C103.028 74.6882 103.556 75.3602 104.166 75.9529C104.534 76.3053 104.958 76.5958 105.419 76.8133C106.003 77.0902 106.657 77.1807 107.294 77.0725C107.458 77.0437 107.62 77.0015 107.777 76.9465L108.083 76.8349L108.637 76.6225C108.997 76.4857 109.357 76.3165 109.717 76.1617C110.443 75.8302 111.151 75.46 111.838 75.0529C112.529 74.6384 113.196 74.1853 113.836 73.6957C114.167 73.4401 114.466 73.1773 114.775 72.8929C114.926 72.7561 115.081 72.6049 115.229 72.4537L115.452 72.2161C115.535 72.1261 115.592 72.0577 115.708 71.9245L113.357 68.9329Z" fill="#407BFF"/>
<path d="M116.68 66.9852C115.452 66.6828 106.772 74.4048 106.772 74.4048L108.083 76.8348C108.083 76.8348 115.963 73.548 118.382 69.9948C118.181 68.3064 118.472 67.4316 116.68 66.9852Z" fill="#407BFF"/>
<path opacity="0.2" d="M116.485 69.6565L115.448 72.7885C111.175 75.7513 109.732 76.1617 109.732 76.1617L116.485 69.6565Z" fill="#1C1C1C"/>
<path d="M117.58 146.372L114.62 146.48L114.116 139.601L117.076 139.496L117.58 146.372Z" fill="#DD8C6A"/>
<path d="M113.418 146.858C113.432 146.856 113.445 146.85 113.455 146.841C113.466 146.831 113.473 146.818 113.476 146.804C113.477 146.79 113.474 146.775 113.468 146.762C113.461 146.748 113.452 146.737 113.44 146.729C113.31 146.657 112.144 146.009 111.773 146.203C111.739 146.221 111.71 146.247 111.688 146.279C111.667 146.311 111.654 146.348 111.65 146.387C111.638 146.451 111.641 146.518 111.661 146.581C111.68 146.644 111.715 146.701 111.762 146.747C111.972 146.895 112.226 146.967 112.482 146.952C112.796 146.95 113.109 146.918 113.418 146.858ZM111.978 146.308C112.409 146.386 112.823 146.538 113.202 146.758C112.54 146.844 112.054 146.801 111.877 146.635C111.848 146.605 111.827 146.568 111.814 146.528C111.802 146.488 111.799 146.446 111.805 146.405C111.806 146.389 111.812 146.374 111.821 146.36C111.829 146.347 111.841 146.337 111.856 146.329C111.897 146.311 111.944 146.304 111.989 146.311L111.978 146.308Z" fill="#407BFF"/>
<path d="M113.461 146.844C113.469 146.835 113.475 146.825 113.478 146.814C113.482 146.803 113.482 146.791 113.479 146.779C113.479 146.747 113.436 145.94 113.073 145.62C113.02 145.574 112.958 145.539 112.891 145.518C112.824 145.497 112.754 145.49 112.684 145.498C112.624 145.494 112.564 145.51 112.515 145.545C112.466 145.58 112.43 145.63 112.414 145.688C112.349 146.023 113.026 146.686 113.375 146.855H113.4C113.421 146.858 113.443 146.854 113.461 146.844ZM112.741 145.638C112.832 145.632 112.922 145.66 112.993 145.717C113.209 145.981 113.335 146.306 113.353 146.646C112.993 146.423 112.54 145.904 112.583 145.703C112.583 145.703 112.583 145.638 112.72 145.627H112.763L112.741 145.638Z" fill="#407BFF"/>
<path d="M114.84 145.303L117.497 145.58C117.554 145.584 117.608 145.609 117.648 145.65C117.688 145.692 117.711 145.746 117.713 145.804L118.116 149.544C118.116 149.607 118.104 149.67 118.079 149.728C118.055 149.786 118.019 149.839 117.975 149.884C117.93 149.928 117.877 149.964 117.818 149.987C117.76 150.011 117.697 150.023 117.634 150.023H117.576C116.424 149.89 115.873 149.771 114.412 149.63C113.515 149.544 110.732 149.695 109.537 149.339C108.342 148.982 108.63 147.784 109.177 147.823C110.88 147.964 112.918 146.977 113.983 145.739C114.12 145.634 114.656 145.278 114.84 145.303Z" fill="#263238"/>
<path opacity="0.2" d="M114.116 139.601L114.376 143.147L117.335 143.042L117.079 139.5L114.116 139.601Z" fill="#1C1C1C"/>
<path d="M114.585 70.3837C112.723 73.1341 114.628 75.6757 115.809 84.3229L126.889 85.0429C126.997 80.4277 127.249 76.7089 129.769 67.7629C129.881 67.3729 129.833 66.9547 129.636 66.5998C129.44 66.2449 129.111 65.9823 128.722 65.8693C128.616 65.8397 128.507 65.8204 128.398 65.8117C127.48 65.7577 126.328 65.7181 125.158 65.7613C123.303 65.7971 121.453 65.9595 119.621 66.2473C118.625 66.4254 117.642 66.6658 116.676 66.9673C116.1 67.1473 115.315 68.6521 114.585 70.3837Z" fill="white"/>
<path d="M115.362 84.8737C115.362 84.8737 107.665 99.6589 109.03 120.474C108.803 125.438 113.929 141.019 113.929 141.019H117.933C117.933 141.019 118.167 118.415 118.8 112.547C119.83 102.938 123.797 85.2337 123.797 85.2337L115.362 84.8737Z" fill="#407BFF"/>
<path d="M118.66 142.121L113.018 142.103L112.612 140.382L118.93 140.195L118.66 142.121Z" fill="#407BFF"/>
<path opacity="0.4" d="M118.66 142.121L113.018 142.103L112.612 140.382L118.93 140.195L118.66 142.121Z" fill="white"/>
<path opacity="0.2" d="M118.383 119.833C117.079 119.272 113.523 116.449 114.545 109.526L118.505 92.8405L118.383 119.833Z" fill="#1C1C1C"/>
<path d="M126.576 115.459C123.25 105.476 131.202 92.4949 127.019 85.4353L120.103 85.3201C120.103 85.3201 111.237 116.226 121.299 120.431L126.576 115.459Z" fill="#407BFF"/>
<path d="M142.297 79.7545C142.726 80.4745 145.141 80.1613 145.141 80.1613L145.836 77.2345L142.83 78.2245L142.297 79.7545Z" fill="#DD8C6A"/>
<path d="M145.833 77.2092L145.141 80.1612L146.941 80.6292C147.035 80.6432 147.131 80.6224 147.211 80.5707C147.29 80.5189 147.348 80.4399 147.373 80.3484L148.187 78.1884C148.201 78.1378 148.195 78.0839 148.17 78.0377C148.145 77.9916 148.103 77.9566 148.054 77.94L145.833 77.2092Z" fill="#DD8C6A"/>
<path d="M142.83 78.2208L142.301 79.7544C142.301 79.7544 138.424 80.0424 135.461 79.6356H135.436C134.395 79.5312 131.76 79.056 130.644 77.0508C129.056 74.196 127.156 70.5708 127.123 69.3972C127.062 66.8772 128.164 65.2752 129.283 66.0492C131.544 67.6332 133.484 73.3032 134.586 75.6036L137.221 76.4388L142.83 78.2208Z" fill="#407BFF"/>
<path d="M142.312 135.364L140.047 137.282L134.82 132.718L136.876 130.27L142.312 135.364Z" fill="#DD8C6A"/>
<path d="M139.122 136.224L140.616 134.006C140.647 133.958 140.696 133.922 140.751 133.907C140.807 133.892 140.867 133.898 140.919 133.924L144.411 135.324C144.466 135.354 144.516 135.394 144.556 135.443C144.596 135.492 144.625 135.549 144.644 135.609C144.662 135.67 144.667 135.733 144.661 135.796C144.654 135.859 144.635 135.92 144.605 135.976L144.576 136.022C143.917 136.98 143.55 137.408 142.74 138.632C142.243 139.385 141.07 141.912 140.195 142.801C139.32 143.69 138.395 142.866 138.679 142.42C139.601 140.98 139.687 138.722 139.097 137.2C139.044 136.876 139.052 136.545 139.122 136.224Z" fill="#263238"/>
<path opacity="0.2" d="M135.392 128.808L133.207 131.36L136.613 134.28L138.802 132.073L135.392 128.808Z" fill="#1C1C1C"/>
<path d="M118.098 117.104C118.584 122.897 134.745 134.053 134.745 134.053L137.79 130.932C137.79 130.932 126.371 117.637 126.576 115.452L118.098 117.104Z" fill="#407BFF"/>
<path d="M138.366 130.331L134.442 134.435L132.779 133.585L137.452 128.707L138.366 130.331Z" fill="#407BFF"/>
<path opacity="0.4" d="M138.366 130.331L134.442 134.435L132.779 133.585L137.452 128.707L138.366 130.331Z" fill="white"/>
<path d="M139.219 137.092C139.226 137.08 139.229 137.067 139.229 137.054C139.229 137.041 139.226 137.028 139.219 137.016C139.211 137.004 139.199 136.996 139.185 136.991C139.172 136.987 139.157 136.987 139.144 136.991C139.039 137.023 137.995 137.322 137.891 137.686C137.877 137.726 137.875 137.77 137.884 137.812C137.894 137.854 137.915 137.892 137.945 137.923C137.987 137.978 138.042 138.021 138.105 138.048C138.168 138.076 138.236 138.087 138.305 138.082L138.337 138.064C138.668 137.999 139.025 137.43 139.219 137.092ZM139 137.174C138.74 137.639 138.467 137.894 138.28 137.934C138.235 137.937 138.19 137.929 138.149 137.91C138.108 137.891 138.073 137.862 138.046 137.826C138.032 137.813 138.022 137.796 138.016 137.778C138.011 137.76 138.01 137.74 138.013 137.722C138.071 137.524 138.6 137.297 139.01 137.171L139 137.174Z" fill="#407BFF"/>
<path d="M139.176 137.131C139.188 137.127 139.198 137.121 139.207 137.112C139.216 137.103 139.222 137.093 139.226 137.081C139.227 137.068 139.223 137.056 139.217 137.045C139.211 137.034 139.201 137.026 139.19 137.02C139.162 136.998 138.517 136.433 138.089 136.49C138.035 136.493 137.982 136.509 137.935 136.535C137.887 136.561 137.846 136.597 137.815 136.642C137.781 136.685 137.762 136.739 137.762 136.795C137.762 136.85 137.781 136.904 137.815 136.948C138.01 137.189 138.704 137.228 139.068 137.153C139.105 137.149 139.141 137.142 139.176 137.131ZM138.096 136.616H138.118C138.449 136.655 138.76 136.799 139.003 137.027C138.643 137.088 138.06 137.027 137.923 136.858C137.905 136.829 137.887 136.789 137.923 136.717C137.939 136.691 137.961 136.668 137.986 136.651C138.012 136.633 138.04 136.622 138.071 136.616H138.096Z" fill="#407BFF"/>
<path d="M126.965 84.4849L127.203 85.5649C127.239 85.6513 127.138 85.7305 126.997 85.7197L115.56 84.9997C115.452 84.9997 115.366 84.9313 115.362 84.8665L115.323 83.7865C115.323 83.7145 115.42 83.6533 115.539 83.6641L126.774 84.3841C126.812 84.3834 126.849 84.3923 126.883 84.4099C126.916 84.4275 126.944 84.4533 126.965 84.4849Z" fill="#263238"/>
<path d="M124.697 85.6801L125.028 85.7017C125.093 85.7017 125.147 85.6765 125.143 85.6333L125.082 84.2221C125.082 84.1825 125.025 84.1465 124.956 84.1429L124.625 84.1177C124.564 84.1177 124.51 84.1465 124.513 84.1897L124.575 85.5973C124.578 85.6513 124.632 85.6801 124.697 85.6801Z" fill="#407BFF"/>
<path d="M116.438 85.176L116.773 85.1976C116.834 85.1976 116.888 85.1724 116.885 85.1292L116.824 83.7216C116.824 83.6784 116.766 83.6424 116.705 83.6388L116.374 83.6172C116.309 83.6172 116.255 83.6424 116.258 83.682L116.32 85.0932C116.32 85.1364 116.374 85.1724 116.438 85.176Z" fill="#407BFF"/>
<path d="M120.24 85.4065L120.571 85.4281C120.636 85.4281 120.69 85.3993 120.686 85.3597L120.6 83.9521C120.6 83.9089 120.546 83.8729 120.481 83.8693L120.15 83.8477C120.089 83.8477 120.035 83.8729 120.039 83.9125L120.1 85.3201C120.103 85.3633 120.154 85.4029 120.24 85.4065Z" fill="#407BFF"/>
<path d="M125.025 59.7133C124.56 61.4953 124.009 64.7353 125.172 65.7973C125.172 65.7973 124.567 67.6189 121.259 67.9069C117.605 68.2273 119.635 66.2833 119.635 66.2833C121.651 65.6245 121.695 64.1989 121.435 62.8633L125.025 59.7133Z" fill="#DD8C6A"/>
<path d="M125.161 65.7793C123.408 65.7825 121.657 65.916 119.923 66.1789L118.044 66.6001C117.547 67.4605 117.504 69.4801 119.56 69.9589C119.56 69.9589 123.768 70.8121 125.978 67.1113C126.057 66.9718 126.098 66.8139 126.095 66.6537C126.093 66.4934 126.047 66.3368 125.964 66.1999C125.881 66.0631 125.762 65.9509 125.621 65.8751C125.48 65.7992 125.321 65.7624 125.161 65.7685V65.7793Z" fill="#DD8C6A"/>
<path opacity="0.2" d="M123.563 61.0021L121.439 62.8633C121.504 63.1762 121.54 63.4943 121.547 63.8137C122.314 63.6409 123.577 62.8849 123.707 62.0965C123.733 61.7257 123.684 61.3534 123.563 61.0021Z" fill="#1C1C1C"/>
<path d="M123.001 51.84C122.742 52.4565 122.269 52.9588 121.669 53.2548C121.309 53.4168 120.229 53.8884 119.898 54.2592C119.329 54.8784 118.991 52.1604 120.449 51.4404C121.907 50.7204 123.729 50.2704 123.001 51.84Z" fill="#263238"/>
<path d="M121.565 63.0757C121.383 63.2042 121.175 63.289 120.955 63.3234C120.735 63.3578 120.511 63.3408 120.299 63.2739C120.087 63.2069 119.893 63.0918 119.733 62.9375C119.573 62.7832 119.451 62.5939 119.376 62.3845C119.105 62.4304 118.826 62.4051 118.567 62.3111C118.309 62.2171 118.079 62.0575 117.9 61.8481C117.71 61.6198 117.578 61.349 117.516 61.0588C117.453 60.7686 117.461 60.4676 117.54 60.1813C117.789 59.5521 118.218 59.0108 118.775 58.6261C119.276 60.2434 120.189 61.7024 121.424 62.8597L121.565 63.0757Z" fill="#263238"/>
<path d="M127.379 57.5712C126.317 60.318 125.939 61.506 124.042 62.496C121.223 63.9864 118.062 62.082 118.282 59.0724C118.476 56.3652 120.179 52.3224 123.289 52.074C123.973 52.0149 124.66 52.1319 125.286 52.4137C125.911 52.6956 126.454 53.1329 126.863 53.6841C127.271 54.2352 127.532 54.8819 127.62 55.5623C127.707 56.2427 127.62 56.9344 127.364 57.5712H127.379Z" fill="#DD8C6A"/>
<path d="M120.715 56.7145C120.37 57.189 119.961 57.6131 119.499 57.9745C119.596 58.0874 119.716 58.1779 119.852 58.2401C119.987 58.3022 120.134 58.3344 120.283 58.3345L120.715 56.7145Z" fill="#DE5753"/>
<path d="M127.545 59.9473C127.19 60.3961 126.672 60.6861 126.105 60.7537C125.352 60.8401 125.107 60.1417 125.406 59.4937C125.683 58.9141 126.407 58.1689 127.113 58.3849C127.233 58.4237 127.346 58.486 127.442 58.5682C127.539 58.6504 127.619 58.7509 127.677 58.8639C127.734 58.977 127.769 59.1004 127.78 59.227C127.79 59.3535 127.775 59.4809 127.735 59.6017C127.695 59.7284 127.63 59.8458 127.545 59.9473Z" fill="#DD8C6A"/>
<path d="M123.948 56.214C123.919 56.2158 123.889 56.208 123.865 56.1917C123.84 56.1755 123.821 56.1518 123.811 56.124C123.577 55.5012 122.771 55.2996 122.764 55.296C122.744 55.2936 122.725 55.287 122.708 55.2767C122.691 55.2663 122.676 55.2525 122.665 55.236C122.653 55.2196 122.646 55.2009 122.642 55.1813C122.639 55.1616 122.64 55.1415 122.644 55.1222C122.649 55.1028 122.658 55.0848 122.671 55.0692C122.683 55.0536 122.699 55.0408 122.716 55.0317C122.734 55.0226 122.754 55.0174 122.774 55.0164C122.794 55.0154 122.813 55.0187 122.832 55.026C122.875 55.026 123.793 55.2816 124.078 56.0304C124.085 56.0477 124.088 56.0661 124.088 56.0847C124.088 56.1033 124.084 56.1217 124.076 56.1388C124.069 56.1559 124.058 56.1713 124.045 56.1842C124.032 56.1971 124.016 56.2073 123.998 56.214H123.948Z" fill="#263238"/>
<path d="M119.714 54.72C119.69 54.7197 119.667 54.7133 119.646 54.7013C119.625 54.6893 119.608 54.6722 119.596 54.6516C119.586 54.6359 119.58 54.6184 119.577 54.6001C119.574 54.5819 119.576 54.5633 119.58 54.5455C119.585 54.5277 119.593 54.511 119.604 54.4964C119.616 54.4819 119.63 54.4698 119.646 54.4608C119.839 54.3466 120.056 54.2799 120.279 54.2661C120.503 54.2523 120.726 54.2919 120.931 54.3816C120.948 54.3896 120.963 54.4009 120.975 54.4148C120.987 54.4286 120.996 54.4448 121.002 54.4622C121.007 54.4797 121.009 54.4981 121.008 54.5165C121.006 54.5348 121.001 54.5526 120.992 54.5688C120.975 54.6024 120.946 54.628 120.91 54.6402C120.875 54.6523 120.836 54.6499 120.802 54.6336C120.64 54.5624 120.463 54.5321 120.286 54.5453C120.11 54.5584 119.94 54.6148 119.79 54.7092C119.766 54.718 119.74 54.7217 119.714 54.72Z" fill="#263238"/>
<path d="M119.779 55.8577C119.621 55.8181 119.444 55.9873 119.387 56.2177C119.329 56.4481 119.412 56.6929 119.567 56.7289C119.722 56.7649 119.902 56.5993 119.959 56.3689C120.017 56.1385 119.938 55.8973 119.779 55.8577Z" fill="#263238"/>
<path d="M119.304 55.584L119.848 55.8936C119.495 56.1132 119.304 55.584 119.304 55.584Z" fill="#263238"/>
<path d="M122.519 56.5993C122.361 56.5597 122.184 56.7289 122.127 56.9593C122.069 57.1897 122.152 57.4345 122.307 57.4705C122.461 57.5065 122.641 57.3409 122.699 57.1105C122.757 56.8801 122.677 56.6389 122.519 56.5993Z" fill="#263238"/>
<path d="M122.04 56.3257L122.584 56.6353C122.234 56.8549 122.04 56.3257 122.04 56.3257Z" fill="#263238"/>
<path d="M119.916 59.4C119.96 59.8269 119.972 60.2565 119.952 60.6852L120.175 60.732C121.183 60.93 121.716 60.6888 122 60.372C122.135 60.2089 122.23 60.0166 122.278 59.8104C122.308 59.6929 122.321 59.5717 122.317 59.4504C121.72 59.6628 120.766 59.5512 120.262 59.4504C120.049 59.4432 119.916 59.4 119.916 59.4Z" fill="#263238"/>
<path d="M120.262 59.472L120.28 59.8536C121.23 60.0372 121.925 60.0408 122.278 59.8104C122.308 59.693 122.321 59.5717 122.317 59.4504C121.72 59.6664 120.766 59.5548 120.262 59.472Z" fill="white"/>
<path d="M120.175 60.7429C121.183 60.9409 121.716 60.6997 122 60.3829C121.616 60.3144 121.222 60.3144 120.838 60.3829C120.584 60.4299 120.353 60.556 120.175 60.7429Z" fill="#DE5753"/>
<path d="M123.257 50.9184C123.898 50.328 124.924 50.3496 125.705 50.7348C126.46 51.1728 127.119 51.7594 127.642 52.4592C128.621 53.604 129.614 54.7956 130.082 56.2284C130.55 57.6612 130.374 59.4072 129.262 60.4224C128.934 60.7212 128.542 60.9444 128.228 61.2576C128.061 61.4021 127.933 61.5862 127.855 61.7931C127.777 62 127.752 62.2231 127.782 62.442C127.883 62.874 128.448 63.162 128.797 62.9028C128.542 63.1913 128.193 63.3787 127.811 63.4309C127.43 63.4831 127.043 63.3966 126.72 63.1872C126.483 63.417 126.185 63.5733 125.861 63.6372C125.537 63.701 125.201 63.6698 124.895 63.5472C124.29 63.2952 122.947 62.4348 123.232 61.1352C123.952 61.0164 125.91 59.4108 126.04 58.464C126.169 57.5172 126.014 55.62 125.604 54.756C125.496 55.116 125.024 55.062 124.708 54.882C124.412 54.6652 124.186 54.3677 124.056 54.0252C123.891 53.7039 123.666 53.4168 123.394 53.1792C122.501 52.3692 121.928 53.3412 121.669 53.2476C121.867 52.326 122.566 51.5556 123.257 50.9184Z" fill="#263238"/>
<path opacity="0.2" d="M123.729 86.5009C123.973 87.581 124.118 88.6811 124.164 89.7877C124.22 90.7692 124.185 91.7538 124.06 92.7288C124.725 90.6835 124.607 88.4641 123.729 86.5009Z" fill="#1C1C1C"/>
<path opacity="0.2" d="M117.338 86.1156C116.554 88.1292 115.768 90.1392 114.98 92.1456C115.223 89.9632 116.036 87.8833 117.338 86.1156Z" fill="#1C1C1C"/>
<path d="M126.864 69.534C126.864 69.534 129.672 75.2256 130.32 81.45C130.907 87.1236 130.626 87.8472 130.626 87.8472C130.626 87.8472 131.764 86.7672 131.497 80.8596C131.288 76.7168 130.611 72.6108 129.481 68.6196C128.592 68.8738 127.718 69.1791 126.864 69.534Z" fill="#407BFF"/>
<path d="M126.922 69.7176L125.161 65.7792L124.697 65.0232C126.061 65.2126 127.41 65.5013 128.732 65.8872C128.298 66.6894 127.945 67.5338 127.681 68.4072C127.541 68.814 127.397 69.7464 126.922 69.7176Z" fill="#407BFF"/>
<path d="M114.862 69.7465C114.862 69.7465 118.102 66.2401 121.298 65.1277C121.298 65.1277 119.138 65.2861 116.374 67.0177C116.374 67.0177 115.067 68.4289 114.862 69.7465Z" fill="#407BFF"/>
</g>
<defs>
<clipPath id="clip0_879_6165">
<rect width="180" height="180" fill="white"/>
</clipPath>
</defs>
</svg>
