<svg width="180" height="180" viewBox="0 0 180 180" fill="none" xmlns="http://www.w3.org/2000/svg">
<path d="M180 137.664H0V137.754H180V137.664Z" fill="#EBEBEB"/>
<path d="M48.6505 143.456H36.7273V143.546H48.6505V143.456Z" fill="#EBEBEB"/>
<path d="M77.2884 140.731H61.6104V140.821H77.2884V140.731Z" fill="#EBEBEB"/>
<path d="M36.3671 140.116H18.8855V140.206H36.3671V140.116Z" fill="#EBEBEB"/>
<path d="M101.484 141.332H89.1396V141.422H101.484V141.332Z" fill="#EBEBEB"/>
<path d="M161.964 141.332H159.286V141.422H161.964V141.332Z" fill="#EBEBEB"/>
<path d="M122.173 141.332H104.688V141.422H122.173V141.332Z" fill="#EBEBEB"/>
<path d="M151.308 142.852H117.583V142.942H151.308V142.852Z" fill="#EBEBEB"/>
<path d="M85.32 121.608H15.8076C15.2631 121.607 14.7411 121.39 14.3564 121.005C13.9717 120.619 13.7556 120.097 13.7556 119.552V21.8376C13.7604 21.2962 13.9785 20.7785 14.3627 20.397C14.7469 20.0155 15.2662 19.801 15.8076 19.8H85.32C85.8652 19.8 86.388 20.0166 86.7735 20.4021C87.159 20.7876 87.3756 21.3105 87.3756 21.8556V119.552C87.3756 120.098 87.159 120.62 86.7735 121.006C86.388 121.391 85.8652 121.608 85.32 121.608ZM15.8076 19.872C15.2869 19.873 14.7879 20.0805 14.4201 20.449C14.0522 20.8175 13.8456 21.317 13.8456 21.8376V119.552C13.8456 120.073 14.0522 120.573 14.4201 120.941C14.7879 121.31 15.2869 121.517 15.8076 121.518H85.32C85.841 121.517 86.3404 121.31 86.7089 120.941C87.0773 120.573 87.2847 120.073 87.2856 119.552V21.8376C87.2847 21.3166 87.0773 20.8172 86.7089 20.4488C86.3404 20.0804 85.841 19.873 85.32 19.872H15.8076Z" fill="#EBEBEB"/>
<path d="M163.192 121.608H93.6757C93.1308 121.607 92.6085 121.39 92.2232 121.005C91.838 120.62 91.6211 120.097 91.6201 119.552V21.8376C91.6258 21.2959 91.8448 20.7782 92.2296 20.3968C92.6143 20.0154 93.1339 19.801 93.6757 19.8H163.192C163.733 19.8019 164.251 20.0169 164.634 20.3983C165.018 20.7797 165.235 21.2968 165.24 21.8376V119.552C165.24 120.096 165.025 120.618 164.641 121.003C164.257 121.389 163.736 121.606 163.192 121.608ZM93.6757 19.872C93.1547 19.873 92.6553 20.0804 92.2869 20.4488C91.9185 20.8172 91.7111 21.3166 91.7101 21.8376V119.552C91.7111 120.073 91.9185 120.573 92.2869 120.941C92.6553 121.31 93.1547 121.517 93.6757 121.518H163.192C163.713 121.517 164.212 121.31 164.581 120.941C164.949 120.573 165.156 120.073 165.157 119.552V21.8376C165.156 21.3166 164.949 20.8172 164.581 20.4488C164.212 20.0804 163.713 19.873 163.192 19.872H93.6757Z" fill="#EBEBEB"/>
<path d="M72.5975 135.331H75.7871V99.2341H72.5975V135.331Z" fill="#F0F0F0"/>
<path d="M25.7328 137.617H74.5632V135.331H25.7328V137.617Z" fill="#F0F0F0"/>
<path d="M72.5976 99.234H24.5088V135.331H72.5976V99.234Z" fill="#F5F5F5"/>
<path d="M67.842 103.676H29.2608C28.0202 103.676 27.0144 104.682 27.0144 105.923V113.267C27.0144 114.507 28.0202 115.513 29.2608 115.513H67.842C69.0827 115.513 70.0884 114.507 70.0884 113.267V105.923C70.0884 104.682 69.0827 103.676 67.842 103.676Z" fill="#F0F0F0"/>
<path d="M29.2608 119.049H67.8456C68.4414 119.049 69.0128 119.285 69.434 119.706C69.8553 120.128 70.092 120.699 70.092 121.295V128.643C70.092 128.937 70.034 129.229 69.9213 129.501C69.8086 129.773 69.6434 130.02 69.4351 130.228C69.2268 130.437 68.9796 130.602 68.7075 130.715C68.4354 130.827 68.1437 130.885 67.8492 130.885H29.2608C28.9649 130.887 28.6715 130.831 28.3975 130.719C28.1236 130.607 27.8744 130.442 27.6643 130.234C27.4542 130.025 27.2874 129.777 27.1734 129.504C27.0594 129.231 27.0005 128.938 27 128.643V121.295C27 120.999 27.0586 120.705 27.1724 120.432C27.2862 120.158 27.4529 119.91 27.663 119.701C27.8732 119.493 28.1225 119.327 28.3967 119.215C28.6709 119.103 28.9646 119.047 29.2608 119.049Z" fill="#F0F0F0"/>
<path d="M35.8309 110.408H61.2757C61.6673 110.408 61.9849 110.091 61.9849 109.699V109.494C61.9849 109.102 61.6673 108.785 61.2757 108.785H35.8309C35.4392 108.785 35.1217 109.102 35.1217 109.494V109.699C35.1217 110.091 35.4392 110.408 35.8309 110.408Z" fill="#F5F5F5"/>
<path d="M35.8309 125.78H61.2757C61.6673 125.78 61.9849 125.463 61.9849 125.071V124.866C61.9849 124.474 61.6673 124.157 61.2757 124.157H35.8309C35.4392 124.157 35.1217 124.474 35.1217 124.866V125.071C35.1217 125.463 35.4392 125.78 35.8309 125.78Z" fill="#F5F5F5"/>
<path d="M139.126 135.162H152.003V61.0957H139.126V135.162Z" fill="#F0F0F0"/>
<path d="M100.084 137.66H149.53V135.158H100.084V137.66Z" fill="#F0F0F0"/>
<path d="M139.126 61.092H97.6104V135.158H139.126V61.092Z" fill="#F5F5F5"/>
<path d="M131.922 102.164H104.814C103.631 102.164 102.672 103.123 102.672 104.306V112.975C102.672 114.158 103.631 115.117 104.814 115.117H131.922C133.105 115.117 134.064 114.158 134.064 112.975V104.306C134.064 103.123 133.105 102.164 131.922 102.164Z" fill="#F0F0F0"/>
<path d="M131.922 117.482H104.814C103.631 117.482 102.672 118.441 102.672 119.624V128.293C102.672 129.476 103.631 130.435 104.814 130.435H131.922C133.105 130.435 134.064 129.476 134.064 128.293V119.624C134.064 118.441 133.105 117.482 131.922 117.482Z" fill="#F0F0F0"/>
<path d="M131.922 65.8188H104.814C103.631 65.8188 102.672 66.7779 102.672 67.9608V97.6608C102.672 98.8438 103.631 99.8029 104.814 99.8029H131.922C133.105 99.8029 134.064 98.8438 134.064 97.6608V67.9608C134.064 66.7779 133.105 65.8188 131.922 65.8188Z" fill="#F0F0F0"/>
<path d="M95.8931 61.092L139.125 61.092V58.95L95.8931 58.95V61.092Z" fill="#F0F0F0"/>
<path d="M153.803 58.9536H139.125V61.0956H153.803V58.9536Z" fill="#E6E6E6"/>
<path d="M132.116 48.0745H121.428V58.9501H132.116V48.0745Z" fill="#F0F0F0"/>
<path d="M102.467 58.9536H121.428V48.078H102.467V58.9536Z" fill="#F5F5F5"/>
<g style="mix-blend-mode:multiply" opacity="0.7">
<path d="M132.116 49.7161H102.352V50.5945H132.116V49.7161Z" fill="#E6E6E6"/>
</g>
<path d="M132.707 47.5453H121.428V50.0869H132.707V47.5453Z" fill="#F0F0F0"/>
<path d="M101.873 50.0833H121.424V47.5417H101.873V50.0833Z" fill="#F5F5F5"/>
<path d="M145.649 51.9733H138.791V58.9537H145.649V51.9733Z" fill="#F0F0F0"/>
<path d="M126.623 58.9501H138.791V51.9697H126.623V58.9501Z" fill="#F5F5F5"/>
<g style="mix-blend-mode:multiply" opacity="0.7">
<path d="M145.652 53.0244H126.551V53.5896H145.652V53.0244Z" fill="#E6E6E6"/>
</g>
<path d="M146.03 51.6312H138.791V53.262H146.03V51.6312Z" fill="#F0F0F0"/>
<path d="M126.241 53.2621H138.791V51.6313H126.241V53.2621Z" fill="#F5F5F5"/>
<path d="M46.1016 67.6405H59.8752L59.8752 27.4429H46.1016L46.1016 67.6405Z" fill="#F0F0F0"/>
<path d="M43.1461 67.6405H58.9861L58.9861 27.4429H43.1461L43.1461 67.6405Z" fill="#F5F5F5"/>
<path d="M44.4707 29.0233V66.0601H57.6575V29.0233H44.4707Z" fill="white"/>
<path d="M47.6675 33.1164V61.9668H54.4607V33.1164H47.6675Z" fill="#F5F5F5"/>
<path d="M26.3053 76.2985H40.0789L40.0789 36.1009H26.3053L26.3053 76.2985Z" fill="#F0F0F0"/>
<path d="M23.3497 76.2985H39.1897L39.1897 36.1009H23.3497L23.3497 76.2985Z" fill="#F5F5F5"/>
<path d="M24.678 37.6849L24.678 74.7217H37.8648V37.6849H24.678Z" fill="white"/>
<path d="M27.8748 44.4888V67.914C27.8748 69.4131 29.09 70.6284 30.5892 70.6284H31.9536C33.4527 70.6284 34.668 69.4131 34.668 67.914V44.4888C34.668 42.9897 33.4527 41.7744 31.9536 41.7744H30.5892C29.09 41.7744 27.8748 42.9897 27.8748 44.4888Z" fill="#F5F5F5"/>
<path d="M65.286 82.0692H79.0596V41.8716H65.286V82.0692Z" fill="#F0F0F0"/>
<path d="M62.3304 82.0692H78.1704V41.8716H62.3304L62.3304 82.0692Z" fill="#F5F5F5"/>
<path d="M63.6553 43.4521V80.4889H76.8421V43.4521H63.6553Z" fill="white"/>
<path d="M66.8521 50.256V73.6812C66.8521 75.1803 68.0673 76.3956 69.5665 76.3956H70.9309C72.43 76.3956 73.6453 75.1803 73.6453 73.6812V50.256C73.6453 48.7569 72.43 47.5416 70.9309 47.5416H69.5665C68.0673 47.5416 66.8521 48.7569 66.8521 50.256Z" fill="#F5F5F5"/>
<path d="M90.0001 153.922C128.55 153.922 159.801 152.097 159.801 149.846C159.801 147.596 128.55 145.771 90.0001 145.771C51.4504 145.771 20.1997 147.596 20.1997 149.846C20.1997 152.097 51.4504 153.922 90.0001 153.922Z" fill="#F5F5F5"/>
<path d="M137.563 108.137H53.1791C52.6777 108.14 52.1808 108.041 51.7193 107.844C51.2577 107.648 50.8412 107.36 50.4955 106.996C50.1497 106.633 49.8821 106.203 49.709 105.732C49.5359 105.261 49.4611 104.76 49.4891 104.26L52.6823 38.9736C52.7459 37.9332 53.2005 36.9554 53.955 36.2362C54.7095 35.5171 55.7081 35.1099 56.7503 35.0964H141.12C141.622 35.0926 142.119 35.1918 142.58 35.3878C143.042 35.5837 143.459 35.8723 143.805 36.2357C144.151 36.5991 144.418 37.0296 144.591 37.5005C144.764 37.9714 144.839 38.4728 144.81 38.9736L141.617 104.26C141.553 105.298 141.101 106.273 140.349 106.992C139.598 107.711 138.603 108.12 137.563 108.137Z" fill="#407BFF"/>
<path opacity="0.8" d="M137.563 108.137H53.1791C52.6777 108.14 52.1808 108.041 51.7193 107.844C51.2577 107.648 50.8412 107.36 50.4955 106.996C50.1497 106.633 49.8821 106.203 49.709 105.732C49.5359 105.261 49.4611 104.76 49.4891 104.26L52.6823 38.9736C52.7459 37.9332 53.2005 36.9554 53.955 36.2362C54.7095 35.5171 55.7081 35.1099 56.7503 35.0964H141.12C141.622 35.0926 142.119 35.1918 142.58 35.3878C143.042 35.5837 143.459 35.8723 143.805 36.2357C144.151 36.5991 144.418 37.0296 144.591 37.5005C144.764 37.9714 144.839 38.4728 144.81 38.9736L141.617 104.26C141.553 105.298 141.101 106.273 140.349 106.992C139.598 107.711 138.603 108.12 137.563 108.137Z" fill="white"/>
<path d="M79.1243 33.9624H77.3999V34.2864H79.1243V33.9624Z" fill="#407BFF"/>
<path d="M75.4596 33.9624H68.4036V34.2864H75.4596V33.9624Z" fill="#407BFF"/>
<path d="M141.12 35.0964H56.7504C55.7081 35.1099 54.7096 35.5171 53.9551 36.2362C53.2005 36.9554 52.7459 37.9333 52.6824 38.9736H144.842C144.871 38.47 144.796 37.9659 144.621 37.4928C144.446 37.0196 144.176 36.5876 143.826 36.2238C143.477 35.8599 143.056 35.572 142.591 35.378C142.125 35.184 141.624 35.0882 141.12 35.0964Z" fill="#407BFF"/>
<path d="M140.22 45.7596H56.6242C56.4894 45.7613 56.3557 45.7352 56.2315 45.6829C56.1072 45.6306 55.9951 45.5531 55.9022 45.4555C55.8092 45.3578 55.7375 45.242 55.6914 45.1153C55.6452 44.9886 55.6258 44.8537 55.6342 44.7192L55.7386 42.5988C55.7549 42.3213 55.875 42.0602 56.0752 41.8674C56.2753 41.6746 56.5408 41.5643 56.8186 41.5584H140.425C140.56 41.5572 140.693 41.5836 140.817 41.6362C140.941 41.6887 141.053 41.7661 141.146 41.8637C141.239 41.9612 141.311 42.0768 141.357 42.2033C141.403 42.3297 141.423 42.4644 141.415 42.5988L141.311 44.7192C141.294 44.9985 141.173 45.2611 140.97 45.4542C140.768 45.6473 140.5 45.7564 140.22 45.7596Z" fill="white"/>
<path opacity="0.3" d="M81.0863 44.7552H58.4423C58.3719 44.7558 58.3021 44.742 58.2373 44.7146C58.1725 44.6871 58.1139 44.6467 58.0653 44.5957C58.0168 44.5448 57.9791 44.4844 57.9548 44.4183C57.9305 44.3523 57.92 44.2819 57.9239 44.2116L57.9779 43.1064C57.987 42.9612 58.0507 42.8248 58.1562 42.7247C58.2617 42.6245 58.4012 42.568 58.5467 42.5664H81.1943C81.2642 42.5658 81.3335 42.5796 81.3979 42.6068C81.4623 42.6341 81.5205 42.6743 81.5687 42.7249C81.617 42.7755 81.6543 42.8355 81.6785 42.9011C81.7026 42.9667 81.713 43.0366 81.7091 43.1064L81.6551 44.2116C81.6469 44.3575 81.5836 44.4947 81.478 44.5957C81.3724 44.6966 81.2324 44.7536 81.0863 44.7552Z" fill="#407BFF"/>
<path d="M139.9 52.254H56.3076C56.1726 52.2552 56.0388 52.2287 55.9145 52.1759C55.7903 52.1232 55.6782 52.0454 55.5853 51.9475C55.4924 51.8495 55.4207 51.7335 55.3747 51.6066C55.3286 51.4797 55.3092 51.3447 55.3176 51.21L55.422 49.0932C55.4374 48.8154 55.5573 48.5538 55.7576 48.3608C55.958 48.1679 56.2239 48.0578 56.502 48.0528H140.094C140.229 48.0516 140.362 48.078 140.487 48.1305C140.611 48.183 140.723 48.2604 140.816 48.3579C140.909 48.4554 140.981 48.5709 141.028 48.6974C141.075 48.8239 141.095 48.9586 141.088 49.0932L140.983 51.21C140.967 51.4884 140.846 51.7504 140.646 51.9439C140.445 52.1374 140.178 52.2481 139.9 52.254Z" fill="white"/>
<path opacity="0.3" d="M84.4525 51.246H58.1221C58.0521 51.2466 57.9828 51.2329 57.9184 51.2056C57.854 51.1783 57.7959 51.1382 57.7476 51.0876C57.6994 51.0369 57.662 50.977 57.6379 50.9113C57.6137 50.8457 57.6033 50.7758 57.6073 50.706L57.6613 49.6008C57.6695 49.455 57.7328 49.3177 57.8384 49.2167C57.944 49.1158 58.084 49.0588 58.2301 49.0572H84.5605C84.6309 49.056 84.7007 49.0695 84.7656 49.0968C84.8306 49.1241 84.8891 49.1646 84.9375 49.2157C84.9859 49.2668 85.0232 49.3275 85.0469 49.3938C85.0706 49.4601 85.0803 49.5306 85.0753 49.6008L85.0213 50.706C85.013 50.8515 84.9496 50.9884 84.8439 51.0887C84.7382 51.1891 84.5982 51.2453 84.4525 51.246Z" fill="#407BFF"/>
<path d="M138.6 101.844H55.0008C54.865 101.846 54.7303 101.82 54.605 101.768C54.4797 101.716 54.3666 101.638 54.2726 101.54C54.1787 101.442 54.106 101.326 54.0591 101.199C54.0122 101.071 53.992 100.935 54 100.8L56.1816 56.2536C56.197 55.9758 56.3169 55.7142 56.5172 55.5212C56.7176 55.3283 56.9835 55.2182 57.2616 55.2132H140.854C140.988 55.212 141.122 55.2384 141.246 55.2909C141.37 55.3434 141.483 55.4208 141.576 55.5183C141.669 55.6158 141.741 55.7313 141.788 55.8578C141.834 55.9843 141.855 56.119 141.847 56.2536L139.68 100.8C139.665 101.078 139.546 101.341 139.346 101.535C139.145 101.728 138.879 101.839 138.6 101.844Z" fill="white"/>
<path opacity="0.3" d="M72.5759 58.5865H57.8159C57.7456 58.5871 57.676 58.5733 57.6113 58.5458C57.5467 58.5183 57.4884 58.4778 57.4401 58.4268C57.3918 58.3758 57.3545 58.3154 57.3306 58.2493C57.3067 58.1833 57.2966 58.113 57.3011 58.0429L57.3551 56.9377C57.3633 56.7918 57.4266 56.6545 57.5322 56.5536C57.6378 56.4527 57.7778 56.3957 57.9239 56.3941H72.6839C72.7543 56.3935 72.8241 56.4073 72.8889 56.4347C72.9537 56.4622 73.0123 56.5026 73.0608 56.5536C73.1094 56.6045 73.147 56.6649 73.1714 56.731C73.1957 56.797 73.2062 56.8674 73.2023 56.9377L73.1483 58.0429C73.14 58.1893 73.0762 58.3271 72.9698 58.4281C72.8635 58.5292 72.7226 58.5858 72.5759 58.5865Z" fill="#407BFF"/>
<path opacity="0.3" d="M100.584 63.0648H57.5569C57.4868 63.0659 57.4172 63.0525 57.3526 63.0255C57.2879 62.9984 57.2296 62.9582 57.1812 62.9075C57.1329 62.8568 57.0955 62.7966 57.0716 62.7307C57.0476 62.6648 57.0376 62.5947 57.0421 62.5248L57.0961 61.4196C57.1043 61.2737 57.1676 61.1365 57.2732 61.0355C57.3788 60.9346 57.5188 60.8776 57.6649 60.876H100.692C100.762 60.8754 100.832 60.8892 100.897 60.9167C100.962 60.9441 101.02 60.9845 101.069 61.0355C101.118 61.0864 101.155 61.1468 101.18 61.2129C101.204 61.2789 101.214 61.3493 101.21 61.4196L101.156 62.5248C101.147 62.6706 101.083 62.8075 100.977 62.9078C100.871 63.008 100.73 63.0642 100.584 63.0648Z" fill="#407BFF"/>
<path opacity="0.3" d="M92.5775 66.402H57.3947C57.3245 66.4026 57.2549 66.3887 57.1902 66.3613C57.1255 66.3338 57.0672 66.2933 57.0189 66.2423C56.9706 66.1913 56.9334 66.1309 56.9094 66.0648C56.8855 65.9987 56.8755 65.9285 56.8799 65.8584L56.9339 64.7532C56.943 64.6079 57.0067 64.4716 57.1122 64.3714C57.2177 64.2712 57.3573 64.2147 57.5027 64.2132H92.6855C92.7555 64.2126 92.8248 64.2263 92.8892 64.2536C92.9536 64.2808 93.0117 64.321 93.0599 64.3716C93.1082 64.4222 93.1456 64.4822 93.1697 64.5478C93.1939 64.6134 93.2043 64.6833 93.2003 64.7532L93.1463 65.8584C93.1381 66.0042 93.0748 66.1415 92.9692 66.2424C92.8636 66.3433 92.7236 66.4004 92.5775 66.402Z" fill="#407BFF"/>
<path d="M130.842 105.714H137.034C137.381 105.709 137.714 105.573 137.966 105.334C138.218 105.094 138.369 104.768 138.391 104.422C138.401 104.255 138.377 104.088 138.319 103.931C138.262 103.774 138.173 103.63 138.058 103.509C137.943 103.388 137.804 103.292 137.65 103.226C137.496 103.161 137.331 103.128 137.164 103.129H130.968C130.62 103.133 130.287 103.269 130.035 103.508C129.783 103.748 129.632 104.074 129.611 104.422C129.601 104.589 129.626 104.756 129.684 104.913C129.742 105.07 129.831 105.213 129.947 105.334C130.062 105.455 130.201 105.552 130.355 105.617C130.509 105.682 130.675 105.715 130.842 105.714Z" fill="#407BFF"/>
<path opacity="0.4" d="M123.872 104.422C123.865 104.547 123.883 104.672 123.927 104.79C123.97 104.908 124.036 105.015 124.123 105.106C124.209 105.197 124.313 105.269 124.429 105.318C124.544 105.367 124.669 105.391 124.794 105.39C125.055 105.389 125.306 105.288 125.495 105.108C125.685 104.928 125.798 104.682 125.813 104.422C125.82 104.296 125.802 104.171 125.759 104.053C125.716 103.936 125.649 103.828 125.562 103.737C125.476 103.646 125.372 103.574 125.256 103.525C125.141 103.477 125.017 103.452 124.891 103.453C124.63 103.455 124.38 103.557 124.191 103.736C124.002 103.916 123.888 104.161 123.872 104.422Z" fill="#407BFF"/>
<path opacity="0.4" d="M119.293 104.422C119.286 104.547 119.304 104.672 119.347 104.79C119.39 104.908 119.457 105.015 119.544 105.106C119.63 105.197 119.734 105.269 119.85 105.318C119.965 105.367 120.089 105.391 120.215 105.39C120.476 105.388 120.726 105.286 120.915 105.107C121.104 104.927 121.218 104.682 121.234 104.422C121.241 104.296 121.222 104.171 121.179 104.053C121.136 103.935 121.069 103.827 120.982 103.736C120.895 103.645 120.79 103.573 120.675 103.524C120.559 103.476 120.434 103.452 120.308 103.453C120.048 103.456 119.798 103.557 119.609 103.737C119.421 103.917 119.308 104.161 119.293 104.422Z" fill="#407BFF"/>
<path opacity="0.4" d="M114.71 104.422C114.703 104.547 114.721 104.673 114.765 104.791C114.808 104.909 114.875 105.016 114.962 105.107C115.049 105.198 115.153 105.27 115.269 105.319C115.385 105.367 115.51 105.392 115.636 105.39C115.896 105.388 116.146 105.286 116.335 105.106C116.523 104.927 116.636 104.682 116.651 104.422C116.658 104.296 116.64 104.171 116.597 104.053C116.554 103.936 116.487 103.828 116.4 103.737C116.314 103.646 116.21 103.574 116.094 103.525C115.979 103.477 115.855 103.452 115.729 103.453C115.468 103.455 115.218 103.557 115.029 103.736C114.84 103.916 114.726 104.161 114.71 104.422Z" fill="#407BFF"/>
<path opacity="0.1" d="M96.12 97.8661V97.6501L96.156 96.8509C96.1776 96.3181 96.156 95.7889 96.156 95.2561C96.1344 94.1977 96.0732 93.1429 95.9544 92.1061C95.8356 91.0693 95.6772 90.0325 95.4648 89.0137C95.4072 88.7545 95.3532 88.4953 95.2884 88.2397L96.1668 87.5197C96.1668 87.5197 94.7448 82.5733 93.2868 82.2133H93.2544C93.1586 82.1912 93.061 82.178 92.9628 82.1737C91.0271 81.901 89.0748 81.7639 87.12 81.7633C86.0004 80.6833 86.1732 78.5053 86.5764 76.5649C86.6484 76.4461 86.7168 76.3273 86.778 76.2049C88.4286 75.1353 89.6506 73.5195 90.2304 71.6401C91.1196 71.8453 92.4588 71.8345 94.1076 70.8337C93.5279 70.9739 92.9267 71.002 92.3364 70.9165C93.0545 70.6315 93.6685 70.1341 94.0963 69.4908C94.5241 68.8475 94.7453 68.0889 94.7304 67.3165C94.7331 66.908 94.6458 66.504 94.4748 66.1331C94.3038 65.7622 94.0532 65.4335 93.7409 65.1703C93.4286 64.9071 93.0621 64.7158 92.6676 64.6102C92.273 64.5045 91.8601 64.487 91.458 64.5589C90.5437 64.7261 89.7303 65.2425 89.19 65.9989H89.046C88.4876 65.5904 87.8117 65.3744 87.12 65.3833C85.3884 63.1729 77.8716 63.7813 76.6476 66.7405C75.996 68.3173 76.4244 69.2605 77.1516 69.7933C77.0112 70.3377 76.941 70.8978 76.9428 71.4601C76.8478 71.5359 76.7587 71.619 76.6764 71.7085C76.66 71.7239 76.6468 71.7426 76.6379 71.7634C76.6289 71.7841 76.6243 71.8065 76.6243 71.8291C76.6243 71.8517 76.6289 71.874 76.6379 71.8947C76.6468 71.9155 76.66 71.9342 76.6764 71.9497C76.6991 71.9673 76.726 71.9786 76.7545 71.9824C76.7829 71.9862 76.8119 71.9823 76.8384 71.9713C76.8689 71.9602 76.8961 71.9416 76.9176 71.9173L76.9536 71.8849C76.992 72.4608 77.1132 73.0283 77.3136 73.5697C77.3303 74.8097 77.5429 76.0393 77.9436 77.2129C78.6636 79.2433 80.6544 80.0497 82.6236 79.5997C82.6236 79.7437 82.6452 79.8877 82.6452 80.0317C82.6452 80.9965 82.1628 81.6553 80.37 82.1917C79.3908 82.3357 78.3648 82.5301 77.4396 82.7209C76.3009 82.9707 75.2945 83.6322 74.6136 84.5785C73.242 86.0545 71.532 90.7417 71.532 90.7417L72.6588 91.3537C72.5364 91.8289 72.414 92.3041 72.2988 92.7937C72.2912 92.8135 72.2851 92.834 72.2808 92.8549H64.2096C63.9473 92.8529 63.6875 92.9049 63.4462 93.0076C63.2049 93.1104 62.9873 93.2617 62.807 93.4521C62.6267 93.6426 62.4875 93.8681 62.3981 94.1146C62.3086 94.3612 62.2709 94.6235 62.2872 94.8853L62.4852 98.5681C62.4529 98.5876 62.4227 98.6106 62.3952 98.6365L61.7184 99.2701L61.8732 102.485C62.1408 102.66 62.424 102.809 62.7192 102.931L62.8128 104.731C62.8271 104.96 62.8794 105.185 62.9676 105.397C59.0076 105.757 56.8188 106.762 56.2788 108.18H88.92C89.0905 107.109 89.1724 106.025 89.1648 104.94L89.4744 104.922C89.6436 104.922 89.7732 104.8 89.73 104.702L89.442 103.414C89.4159 103.377 89.3801 103.349 89.3388 103.332C89.2975 103.315 89.2522 103.309 89.208 103.316H89.19C89.19 102.928 89.2188 102.542 89.2332 102.164C90.1634 102.179 91.0925 102.096 92.0052 101.916C92.7082 101.782 93.386 101.539 94.014 101.196C94.4153 100.961 94.7793 100.667 95.094 100.325C95.4493 99.9338 95.7212 99.4744 95.8932 98.9749C95.9739 98.7412 96.0306 98.5 96.0624 98.2549C96.12 98.0857 96.12 97.9777 96.12 97.8661ZM92.772 98.3197C92.7329 98.3867 92.6771 98.4425 92.61 98.4817C92.3121 98.6751 91.9852 98.8198 91.6416 98.9101C90.9197 99.116 90.1794 99.251 89.4312 99.3133C89.6435 97.0694 90.0043 94.8422 90.5112 92.6461C90.558 92.4337 90.6084 92.2141 90.6588 91.9945C90.6804 91.9045 90.6984 91.8145 90.72 91.7209C90.7416 91.6273 90.7776 91.4833 90.8064 91.3609C90.9468 91.5805 91.0368 91.7209 91.0368 91.7209L91.9692 90.9649C92.106 91.6417 92.2392 92.3257 92.3292 93.0205C92.4588 93.9601 92.5668 94.9105 92.646 95.8645C92.6712 96.3433 92.7144 96.8221 92.7288 97.3045L92.7612 98.2909C92.7612 98.2909 92.7792 98.2801 92.7684 98.3197H92.772Z" fill="#407BFF"/>
<path d="M95.0617 119.466H59.6809C59.603 119.466 59.5261 119.448 59.4563 119.414C59.3864 119.379 59.3256 119.329 59.2785 119.267C59.2314 119.205 59.1993 119.132 59.1848 119.056C59.1703 118.979 59.1738 118.9 59.1949 118.825V118.786C59.8933 116.266 62.4962 114.25 64.9981 114.25H96.2281C96.3058 114.25 96.3823 114.268 96.4517 114.303C96.521 114.338 96.5814 114.388 96.6281 114.451C96.6748 114.513 96.7066 114.585 96.7208 114.661C96.7351 114.737 96.7316 114.816 96.7106 114.89L95.5297 119.099C95.5018 119.202 95.4411 119.294 95.3568 119.36C95.2724 119.426 95.1689 119.464 95.0617 119.466Z" fill="#407BFF"/>
<path d="M95.7493 149.846H97.1569L91.8793 119.466H90.4717L95.7493 149.846Z" fill="#407BFF"/>
<path opacity="0.6" d="M95.7493 149.846H97.1569L91.8793 119.466H90.4717L95.7493 149.846Z" fill="white"/>
<path d="M87.8329 149.846H89.2405L86.6017 119.466H85.1941L87.8329 149.846Z" fill="#407BFF"/>
<path opacity="0.6" d="M87.8329 149.846H89.2405L86.6017 119.466H85.1941L87.8329 149.846Z" fill="white"/>
<path d="M59.7025 149.846H58.2949L63.5725 119.466H64.9801L59.7025 149.846Z" fill="#407BFF"/>
<path opacity="0.6" d="M59.7025 149.846H58.2949L63.5725 119.466H64.9801L59.7025 149.846Z" fill="white"/>
<path d="M67.619 149.846H66.2114L68.8538 119.466H70.2578L67.619 149.846Z" fill="#407BFF"/>
<path opacity="0.6" d="M67.619 149.846H66.2114L68.8538 119.466H70.2578L67.619 149.846Z" fill="white"/>
<path d="M84.9129 71.0944C86.6154 70.8119 87.7529 69.1201 87.4535 67.3156C87.1541 65.5111 85.5313 64.2773 83.8288 64.5597C82.1263 64.8422 80.9888 66.534 81.2882 68.3385C81.5876 70.143 83.2104 71.3769 84.9129 71.0944Z" fill="#263238"/>
<path d="M82.2422 71.1252C82.2422 71.1252 84.449 72.7092 87.2822 70.8372C85.8026 71.2296 84.1646 70.6031 84.1646 70.6031L82.2422 71.1252Z" fill="#263238"/>
<path d="M84.2401 68.4432C84.5029 70.02 83.5777 71.4888 82.1773 71.7192C80.7769 71.9496 79.4305 70.8624 79.1677 69.2856C78.9049 67.7088 79.8301 66.24 81.2305 66.006C82.6309 65.772 83.9701 66.8664 84.2401 68.4432Z" fill="#407BFF"/>
<path d="M79.2396 76.8815C82.0404 76.1435 85.4388 71.4815 82.422 66.8663C81.2808 66.8663 78.156 67.9211 78.156 67.9211L79.2396 76.8815Z" fill="#263238"/>
<path d="M71.9534 66.1752C69.7934 68.094 68.7566 73.2924 73.6238 76.5468C74.6426 76.032 76.961 73.6848 76.961 73.6848L71.9534 66.1752Z" fill="#263238"/>
<path d="M72.5762 87.6276C72.5762 88.1532 72.5366 88.6068 72.497 89.0856C72.4574 89.5644 72.4142 90.0324 72.3602 90.5004C72.263 91.4436 72.1334 92.376 71.9786 93.3084C71.6699 95.1684 71.2674 97.0116 70.7726 98.8308L70.3802 100.192L69.9482 101.542C69.7399 102.239 69.3489 102.867 68.816 103.362C68.283 103.857 67.6274 104.201 66.917 104.357C65.8035 104.576 64.6533 104.522 63.5654 104.198C63.0745 104.069 62.5933 103.906 62.1254 103.709C61.6613 103.519 61.2104 103.299 60.7754 103.05L61.4954 101.365C61.8806 101.441 62.327 101.534 62.741 101.592C63.155 101.65 63.5798 101.696 63.9866 101.714C64.6944 101.782 65.4087 101.699 66.0818 101.47C66.2731 101.399 66.4396 101.274 66.5606 101.11C66.6051 101.044 66.6414 100.972 66.6686 100.897C66.6686 100.858 66.6974 100.811 66.7118 100.764C66.7138 100.738 66.7138 100.711 66.7118 100.685L66.7406 100.577L67.0682 99.288L67.367 97.9884C67.7486 96.2532 68.0582 94.5 68.3102 92.7396C68.4398 91.8612 68.5478 90.9792 68.6486 90.0972C68.6954 89.658 68.7386 89.2152 68.7746 88.7796C68.8106 88.344 68.8502 87.8868 68.8718 87.498L72.5762 87.6276Z" fill="#FF8B7B"/>
<path d="M69.9733 84.1968C68.6593 84.996 67.3201 90.72 67.3201 90.72L72.9829 93.6C72.9829 93.6 75.3949 87.4296 74.2717 85.7808C73.0801 84.042 71.8849 83.0268 69.9733 84.1968Z" fill="#407BFF"/>
<path opacity="0.2" d="M68.8754 88.4916C68.6158 89.4814 68.6232 90.5224 68.897 91.5084L72.9758 93.6C72.9758 93.6 74.3834 90 74.5454 87.5592C73.1018 86.1228 69.7862 85.9428 68.8754 88.4916Z" fill="#1C1C1C"/>
<path d="M62.201 101.603L58.5542 99.2196L59.1266 102.434C59.1266 102.434 60.455 103.266 61.2866 103.082L62.201 101.603Z" fill="#FF8B7B"/>
<path d="M69.0481 86.85C69.2569 90.0324 69.9481 95.7276 72.0145 105.098L86.6557 104.234C86.0581 98.2908 85.8349 94.6152 87.9625 82.2168C85.8882 81.9147 83.7947 81.7631 81.6985 81.7632C79.4744 81.7373 77.2513 81.8684 75.0457 82.1556C74.0881 82.2996 73.0909 82.494 72.1873 82.6848C71.2505 82.8853 70.4174 83.4168 69.8408 84.1819C69.2642 84.9469 68.9827 85.8942 69.0481 86.85Z" fill="#407BFF"/>
<path opacity="0.2" d="M76.0825 84.96C76.0825 84.96 77.5225 86.7816 79.4809 87.372C81.4393 87.9624 82.0009 83.9628 81.6985 81.7668C79.8841 81.3132 76.0825 84.96 76.0825 84.96Z" fill="#1C1C1C"/>
<path d="M76.0825 84.96C76.0825 84.96 77.7061 86.5908 79.6825 87.1776C81.6589 87.7644 82.0081 83.9628 81.7129 81.7776C79.8841 81.3132 76.0825 84.96 76.0825 84.96Z" fill="white"/>
<path opacity="0.2" d="M76.0825 84.96C75.4742 85.9906 74.5239 86.7753 73.3969 87.1776C71.4781 87.8976 73.5229 82.9584 75.0457 82.1592C76.8601 81.72 76.0825 84.96 76.0825 84.96Z" fill="#1C1C1C"/>
<path d="M76.0825 84.96C75.4133 85.9258 74.4277 86.6274 73.2961 86.9436C71.3377 87.5304 73.5229 82.9584 75.0457 82.1592C76.8601 81.72 76.0825 84.96 76.0825 84.96Z" fill="white"/>
<path d="M86.8249 103.363L87.2785 104.652C87.3325 104.749 87.2209 104.861 87.0517 104.872L71.9785 105.761C71.8489 105.761 71.7337 105.71 71.7193 105.628L71.5105 104.324C71.5105 104.234 71.6077 104.152 71.7517 104.141L86.5801 103.266C86.6258 103.26 86.6723 103.266 86.7152 103.283C86.758 103.3 86.7958 103.327 86.8249 103.363Z" fill="white"/>
<path d="M84.8809 105.142L85.2805 105.12C85.3597 105.12 85.4173 105.07 85.4065 105.019L85.1221 103.327C85.1221 103.277 85.0429 103.241 84.9637 103.248L84.5641 103.27C84.4849 103.27 84.4273 103.32 84.4381 103.367L84.7225 105.059C84.7333 105.12 84.8017 105.145 84.8809 105.142Z" fill="#263238"/>
<path d="M73.1054 105.84L73.5014 105.815C73.5806 105.815 73.6382 105.768 73.631 105.718L73.343 104.026C73.343 103.975 73.2638 103.939 73.1846 103.943L72.785 103.968C72.7058 103.968 72.6482 104.018 72.659 104.065L72.9434 105.757C72.9542 105.804 73.0262 105.84 73.1054 105.84Z" fill="#263238"/>
<path d="M78.9696 105.48L79.3656 105.455C79.4448 105.455 79.5024 105.408 79.4952 105.358L79.2 103.68C79.2 103.63 79.1208 103.594 79.0416 103.597L78.6456 103.622C78.5664 103.622 78.5088 103.673 78.516 103.72L78.8004 105.412C78.8184 105.458 78.8904 105.48 78.9696 105.48Z" fill="#263238"/>
<path opacity="0.2" d="M87.6422 84.132C86.3745 84.7357 85.3681 85.7779 84.809 87.066C84.1574 88.7076 86.0402 91.9728 86.4902 92.7072C86.699 90.3996 87.0698 87.642 87.6422 84.132Z" fill="#1C1C1C"/>
<path d="M80.6402 75.1176C80.3486 77.2776 80.111 80.424 81.695 81.7632C79.5044 83.1918 77.6058 85.0244 76.1006 87.1632C73.5482 83.79 75.0422 82.1448 75.0422 82.1448C77.3966 81.4247 77.2778 80.4708 76.763 78.8328L80.6402 75.1176Z" fill="#FF8B7B"/>
<path opacity="0.2" d="M79.0632 76.6404L76.77 78.84C76.8952 79.22 76.9867 79.6103 77.0436 80.0064C77.9472 79.8228 79.3332 78.9588 79.4736 77.958C79.5384 77.4864 79.1532 76.8564 79.0632 76.6404Z" fill="#1C1C1C"/>
<path d="M80.5718 70.0631C81.1406 73.6019 81.4538 75.0851 80.093 77.2631C78.0446 80.5535 73.5734 80.4779 71.9606 77.1803C70.5206 74.2103 69.8222 68.9219 72.9254 66.7655C73.609 66.2869 74.4037 65.9911 75.234 65.9063C76.0642 65.8215 76.9023 65.9505 77.6686 66.2809C78.4349 66.6114 79.104 67.1324 79.6121 67.7944C80.1203 68.4564 80.4506 69.2374 80.5718 70.0631Z" fill="#FF8B7B"/>
<path d="M79.5997 65.3616C75.9997 62.7804 67.1149 63.8748 68.4793 66.8664C70.1209 70.4664 72.9397 70.56 72.9397 70.56C72.9397 70.56 71.8165 70.02 71.8417 69.3C74.4805 68.4792 76.5001 70.1388 77.6413 69.0552C77.1409 71.1 80.4205 73.0332 80.4205 73.0332C81.3348 72.2355 82.0707 71.2542 82.5805 70.1532C83.3581 68.3748 82.7389 65.4588 79.5997 65.3616Z" fill="#263238"/>
<path d="M75.2112 72.2375C75.2724 72.5219 75.1752 72.7847 74.988 72.8279C74.8008 72.8711 74.6028 72.6731 74.538 72.3887C74.4732 72.1043 74.574 71.8379 74.7576 71.7983C74.9412 71.7587 75.1464 71.9531 75.2112 72.2375Z" fill="#263238"/>
<path d="M72.0002 72.9576C72.065 73.242 71.9642 73.5048 71.7806 73.548C71.597 73.5912 71.3918 73.3932 71.327 73.1088C71.2622 72.8244 71.363 72.5616 71.5502 72.5184C71.7374 72.4752 71.9354 72.6732 72.0002 72.9576Z" fill="#263238"/>
<path d="M71.6402 72.5148L70.9202 72.4716C70.9202 72.4716 71.3738 72.9252 71.6402 72.5148Z" fill="#263238"/>
<path d="M73.1016 73.2491C72.9954 73.9542 72.7919 74.6412 72.4968 75.2903C72.6648 75.3614 72.8464 75.3946 73.0286 75.3878C73.2109 75.381 73.3894 75.3342 73.5516 75.2507L73.1016 73.2491Z" fill="#FF5652"/>
<path d="M75.3518 76.0176C75.2187 76.0708 75.0814 76.1129 74.9414 76.1436C74.9303 76.1462 74.9188 76.1465 74.9075 76.1447C74.8963 76.1428 74.8855 76.1388 74.8758 76.1328C74.8661 76.1268 74.8577 76.1189 74.851 76.1096C74.8444 76.1004 74.8396 76.0899 74.837 76.0788C74.8344 76.0676 74.834 76.0561 74.8359 76.0449C74.8377 76.0336 74.8418 76.0228 74.8478 76.0131C74.8538 76.0034 74.8617 75.995 74.8709 75.9884C74.8802 75.9817 74.8907 75.977 74.9018 75.9744C75.2568 75.9031 75.59 75.7493 75.8746 75.5254C76.1591 75.3015 76.387 75.0138 76.5398 74.6856C76.5438 74.6749 76.5499 74.6651 76.5576 74.6568C76.5654 74.6485 76.5748 74.6419 76.5851 74.6372C76.5955 74.6325 76.6067 74.6299 76.6181 74.6296C76.6294 74.6292 76.6408 74.6311 76.6514 74.6352C76.6619 74.6388 76.6716 74.6445 76.6799 74.6519C76.6881 74.6593 76.6948 74.6684 76.6995 74.6785C76.7042 74.6885 76.7069 74.6995 76.7073 74.7106C76.7076 74.7217 76.7058 74.7328 76.7018 74.7432C76.573 75.0348 76.3872 75.2977 76.1554 75.5165C75.9235 75.7354 75.6503 75.9057 75.3518 76.0176Z" fill="#263238"/>
<path d="M81.9361 72.8028C81.8278 73.4874 81.4524 74.101 80.8921 74.5092C80.1433 75.0456 79.4521 74.4516 79.4053 73.584C79.3549 72.8028 79.6861 71.5824 80.5609 71.3916C80.7529 71.354 80.9511 71.3648 81.1378 71.4231C81.3245 71.4813 81.4937 71.5852 81.6302 71.7252C81.7667 71.8653 81.8661 72.0372 81.9195 72.2253C81.9729 72.4134 81.9787 72.6119 81.9361 72.8028Z" fill="#FF8B7B"/>
<path d="M75.7009 70.7004C75.6661 70.7106 75.629 70.709 75.5952 70.696C75.5614 70.683 75.5327 70.6593 75.5137 70.6284C75.0853 69.9624 74.0737 69.9084 74.0737 69.9084C74.0512 69.908 74.029 69.903 74.0084 69.8939C73.9878 69.8847 73.9692 69.8715 73.9538 69.8551C73.9384 69.8386 73.9264 69.8193 73.9185 69.7982C73.9107 69.777 73.9071 69.7546 73.9081 69.732C73.909 69.7093 73.9144 69.687 73.924 69.6664C73.9335 69.6458 73.9471 69.6273 73.9638 69.6119C73.9805 69.5965 74.0001 69.5846 74.0214 69.5768C74.0428 69.569 74.0654 69.5655 74.0881 69.5664C74.1349 69.5664 75.2941 69.6276 75.8161 70.4412C75.8282 70.4599 75.8364 70.4808 75.8404 70.5026C75.8444 70.5245 75.8441 70.5469 75.8394 70.5687C75.8347 70.5904 75.8258 70.611 75.8132 70.6293C75.8005 70.6476 75.7844 70.6632 75.7657 70.6752C75.7464 70.6886 75.7242 70.6972 75.7009 70.7004Z" fill="#263238"/>
<path d="M70.1678 71.9495C70.1329 71.9647 70.094 71.9677 70.0572 71.958C70.0205 71.9483 69.9881 71.9265 69.9652 71.8962C69.9423 71.8658 69.9304 71.8287 69.9312 71.7907C69.932 71.7527 69.9456 71.7161 69.9698 71.6867C70.1315 71.4679 70.3434 71.2911 70.5878 71.1715C70.8322 71.0518 71.1018 70.9927 71.3738 70.9991C71.396 71.0009 71.4177 71.0071 71.4376 71.0174C71.4574 71.0276 71.475 71.0416 71.4894 71.0587C71.5038 71.0758 71.5147 71.0955 71.5214 71.1168C71.5281 71.1381 71.5306 71.1605 71.5286 71.1827C71.524 71.2276 71.5025 71.269 71.4683 71.2985C71.4342 71.3279 71.39 71.3432 71.345 71.3411C71.1298 71.3382 70.9171 71.3871 70.7248 71.4836C70.5324 71.58 70.3661 71.7213 70.2398 71.8955C70.2217 71.9203 70.1966 71.9391 70.1678 71.9495Z" fill="#263238"/>
<path d="M53.7265 146.657L50.5405 145.246L53.6365 137.131L56.8189 138.542L53.7265 146.657Z" fill="#FF8B7B"/>
<path d="M50.4181 144.572L54.2629 145.876C54.3296 145.897 54.3862 145.942 54.422 146.003C54.4578 146.063 54.4704 146.134 54.4573 146.203L53.8633 149.4C53.845 149.479 53.8102 149.554 53.7612 149.619C53.7122 149.685 53.6501 149.739 53.5788 149.778C53.5076 149.818 53.4288 149.843 53.3476 149.85C53.2664 149.857 53.1845 149.847 53.1073 149.821C51.7753 149.342 51.1561 149.047 49.4677 148.471C48.4273 148.111 46.2277 147.751 44.7877 147.265C43.3477 146.779 43.7581 145.332 44.3989 145.408C47.2789 145.742 48.6253 145.048 49.7989 144.598C49.9965 144.519 50.2148 144.51 50.4181 144.572Z" fill="#263238"/>
<g opacity="0.2">
<path d="M56.819 138.546L53.633 137.135L51.7898 141.977L55.1378 142.96L56.819 138.546Z" fill="#1C1C1C"/>
</g>
<path d="M79.0093 104.688C79.0093 104.688 59.3533 106.099 58.5793 112.766C57.2581 124.11 51.7393 139.784 51.7393 139.784L56.1601 141.664C56.1601 141.664 64.3609 126.569 66.6433 116.719C70.4485 114.559 89.4097 122.278 86.6413 104.234L79.0093 104.688Z" fill="#263238"/>
<path d="M56.6568 142.315L50.8176 140.526L51.2352 138.373L57.7224 140.296L56.6568 142.315Z" fill="#407BFF"/>
<path d="M48.4777 144.41L48.4561 144.374C48.4154 144.302 48.394 144.22 48.394 144.137C48.394 144.054 48.4154 143.972 48.4561 143.899C48.4755 143.851 48.5081 143.809 48.5501 143.779C48.5921 143.748 48.6419 143.73 48.6937 143.726C49.1545 143.68 49.9645 144.702 50.0545 144.806C50.065 144.82 50.0707 144.836 50.0707 144.853C50.0707 144.87 50.065 144.887 50.0545 144.9C50.0466 144.915 50.0345 144.927 50.0198 144.934C50.005 144.942 49.9882 144.945 49.9717 144.943C49.5289 144.914 48.7297 144.785 48.4777 144.41ZM49.8025 144.77C49.4641 144.371 48.9637 143.878 48.7225 143.903C48.6994 143.905 48.6773 143.913 48.6588 143.927C48.6403 143.941 48.6262 143.96 48.6181 143.982C48.591 144.03 48.5767 144.085 48.5767 144.14C48.5767 144.196 48.591 144.25 48.6181 144.299C48.7225 144.511 49.1653 144.68 49.8025 144.763V144.77Z" fill="#407BFF"/>
<path d="M49.8529 144.821C49.6045 144.461 49.3201 143.647 49.4929 143.323C49.5282 143.263 49.5834 143.216 49.6491 143.192C49.7147 143.168 49.7867 143.167 49.8529 143.19C49.9175 143.203 49.9784 143.23 50.0313 143.269C50.0842 143.308 50.1278 143.359 50.1589 143.417C50.4217 143.87 50.0905 144.857 50.0761 144.9C50.0715 144.914 50.063 144.927 50.0515 144.936C50.04 144.946 50.0261 144.952 50.0113 144.954C49.997 144.957 49.9822 144.956 49.9683 144.952C49.9544 144.948 49.9419 144.94 49.9321 144.929C49.9034 144.895 49.877 144.858 49.8529 144.821ZM50.0005 143.478C49.981 143.447 49.9552 143.42 49.9249 143.4C49.8945 143.379 49.8602 143.366 49.8241 143.359C49.7161 143.338 49.6765 143.359 49.6549 143.41C49.5289 143.629 49.7305 144.317 49.9681 144.684C50.0581 144.349 50.1697 143.773 50.0149 143.5L50.0005 143.478Z" fill="#407BFF"/>
<path d="M63.0001 136.458L60.0157 138.254L55.1521 131.058L58.1365 129.262L63.0001 136.458Z" fill="#FF8B7B"/>
<path d="M59.4001 137.966L62.6761 135.569C62.7308 135.532 62.7963 135.516 62.8618 135.521C62.9273 135.527 62.9888 135.555 63.0361 135.601L65.3041 137.92C65.3591 137.98 65.4007 138.051 65.4261 138.129C65.4516 138.207 65.4604 138.289 65.4519 138.37C65.4434 138.451 65.4178 138.53 65.3768 138.6C65.3359 138.671 65.2804 138.732 65.2141 138.78C64.0585 139.594 63.4609 139.928 62.0209 140.983C61.1353 141.631 59.5621 143.233 58.3381 144.126C57.1141 145.019 56.1781 143.86 56.5921 143.377C58.5181 141.217 58.7305 139.712 59.0257 138.503C59.0828 138.285 59.2156 138.095 59.4001 137.966Z" fill="#263238"/>
<g opacity="0.2">
<path d="M58.1365 129.265L55.1521 131.062L58.0537 135.353L60.7825 133.175L58.1365 129.265Z" fill="#1C1C1C"/>
</g>
<path d="M70.2001 105.098C70.2001 105.098 49.4461 104.144 48.2401 110.747C46.1845 121.982 56.2249 134.147 56.2249 134.147L60.3145 131.598C60.3145 131.598 57.2221 122.958 56.0449 115.225C59.9833 113.324 81.1441 122.882 79.5529 104.699L70.2001 105.098Z" fill="#263238"/>
<path opacity="0.2" d="M63.335 108.079C63.001 108.08 62.6714 108.155 62.3702 108.299C59.9726 109.429 58.2014 110.887 57.9062 112.766C57.7946 113.486 57.665 114.206 57.521 114.952C57.7586 114.952 58.0106 114.952 58.2806 114.952C58.3958 114.206 58.4966 113.472 58.5794 112.756C58.8098 110.754 60.7394 109.228 63.335 108.076V108.079Z" fill="#1C1C1C"/>
<path d="M61.1318 131.562L56.3078 135.317L54.7886 133.733L60.0914 129.532L61.1318 131.562Z" fill="#407BFF"/>
<path d="M58.1438 139.46H58.1006C58.018 139.449 57.9397 139.417 57.8729 139.368C57.8061 139.318 57.7532 139.252 57.719 139.176C57.6931 139.131 57.6794 139.08 57.6794 139.028C57.6794 138.977 57.6931 138.926 57.719 138.881C57.9494 138.481 59.2526 138.406 59.4002 138.395C59.4169 138.394 59.4335 138.399 59.4476 138.408C59.4618 138.417 59.4728 138.43 59.4794 138.445C59.488 138.459 59.4925 138.476 59.4925 138.492C59.4925 138.509 59.488 138.525 59.4794 138.539C59.159 138.892 58.5938 139.471 58.1438 139.46ZM59.195 138.582C58.673 138.629 57.9818 138.755 57.863 138.967C57.8504 138.987 57.8438 139.009 57.8438 139.032C57.8438 139.055 57.8504 139.078 57.863 139.097C57.884 139.148 57.918 139.192 57.9616 139.226C58.0052 139.259 58.0569 139.28 58.1114 139.288C58.367 139.32 58.7594 139.054 59.195 138.6V138.582Z" fill="#407BFF"/>
<path d="M59.2705 138.571C58.8241 138.571 58.0033 138.334 57.8485 137.995C57.8201 137.934 57.8135 137.865 57.8299 137.799C57.8462 137.734 57.8846 137.676 57.9385 137.635C57.9862 137.59 58.0431 137.556 58.1052 137.535C58.1673 137.514 58.2332 137.506 58.2985 137.513C58.8205 137.563 59.4397 138.398 59.4649 138.434C59.4718 138.448 59.4755 138.463 59.4755 138.478C59.4755 138.493 59.4718 138.507 59.4649 138.521C59.4581 138.534 59.4483 138.545 59.4365 138.554C59.4246 138.563 59.411 138.569 59.3965 138.571C59.3546 138.574 59.3124 138.574 59.2705 138.571ZM58.2553 137.678C58.2187 137.678 58.1824 137.685 58.1484 137.698C58.1144 137.712 58.0834 137.732 58.0573 137.758C57.9745 137.833 57.9853 137.884 58.0033 137.923C58.1077 138.154 58.7845 138.384 59.2237 138.402C59.0041 138.132 58.5937 137.711 58.2841 137.682L58.2553 137.678Z" fill="#407BFF"/>
<path d="M74.844 71.7948L74.124 71.7516C74.124 71.7516 74.5884 72.2052 74.844 71.7948Z" fill="#263238"/>
<path d="M81.6013 99.7776L78.1201 98.01L78.9589 101.588C78.9589 101.588 81.1909 102.211 82.2313 101.128L81.6013 99.7776Z" fill="#FF8B7B"/>
<path d="M89.7588 85.9536C89.91 86.2524 90.0144 86.4828 90.1188 86.7384C90.2232 86.994 90.3312 87.2424 90.432 87.4944C90.6336 87.9984 90.8208 88.506 90.9972 89.0136C91.3392 90.0324 91.6272 91.0656 91.8828 92.106C92.1384 93.1464 92.3292 94.1976 92.4912 95.256C92.5632 95.7888 92.6388 96.318 92.6856 96.8508L92.754 97.65L92.772 97.866C92.772 97.9776 92.772 98.0856 92.772 98.2008C92.7697 98.4427 92.7444 98.6838 92.6964 98.9208C92.5926 99.4131 92.3771 99.875 92.0664 100.271C91.7935 100.616 91.462 100.911 91.0872 101.142C90.4954 101.489 89.849 101.732 89.1756 101.862C88.058 102.08 86.9178 102.16 85.7808 102.1C83.6646 102.005 81.564 101.69 79.5132 101.16L79.8228 99.36C81.7971 99.4878 83.7776 99.4878 85.752 99.36C86.6613 99.3092 87.562 99.1571 88.4376 98.9064C88.7649 98.8175 89.0742 98.6726 89.352 98.478C89.4133 98.4385 89.462 98.3823 89.4924 98.316C89.4924 98.2836 89.4924 98.2944 89.4924 98.28L89.334 97.2936C89.2548 96.8112 89.154 96.3324 89.0676 95.8536C88.866 94.8996 88.632 93.9492 88.3836 93.0096C88.1352 92.07 87.8256 91.1412 87.5016 90.2268C87.3432 89.766 87.174 89.3124 86.9976 88.866L86.7276 88.2036C86.6412 87.9948 86.5368 87.7536 86.4648 87.5952L89.7588 85.9536Z" fill="#FF8B7B"/>
<path d="M87.9624 82.2168C89.4564 82.5768 91.5156 87.5232 91.5156 87.5232L86.9004 91.7136C86.9004 91.7136 83.7396 87.84 84.24 85.9032C84.7692 83.88 86.2596 81.8064 87.9624 82.2168Z" fill="#407BFF"/>
<path d="M75.1428 98.5968L76.0068 101.552L78.9624 101.588L78.1236 98.01L75.1428 98.5968Z" fill="#FF8B7B"/>
<path d="M77.897 106.718H62.777C62.2079 106.695 61.6627 106.483 61.2278 106.115C60.7929 105.748 60.493 105.245 60.3758 104.688L58.5758 94.8348C58.5169 94.588 58.5158 94.3309 58.5725 94.0835C58.6293 93.8362 58.7424 93.6053 58.903 93.4088C59.0636 93.2123 59.2673 93.0556 59.4984 92.9507C59.7295 92.8459 59.9817 92.7958 60.2354 92.8044H75.3734C75.9424 92.8275 76.4876 93.0396 76.9225 93.4074C77.3574 93.7752 77.6573 94.2775 77.7745 94.8348L79.5745 104.688C79.6339 104.936 79.6348 105.195 79.5771 105.444C79.5193 105.693 79.4046 105.925 79.242 106.121C79.0793 106.318 78.8732 106.475 78.6398 106.578C78.4063 106.682 78.1521 106.73 77.897 106.718Z" fill="white"/>
<path opacity="0.5" d="M77.6269 106.718H62.7589C62.1898 106.695 61.6446 106.483 61.2097 106.115C60.7748 105.748 60.475 105.245 60.3577 104.688L58.5577 94.8348C58.4988 94.588 58.4977 94.3309 58.5545 94.0835C58.6112 93.8362 58.7243 93.6053 58.8849 93.4088C59.0455 93.2123 59.2493 93.0556 59.4804 92.9507C59.7115 92.8459 59.9637 92.7958 60.2173 92.8044H75.0853C75.6544 92.8275 76.1995 93.0396 76.6344 93.4074C77.0694 93.7752 77.3692 94.2775 77.4865 94.8348L79.2865 104.688C79.3454 104.935 79.3465 105.192 79.2897 105.439C79.233 105.687 79.1199 105.918 78.9593 106.114C78.7987 106.311 78.5949 106.467 78.3638 106.572C78.1327 106.677 77.8805 106.727 77.6269 106.718Z" fill="#407BFF"/>
<path d="M58.5542 99.2196L59.1266 102.434L60.3794 101.261L60.041 98.8668C60.0273 98.7698 59.9865 98.6787 59.9231 98.604C59.8598 98.5293 59.7766 98.474 59.6832 98.4447C59.5898 98.4153 59.49 98.413 59.3953 98.438C59.3006 98.463 59.2149 98.5143 59.1482 98.586L58.5542 99.2196Z" fill="#FF8B7B"/>
</svg>
