<svg width="180" height="180" viewBox="0 0 180 180" fill="none" xmlns="http://www.w3.org/2000/svg">
<path d="M180 137.664H0V137.754H180V137.664Z" fill="#EBEBEB"/>
<path d="M161.964 143.456H150.041V143.546H161.964V143.456Z" fill="#EBEBEB"/>
<path d="M119.239 144.436H116.111V144.526H119.239V144.436Z" fill="#EBEBEB"/>
<path d="M149.681 140.116H142.772V140.206H149.681V140.116Z" fill="#EBEBEB"/>
<path d="M34.4339 140.72H18.8855V140.81H34.4339V140.72Z" fill="#EBEBEB"/>
<path d="M39.9204 140.72H37.6416V140.81H39.9204V140.72Z" fill="#EBEBEB"/>
<path d="M81.054 142.24H47.3292V142.33H81.054V142.24Z" fill="#EBEBEB"/>
<path d="M85.32 121.608H15.8076C15.2631 121.607 14.7411 121.39 14.3564 121.005C13.9717 120.619 13.7556 120.097 13.7556 119.552V21.8376C13.7604 21.2962 13.9785 20.7785 14.3627 20.397C14.7469 20.0155 15.2662 19.801 15.8076 19.8H85.32C85.8652 19.8 86.388 20.0166 86.7735 20.4021C87.159 20.7876 87.3756 21.3105 87.3756 21.8556V119.552C87.3756 120.098 87.159 120.62 86.7735 121.006C86.388 121.391 85.8652 121.608 85.32 121.608ZM15.8076 19.872C15.2869 19.873 14.7879 20.0805 14.4201 20.449C14.0522 20.8175 13.8456 21.317 13.8456 21.8376V119.552C13.8456 120.073 14.0522 120.573 14.4201 120.941C14.7879 121.31 15.2869 121.517 15.8076 121.518H85.32C85.841 121.517 86.3404 121.31 86.7089 120.941C87.0773 120.573 87.2847 120.073 87.2856 119.552V21.8376C87.2847 21.3166 87.0773 20.8172 86.7089 20.4488C86.3404 20.0804 85.841 19.873 85.32 19.872H15.8076Z" fill="#EBEBEB"/>
<path d="M163.192 121.608H93.6756C93.1307 121.607 92.6084 121.39 92.2231 121.005C91.8378 120.62 91.6209 120.097 91.62 119.552V21.8376C91.6257 21.2959 91.8446 20.7782 92.2294 20.3968C92.6142 20.0154 93.1338 19.801 93.6756 19.8H163.192C163.732 19.8019 164.251 20.0169 164.634 20.3983C165.018 20.7797 165.235 21.2968 165.24 21.8376V119.552C165.24 120.096 165.024 120.618 164.64 121.003C164.257 121.389 163.736 121.606 163.192 121.608ZM93.6756 19.872C93.1546 19.873 92.6552 20.0804 92.2868 20.4488C91.9183 20.8172 91.7109 21.3166 91.71 21.8376V119.552C91.7109 120.073 91.9183 120.573 92.2868 120.941C92.6552 121.31 93.1546 121.517 93.6756 121.518H163.192C163.713 121.517 164.212 121.31 164.58 120.941C164.949 120.573 165.156 120.073 165.157 119.552V21.8376C165.156 21.3166 164.949 20.8172 164.58 20.4488C164.212 20.0804 163.713 19.873 163.192 19.872H93.6756Z" fill="#EBEBEB"/>
<path d="M152.258 28.7208H82.134V90.3168H152.258V28.7208Z" fill="#E6E6E6"/>
<path d="M154.091 28.7208H82.9908V90.3168H154.091V28.7208Z" fill="#F0F0F0"/>
<path d="M152.258 90.3132H82.134V92.0124H152.258V90.3132Z" fill="#E6E6E6"/>
<path d="M157.136 90.3132H86.0364V92.0124H157.136V90.3132Z" fill="#F0F0F0"/>
<path d="M151.528 87.7572V31.2804L85.5504 31.2804V87.7572H151.528Z" fill="#FAFAFA"/>
<path d="M94.3812 87.7536L101.657 31.2804H114.253L106.974 87.7536H94.3812Z" fill="white"/>
<path d="M109.678 87.7536L116.957 31.2804H121.867L114.588 87.7536H109.678Z" fill="white"/>
<path d="M151.531 87.7537V31.2769H151.207V87.7537H151.531Z" fill="#E6E6E6"/>
<path opacity="0.5" d="M154.692 36.6624H84.5676L84.3336 32.274H154.458L154.692 36.6624Z" fill="#E0E0E0"/>
<path opacity="0.5" d="M154.692 43.8732H84.5676L84.3336 39.4884H154.458L154.692 43.8732Z" fill="#E0E0E0"/>
<path opacity="0.5" d="M154.692 51.084H84.5676L84.3336 46.6992H154.458L154.692 51.084Z" fill="#E0E0E0"/>
<path opacity="0.5" d="M154.692 58.2984H84.5676L84.3336 53.91H154.458L154.692 58.2984Z" fill="#E0E0E0"/>
<path opacity="0.5" d="M154.692 65.5093H84.5676L84.3336 61.1208H154.458L154.692 65.5093Z" fill="#E0E0E0"/>
<path opacity="0.5" d="M154.692 72.7201H84.5676L84.3336 68.3317H154.458L154.692 72.7201Z" fill="#E0E0E0"/>
<path d="M43.02 41.6593H21.114V84.9709H43.02V41.6593Z" fill="#E0E0E0"/>
<path d="M44.3197 41.6593H21.9817V84.9709H44.3197V41.6593Z" fill="#F5F5F5"/>
<path d="M23.8501 44.1648L23.8501 82.4652H42.4441V44.1648H23.8501Z" fill="white"/>
<path d="M72.2664 35.0497H50.3604V78.3613H72.2664V35.0497Z" fill="#E0E0E0"/>
<path d="M73.566 35.0497H51.228V78.3613H73.566V35.0497Z" fill="#F5F5F5"/>
<path d="M53.1 37.5553V75.8557H71.6976V37.5553H53.1Z" fill="white"/>
<path d="M68.3747 97.7472H59.1552V137.664H68.3747V97.7472Z" fill="#E6E6E6"/>
<path d="M66.6252 137.664H68.3748V133.6H64.7892L66.6252 137.664Z" fill="#F0F0F0"/>
<path d="M33.912 97.7472H24.6924V137.664H33.912V97.7472Z" fill="#E6E6E6"/>
<path d="M68.3748 97.7472H32.382V135.169H68.3748V97.7472Z" fill="#F0F0F0"/>
<path d="M50.9652 100.235V130.086H67.014V100.235H50.9652Z" fill="#E6E6E6"/>
<path d="M33.7393 100.235V130.086H49.7881V100.235H33.7393Z" fill="#E6E6E6"/>
<path d="M43.3548 101.376H40.1796C38.849 101.389 37.5568 100.93 36.5328 100.08H47.0016C45.9777 100.93 44.6855 101.389 43.3548 101.376Z" fill="#F0F0F0"/>
<path d="M60.7428 101.376H57.5676C56.2368 101.39 54.9444 100.931 53.9208 100.08H64.3896C63.3656 100.93 62.0734 101.389 60.7428 101.376Z" fill="#F0F0F0"/>
<path d="M34.1352 137.664H32.382V133.6H35.9712L34.1352 137.664Z" fill="#F0F0F0"/>
<path d="M40.8312 93.9385C40.8312 93.9385 41.1048 97.7473 51.5988 97.7473C62.0928 97.7473 62.3664 93.9385 62.3664 93.9385H40.8312Z" fill="#E6E6E6"/>
<path d="M82.1953 111.013L160.97 111.013V104.418L82.1953 104.418V111.013Z" fill="#EBEBEB"/>
<path d="M82.1987 111.013H104.558V104.418H82.1987V111.013Z" fill="#E0E0E0"/>
<path d="M156.258 137.664H160.974V111.013H156.258V137.664Z" fill="#EBEBEB"/>
<path d="M156.258 112.86L160.974 111.938V111.013H156.258V112.86Z" fill="#E0E0E0"/>
<path d="M82.1953 137.664H86.9113V111.013H82.1953V137.664Z" fill="#E0E0E0"/>
<path d="M99.8423 137.664H104.558V111.013H99.8423V137.664Z" fill="#EBEBEB"/>
<path d="M99.8424 112.86L104.558 111.938V111.013H99.8424V112.86Z" fill="#E0E0E0"/>
<path d="M141.494 137.664H146.21V111.013H141.494V137.664Z" fill="#E0E0E0"/>
<path d="M90.0001 153.922C128.55 153.922 159.801 152.097 159.801 149.846C159.801 147.596 128.55 145.771 90.0001 145.771C51.4504 145.771 20.1997 147.596 20.1997 149.846C20.1997 152.097 51.4504 153.922 90.0001 153.922Z" fill="#F5F5F5"/>
<path d="M83.7035 46.5589H40.7591C40.0791 46.5518 39.4051 46.6863 38.7799 46.9538C38.1546 47.2213 37.5919 47.6159 37.1274 48.1126C36.6629 48.6093 36.3068 49.1971 36.0817 49.8388C35.8566 50.4805 35.7674 51.162 35.8199 51.8401L41.9759 143.424C42.092 144.851 42.7352 146.183 43.7801 147.161C44.825 148.14 46.1967 148.694 47.6279 148.716H90.5723C91.2533 148.724 91.9284 148.589 92.5545 148.321C93.1806 148.053 93.7439 147.658 94.2084 147.16C94.6729 146.662 95.0284 146.072 95.2522 145.429C95.4759 144.786 95.563 144.103 95.5079 143.424L89.3519 51.8401C89.2333 50.4159 88.5895 49.0867 87.5457 48.1107C86.5018 47.1347 85.1324 46.5816 83.7035 46.5589Z" fill="#407BFF"/>
<path opacity="0.3" d="M83.7035 46.5589H40.7591C40.0791 46.5518 39.4051 46.6863 38.7799 46.9538C38.1546 47.2213 37.5919 47.6159 37.1274 48.1126C36.6629 48.6093 36.3068 49.1971 36.0817 49.8388C35.8566 50.4805 35.7674 51.162 35.8199 51.8401L41.9759 143.424C42.092 144.851 42.7352 146.183 43.7801 147.161C44.825 148.14 46.1967 148.694 47.6279 148.716H90.5723C91.2533 148.724 91.9284 148.589 92.5545 148.321C93.1806 148.053 93.7439 147.658 94.2084 147.16C94.6729 146.662 95.0284 146.072 95.2522 145.429C95.4759 144.786 95.563 144.103 95.5079 143.424L89.3519 51.8401C89.2333 50.4159 88.5895 49.0867 87.5457 48.1107C86.5018 47.1347 85.1324 46.5816 83.7035 46.5589Z" fill="white"/>
<path d="M35.8726 66.1819L35.5134 66.2061L36.0933 74.8446L36.4524 74.8205L35.8726 66.1819Z" fill="#407BFF"/>
<path d="M36.7713 79.3623L36.4121 79.3865L36.6727 83.2585L37.0319 83.2343L36.7713 79.3623Z" fill="#407BFF"/>
<path d="M45.0936 144.36C45.1229 144.709 45.0239 145.057 44.8152 145.338C44.6065 145.62 44.3024 145.815 43.9598 145.889C43.6173 145.962 43.2597 145.908 42.9542 145.736C42.6486 145.565 42.416 145.288 42.3 144.958C42.1209 144.47 42.0119 143.96 41.976 143.442L35.82 51.84C35.7835 51.3244 35.8248 50.8062 35.9424 50.3028C36.0147 49.9598 36.2098 49.6549 36.4909 49.4454C36.772 49.2359 37.1199 49.1362 37.4693 49.1649C37.8187 49.1936 38.1456 49.3488 38.3888 49.6014C38.6319 49.8539 38.7746 50.1865 38.79 50.5368L45.0936 144.36Z" fill="#407BFF"/>
<path d="M90.5723 146.999H50.6735C49.6829 146.972 48.7365 146.583 48.0139 145.905C47.2913 145.226 46.8427 144.307 46.7531 143.32L40.5971 51.7393C40.5577 51.2971 40.6117 50.8515 40.7557 50.4315C40.8997 50.0116 41.1305 49.6266 41.433 49.3017C41.7355 48.9768 42.103 48.7191 42.5116 48.5455C42.9203 48.3719 43.3608 48.2863 43.8047 48.2941H83.7035C84.6936 48.3208 85.6395 48.7097 86.362 49.3871C87.0845 50.0645 87.5335 50.9834 87.6239 51.9697L93.7799 143.554C93.8182 143.996 93.7634 144.441 93.619 144.86C93.4746 145.28 93.2438 145.664 92.9415 145.989C92.6392 146.314 92.2721 146.571 91.864 146.745C91.4559 146.919 91.0159 147.006 90.5723 146.999ZM43.8047 48.6793C43.4138 48.6721 43.0257 48.7474 42.6658 48.9003C42.3058 49.0531 41.9822 49.2801 41.7159 49.5665C41.4496 49.8528 41.2466 50.1921 41.1202 50.5621C40.9938 50.9321 40.9468 51.3247 40.9823 51.7141L47.1383 143.28C47.2183 144.17 47.6226 145 48.2743 145.612C48.9261 146.224 49.7799 146.576 50.6735 146.599H90.5723C90.9633 146.606 91.3514 146.531 91.7113 146.378C92.0712 146.225 92.3949 145.998 92.6612 145.712C92.9275 145.426 93.1304 145.086 93.2568 144.716C93.3832 144.346 93.4302 143.954 93.3947 143.564L87.2387 51.9841C87.1587 51.0937 86.7545 50.2637 86.1027 49.6518C85.451 49.0398 84.5972 48.6886 83.7035 48.6649L43.8047 48.6793Z" fill="white"/>
<g opacity="0.5">
<path d="M80.6352 89.8577C86.7197 83.4234 85.8214 72.6936 78.6288 65.8918C71.4361 59.0901 60.6729 58.7922 54.5883 65.2264C48.5038 71.6606 49.4021 82.3905 56.5947 89.1922C63.7873 95.994 74.5506 96.2919 80.6352 89.8577Z" fill="#407BFF"/>
<path d="M78.0299 87.3976C82.8973 82.2505 82.1787 73.6671 76.4249 68.2259C70.671 62.7848 62.0609 62.5465 57.1935 67.6936C52.3261 72.8406 53.0448 81.4241 58.7986 86.8652C64.5524 92.3063 73.1626 92.5447 78.0299 87.3976Z" fill="white"/>
<path d="M75.4227 84.9497C79.0736 81.0904 78.5358 74.6533 74.2215 70.572C69.9072 66.4908 63.4501 66.3108 59.7993 70.1702C56.1484 74.0295 56.6863 80.4666 61.0006 84.5478C65.3148 88.6291 71.7719 88.809 75.4227 84.9497Z" fill="#407BFF"/>
<path d="M72.8222 82.4728C75.2565 79.8985 74.8972 75.6057 72.0195 72.8844C69.1419 70.1632 64.8357 70.044 62.4013 72.6183C59.967 75.1926 60.3263 79.4854 63.2039 82.2067C66.0816 84.9279 70.3878 85.047 72.8222 82.4728Z" fill="white"/>
<path d="M70.2157 80.0205C71.4331 78.7335 71.2539 76.5871 69.8153 75.2262C68.3767 73.8653 66.2236 73.8054 65.0062 75.0923C63.7888 76.3792 63.9681 78.5257 65.4067 79.8866C66.8452 81.2474 68.9983 81.3074 70.2157 80.0205Z" fill="#407BFF"/>
</g>
<path d="M70.8804 100.624C70.8156 100.624 70.7544 100.624 70.6896 100.624C70.1955 99.6696 69.4516 98.8676 68.5374 98.3033C67.6231 97.739 66.5727 97.4336 65.4984 97.4197C64.9474 97.4192 64.3997 97.5042 63.8748 97.6717C63.3571 96.7227 62.5959 95.9286 61.6697 95.3712C60.7434 94.8138 59.6854 94.5131 58.6044 94.5001C57.925 94.4901 57.2502 94.6143 56.6189 94.8657C55.9876 95.117 55.4121 95.4906 54.9254 95.9648C54.4388 96.4391 54.0506 97.0048 53.783 97.6294C53.5155 98.2541 53.3739 98.9254 53.3664 99.6049C52.8291 99.6366 52.3035 99.7756 51.8207 100.014C51.3379 100.252 50.9077 100.584 50.5554 100.991C50.2031 101.398 49.9358 101.871 49.7694 102.383C49.603 102.895 49.5408 103.435 49.5864 103.972C49.6797 105.154 50.2114 106.259 51.0772 107.069C51.943 107.88 53.0805 108.338 54.2664 108.353H71.4096C71.9072 108.359 72.4006 108.26 72.858 108.064C73.3154 107.868 73.7268 107.579 74.0657 107.214C74.4047 106.85 74.6638 106.419 74.8263 105.948C74.9888 105.478 75.0513 104.979 75.0096 104.483C74.9246 103.441 74.4545 102.469 73.691 101.755C72.9275 101.042 71.9254 100.638 70.8804 100.624Z" fill="white"/>
<path d="M81.7991 58.7377H81.6515C81.2662 57.9944 80.6863 57.3697 79.9736 56.9303C79.2609 56.4909 78.4423 56.2533 77.6051 56.2429C77.1752 56.242 76.7478 56.3076 76.3379 56.4373C75.9338 55.6984 75.3404 55.0802 74.6186 54.6462C73.8967 54.2123 73.0725 53.9781 72.2303 53.9677C71.1641 53.9523 70.1353 54.3607 69.3699 55.1031C68.6045 55.8456 68.165 56.8615 68.1479 57.9277C67.7289 57.9526 67.3191 58.0612 66.9426 58.2469C66.5662 58.4326 66.2307 58.6918 65.956 59.0091C65.6812 59.3265 65.4728 59.6956 65.3428 60.0948C65.2129 60.4939 65.1642 60.915 65.1995 61.3333C65.273 62.2542 65.6876 63.1145 66.3621 63.7458C67.0367 64.3771 67.9226 64.7338 68.8463 64.7461H82.2095C82.5979 64.7515 82.9832 64.6755 83.3404 64.5231C83.6977 64.3706 84.0191 64.145 84.2839 63.8609C84.5488 63.5767 84.7512 63.2402 84.8782 62.8731C85.0051 62.506 85.0538 62.1164 85.0211 61.7293C84.9499 60.9202 84.5809 60.1663 83.9857 59.6136C83.3904 59.061 82.6113 58.7488 81.7991 58.7377Z" fill="white"/>
<path opacity="0.3" d="M87.12 114.79H62.4384C62.26 114.788 62.0832 114.823 61.9192 114.893C61.7552 114.963 61.6076 115.067 61.486 115.197C61.3643 115.328 61.2713 115.482 61.2127 115.651C61.1542 115.819 61.1314 115.998 61.146 116.176L62.1468 130.896C62.1756 131.27 62.3434 131.62 62.6173 131.877C62.8911 132.133 63.2512 132.278 63.6264 132.282H66.9384L67.2156 136.354L71.0064 132.282H88.2864C88.4649 132.285 88.642 132.25 88.8063 132.18C88.9705 132.11 89.1183 132.006 89.2401 131.876C89.3618 131.745 89.4549 131.591 89.5132 131.422C89.5716 131.253 89.5939 131.074 89.5788 130.896L88.5816 116.176C88.5516 115.805 88.3858 115.459 88.116 115.203C87.8463 114.947 87.4916 114.8 87.12 114.79Z" fill="white"/>
<path d="M86.9292 124.466H63.9396L63.8136 122.605H86.8068L86.9292 124.466Z" fill="white"/>
<path d="M79.92 128.333H64.2024L64.0764 126.472H79.794L79.92 128.333Z" fill="white"/>
<path d="M86.67 120.6H63.6768L63.5508 118.739H86.544L86.67 120.6Z" fill="white"/>
<path d="M106.43 52.5599L107.377 53.2403C107.706 53.4803 108.037 53.7071 108.371 53.9207C109.037 54.3635 109.706 54.8063 110.383 55.2095C111.06 55.6127 111.744 55.9943 112.421 56.3327C113.055 56.6526 113.712 56.9257 114.386 57.1499C114.237 57.1129 114.081 57.1055 113.929 57.1283C113.838 57.1395 113.749 57.165 113.666 57.2039C113.562 57.2579 113.594 57.2615 113.648 57.2291C113.857 57.0848 114.044 56.9128 114.206 56.7179C114.68 56.1525 115.109 55.5506 115.488 54.9179C115.909 54.2555 116.312 53.5535 116.698 52.8335C117.083 52.1135 117.468 51.3755 117.824 50.6735L117.85 50.6267C118.032 50.2678 118.341 49.9896 118.718 49.8465C119.094 49.7033 119.51 49.7054 119.885 49.8524C120.26 49.9994 120.567 50.2807 120.745 50.6415C120.924 51.0022 120.962 51.4167 120.852 51.8039C120.363 53.5191 119.743 55.1944 118.998 56.8151C118.594 57.6872 118.119 58.5241 117.576 59.3171C117.237 59.8085 116.839 60.257 116.392 60.6527C116.064 60.9377 115.694 61.1686 115.294 61.3367C115.012 61.4522 114.717 61.5308 114.415 61.5707C114.054 61.6118 113.689 61.5911 113.335 61.5095C112.373 61.2863 111.432 60.9841 110.52 60.6059C109.667 60.2586 108.833 59.8657 108.022 59.4287C107.222 59.0039 106.444 58.5563 105.685 58.0859C105.307 57.8483 104.933 57.6071 104.562 57.3659C104.191 57.1247 103.842 56.8727 103.435 56.5775C102.981 56.1585 102.696 55.587 102.635 54.9717C102.575 54.3565 102.743 53.7404 103.107 53.2408C103.471 52.7411 104.006 52.3927 104.61 52.2619C105.214 52.131 105.845 52.2269 106.384 52.5311L106.43 52.5599Z" fill="#407BFF"/>
<path opacity="0.2" d="M106.43 52.5599L107.377 53.2403C107.706 53.4803 108.037 53.7071 108.371 53.9207C109.037 54.3635 109.706 54.8063 110.383 55.2095C111.06 55.6127 111.744 55.9943 112.421 56.3327C113.055 56.6526 113.712 56.9257 114.386 57.1499C114.237 57.1129 114.081 57.1055 113.929 57.1283C113.838 57.1395 113.749 57.165 113.666 57.2039C113.562 57.2579 113.594 57.2615 113.648 57.2291C113.857 57.0848 114.044 56.9128 114.206 56.7179C114.68 56.1525 115.109 55.5506 115.488 54.9179C115.909 54.2555 116.312 53.5535 116.698 52.8335C117.083 52.1135 117.468 51.3755 117.824 50.6735L117.85 50.6267C118.032 50.2678 118.341 49.9896 118.718 49.8465C119.094 49.7033 119.51 49.7054 119.885 49.8524C120.26 49.9994 120.567 50.2807 120.745 50.6415C120.924 51.0022 120.962 51.4167 120.852 51.8039C120.363 53.5191 119.743 55.1944 118.998 56.8151C118.594 57.6872 118.119 58.5241 117.576 59.3171C117.237 59.8085 116.839 60.257 116.392 60.6527C116.064 60.9377 115.694 61.1686 115.294 61.3367C115.012 61.4522 114.717 61.5308 114.415 61.5707C114.054 61.6118 113.689 61.5911 113.335 61.5095C112.373 61.2863 111.432 60.9841 110.52 60.6059C109.667 60.2586 108.833 59.8657 108.022 59.4287C107.222 59.0039 106.444 58.5563 105.685 58.0859C105.307 57.8483 104.933 57.6071 104.562 57.3659C104.191 57.1247 103.842 56.8727 103.435 56.5775C102.981 56.1585 102.696 55.587 102.635 54.9717C102.575 54.3565 102.743 53.7404 103.107 53.2408C103.471 52.7411 104.006 52.3927 104.61 52.2619C105.214 52.131 105.845 52.2269 106.384 52.5311L106.43 52.5599Z" fill="#1C1C1C"/>
<path d="M118.732 50.0004L119.707 48.3516L121.579 50.3712C121.309 50.9577 120.821 51.416 120.218 51.6492C120.083 51.6953 119.939 51.7095 119.797 51.6908C119.655 51.6721 119.52 51.6208 119.401 51.5412L119.041 51.3108C118.831 51.174 118.682 50.9615 118.624 50.7175C118.566 50.4735 118.605 50.2167 118.732 50.0004Z" fill="#FFB573"/>
<path d="M122.36 47.3688L122.774 47.6244C122.904 47.7047 123.013 47.8144 123.093 47.9445C123.173 48.0747 123.222 48.2217 123.235 48.3739C123.247 48.526 123.225 48.6791 123.168 48.8209C123.111 48.9627 123.022 49.0892 122.908 49.1904L121.579 50.3712L119.707 48.3516L121.338 47.3652C121.492 47.2711 121.669 47.2217 121.85 47.2223C122.03 47.2229 122.207 47.2736 122.36 47.3688Z" fill="#FFB573"/>
<path d="M83.5272 146.923L86.3784 147.006L87.4512 140.404L84.6036 140.321L83.5272 146.923Z" fill="#FFB573"/>
<path d="M86.8284 146.203L83.6424 145.8C83.589 145.792 83.5344 145.805 83.4906 145.837C83.4468 145.868 83.4172 145.916 83.4084 145.969L82.9368 148.468C82.9194 148.6 82.9551 148.734 83.0361 148.839C83.117 148.945 83.2367 149.015 83.3688 149.033C84.4812 149.155 85.0176 149.155 86.418 149.332C87.2784 149.443 89.5212 149.983 90.7128 149.836C91.9044 149.688 91.7244 148.518 91.206 148.475C88.884 148.273 88.0128 147.168 87.2928 146.437C87.1679 146.31 87.0047 146.228 86.8284 146.203Z" fill="#263238"/>
<path opacity="0.2" d="M84.6001 140.324L87.4513 140.407L86.8969 143.809L84.0457 143.726L84.6001 140.324Z" fill="#1C1C1C"/>
<path d="M100.184 77.04C100.184 77.04 97.6968 100.652 96.0408 108.673C94.2408 117.457 88.4196 143.154 88.4196 143.154L83.2032 142.769C83.2032 142.769 86.0616 116.186 88.4016 107.582C88.4016 98.6472 90.5616 73.6056 90.5616 73.6056L100.184 77.04Z" fill="#263238"/>
<path opacity="0.3" d="M91.8719 85.0212C91.8251 83.1744 90.8243 82.5804 89.8379 82.602C89.4779 87.0444 89.0927 92.4912 88.8011 97.4052C90.5507 94.5684 92.0015 90.1512 91.8719 85.0212Z" fill="#1C1C1C"/>
<path d="M83.0483 142.805L88.6355 143.219L89.2763 141.113L82.8431 141.048L83.0483 142.805Z" fill="white"/>
<path d="M54.6156 124.794L56.412 127.015L61.7868 123.138L59.9868 120.92L54.6156 124.794Z" fill="#FFB573"/>
<path d="M56.8008 127.019L55.2024 124.236C55.1771 124.189 55.1343 124.153 55.0832 124.137C55.0321 124.121 54.9766 124.125 54.9288 124.15L52.65 125.28C52.5344 125.346 52.4494 125.454 52.4137 125.583C52.3779 125.711 52.3943 125.848 52.4592 125.964C53.0316 126.925 53.3556 127.354 54.0576 128.578C54.4896 129.33 55.6272 131.494 56.2176 132.538C56.808 133.582 57.8268 132.959 57.6576 132.466C56.9376 130.248 56.7324 128.552 56.88 127.541C56.9129 127.363 56.885 127.179 56.8008 127.019Z" fill="#263238"/>
<path opacity="0.2" d="M59.9868 120.92L61.7868 123.142L59.0148 125.136L57.2148 122.918L59.9868 120.92Z" fill="#1C1C1C"/>
<path d="M94.9824 75.0096C94.9824 75.0096 87.966 95.0904 84.7764 102.636C81.288 110.898 60.426 125.572 60.426 125.572L57.132 121.507C57.132 121.507 71.3088 107.298 76.572 100.559C79.488 91.3824 85.7124 71.694 85.7124 71.694L94.9824 75.0096Z" fill="#263238"/>
<path d="M56.9988 121.342L60.5592 125.734L62.298 124.729L58.1292 120.078L56.9988 121.342Z" fill="white"/>
<path d="M100.156 77.1768L85.698 71.694C86.058 70.3728 87.948 66.492 89.6292 61.0884C90.9006 57.0954 91.8257 53.0003 92.394 48.8484C92.4087 48.7274 92.448 48.6107 92.5094 48.5053C92.5708 48.4 92.6531 48.3083 92.7511 48.2359C92.8492 48.1634 92.961 48.1117 93.0797 48.084C93.1984 48.0562 93.3216 48.053 93.4416 48.0744C93.7116 48.1212 94.032 48.1824 94.3848 48.2508C95.2956 48.4344 96.4332 48.6936 97.5168 49.0248C99.5968 49.6346 101.64 50.363 103.637 51.2064C104.305 51.5074 104.956 51.8476 105.584 52.2252C105.958 52.4382 106.305 52.6956 106.618 52.992C106.73 53.0826 106.824 53.1949 106.893 53.3223C106.961 53.4496 107.004 53.5895 107.017 53.7336C107.017 55.8 104.947 63.8064 100.156 77.1768Z" fill="#F0F0F0"/>
<path d="M103.349 51.0732C101.722 50.0148 101.801 48.8052 102.352 47.6388C102.49 47.3504 102.645 47.0703 102.816 46.8L101.25 44.154L100.098 42.2136C99.846 44.3448 99.0756 48.1176 97.2756 48.9528C98.2593 50.3418 99.6643 51.3769 101.282 51.9048C103.939 52.7328 103.349 51.0732 103.349 51.0732Z" fill="#FFB573"/>
<path d="M101.182 51.8616L101.156 51.1848L99.3564 51.5376L101.182 51.8616Z" fill="#E0E0E0"/>
<path d="M101.182 51.8616L101.516 51.3108L102.679 52.7256L101.182 51.8616Z" fill="#E0E0E0"/>
<path d="M97.5204 48.6288C98.6153 49.6362 99.8377 50.4956 101.156 51.1848C100.436 51.6276 99.7524 52.794 99.4932 53.7588C98.91 53.352 96.5772 49.5144 96.2532 48.4596L97.5204 48.6288Z" fill="white"/>
<path d="M103.01 50.6628C102.584 51.0187 102.064 51.2437 101.513 51.3108C101.898 51.876 102.233 53.3412 102.233 54.1908C102.906 53.7516 103.946 52.218 104.112 51.5232L103.01 50.6628Z" fill="white"/>
<path opacity="0.3" d="M103.068 50.6124C103.068 50.6124 104.641 51.3684 106.031 52.2252C106.6 52.5762 107.04 53.1027 107.284 53.7254C107.528 54.3481 107.563 55.0332 107.384 55.6776C105.667 61.7472 103.349 67.6404 102.388 70.92C101.369 74.4156 99.9504 78.8004 99.9504 78.8004L97.4988 79.38C97.4988 79.38 103.644 55.8756 103.068 50.6124Z" fill="#1C1C1C"/>
<path opacity="0.3" d="M97.4843 48.3552C97.4843 48.3552 95.3711 48.078 93.5243 47.9952C92.8767 47.966 92.2389 48.161 91.7182 48.5472C91.1975 48.9334 90.8259 49.4873 90.6659 50.1156C89.7299 53.8164 89.0387 60.894 88.0919 63.648C86.9147 67.0896 85.3199 73.8 85.3199 73.8L93.6935 78.6384C93.6935 78.6384 102.154 52.65 97.4843 48.3552Z" fill="#1C1C1C"/>
<path d="M97.4844 48.3552C97.4844 48.3552 95.3712 48.078 93.5244 47.9952C92.8768 47.966 92.2389 48.161 91.7182 48.5472C91.1976 48.9334 90.8259 49.4873 90.666 50.1156C89.73 53.8164 88.4556 60.7284 87.5052 63.486C86.3208 66.9276 83.808 72.7776 83.808 72.7776L94.3704 77.7312C94.3704 77.7312 102.154 52.65 97.4844 48.3552Z" fill="#407BFF"/>
<path opacity="0.2" d="M97.4844 48.3552C97.4844 48.3552 95.3712 48.078 93.5244 47.9952C92.8768 47.966 92.2389 48.161 91.7182 48.5472C91.1976 48.9334 90.8259 49.4873 90.666 50.1156C89.73 53.8164 88.4556 60.7284 87.5052 63.486C86.3208 66.9276 83.808 72.7776 83.808 72.7776L94.3704 77.7312C94.3704 77.7312 102.154 52.65 97.4844 48.3552Z" fill="#1C1C1C"/>
<path d="M103.068 50.6124C103.068 50.6124 104.641 51.3684 106.031 52.2252C106.6 52.5762 107.04 53.1027 107.284 53.7254C107.528 54.3481 107.563 55.0332 107.384 55.6776C105.667 61.7472 104.31 68.1084 103.626 71.4564C102.906 75.0204 102.154 78.264 102.154 78.264L98.1936 78.8004C98.1936 78.8004 103.644 55.8756 103.068 50.6124Z" fill="#407BFF"/>
<path opacity="0.2" d="M103.068 50.6124C103.068 50.6124 104.641 51.3684 106.031 52.2252C106.6 52.5762 107.04 53.1027 107.284 53.7254C107.528 54.3481 107.563 55.0332 107.384 55.6776C105.667 61.7472 104.31 68.1084 103.626 71.4564C102.906 75.0204 102.154 78.264 102.154 78.264L98.1936 78.8004C98.1936 78.8004 103.644 55.8756 103.068 50.6124Z" fill="#1C1C1C"/>
<path opacity="0.2" d="M102.816 46.7999C102.645 47.0737 102.489 47.3574 102.352 47.6495C101.581 47.1851 100.789 45.9035 100.976 45.0143C101.035 44.7182 101.127 44.4296 101.25 44.1539L102.816 46.7999Z" fill="#1C1C1C"/>
<path d="M105.037 35.8848C106.952 36.1332 107.654 38.718 106.596 40.4244C104.861 37.908 105.037 35.8848 105.037 35.8848Z" fill="#263238"/>
<path d="M99.0756 40.6512C99.7236 43.4196 99.9576 45.0684 101.617 46.3104C102.152 46.7204 102.789 46.9763 103.459 47.0503C104.128 47.1244 104.806 47.0138 105.417 46.7305C106.029 46.4472 106.551 46.002 106.927 45.4432C107.304 44.8843 107.521 44.2331 107.554 43.56C107.734 40.9716 106.646 36.8784 103.712 36.1368C103.081 35.9588 102.414 35.95 101.779 36.1113C101.143 36.2726 100.561 36.5984 100.091 37.0558C99.6212 37.5133 99.28 38.0864 99.1018 38.7175C98.9235 39.3486 98.9145 40.0155 99.0756 40.6512Z" fill="#FFB573"/>
<path d="M99.9288 43.1172C101.596 43.164 101.336 40.4028 100.609 39.3588C102.92 39.7188 106.751 37.6776 107.136 35.5392C107.694 32.4396 102.967 32.4396 101.437 33.426C102.096 33.4728 102.431 34.0308 102.272 34.3188C102.272 34.3188 99.99 33.6276 98.514 34.4304C99.1584 34.668 99.8424 35.5968 97.3908 35.892C95.058 36.1728 95.7636 38.52 96.9408 38.4768C96.3144 39.438 95.562 41.6232 96.9732 42.552C98.3844 43.4808 99.3492 44.6904 99.0432 45.1872C99.5364 45.1692 100.584 44.5752 99.9288 43.1172Z" fill="#263238"/>
<path d="M97.2756 38.2607C96.1596 38.3687 95.5188 39.2399 95.4756 40.4207C95.9536 39.6073 96.5617 38.8776 97.2756 38.2607Z" fill="#263238"/>
<path d="M98.4096 43.1531C98.6941 43.7213 99.1827 44.1611 99.7776 44.3843C100.559 44.6687 100.969 43.9775 100.768 43.2071C100.584 42.5087 99.9576 41.5259 99.1656 41.5763C98.3736 41.6267 98.064 42.4475 98.4096 43.1531Z" fill="#FFB573"/>
<path d="M103.464 40.8636C103.5 41.0904 103.655 41.256 103.802 41.2236C103.95 41.1912 104.04 41.004 104.004 40.7772C103.968 40.5504 103.813 40.3812 103.662 40.4172C103.511 40.4532 103.424 40.6368 103.464 40.8636Z" fill="#263238"/>
<path d="M106.045 40.518C106.081 40.7448 106.232 40.9104 106.384 40.878C106.535 40.8456 106.621 40.6584 106.585 40.428C106.549 40.1976 106.394 40.0356 106.243 40.068C106.092 40.1004 106.006 40.2876 106.045 40.518Z" fill="#263238"/>
<path d="M105.242 40.7412C105.634 41.401 106.111 42.0063 106.661 42.5412C106.322 42.9696 105.606 42.9012 105.606 42.9012L105.242 40.7412Z" fill="#ED893E"/>
<path d="M104.778 43.6247C104.512 43.6319 104.247 43.5848 103.999 43.4864C103.752 43.388 103.527 43.2404 103.338 43.0523C103.326 43.0397 103.319 43.0229 103.319 43.0055C103.319 42.9882 103.326 42.9714 103.338 42.9587C103.344 42.9523 103.352 42.9472 103.36 42.9437C103.369 42.9403 103.378 42.9385 103.387 42.9385C103.396 42.9385 103.405 42.9403 103.413 42.9437C103.421 42.9472 103.429 42.9523 103.435 42.9587C103.644 43.1608 103.896 43.3118 104.173 43.3999C104.45 43.488 104.743 43.5107 105.03 43.4663C105.04 43.4632 105.05 43.4621 105.06 43.4633C105.07 43.4645 105.079 43.4679 105.088 43.4732C105.096 43.4785 105.104 43.4857 105.109 43.4941C105.114 43.5026 105.118 43.5121 105.119 43.5221C105.121 43.5321 105.12 43.5422 105.117 43.5518C105.114 43.5614 105.109 43.5702 105.102 43.5776C105.095 43.585 105.087 43.5908 105.077 43.5946C105.068 43.5984 105.058 43.6001 105.048 43.5995C104.959 43.615 104.868 43.6234 104.778 43.6247Z" fill="#263238"/>
<path d="M104.058 44.3736C103.843 44.2149 103.662 44.014 103.527 43.7831C103.392 43.5522 103.306 43.2962 103.273 43.0308C103.272 43.0132 103.278 42.9959 103.289 42.9825C103.301 42.9691 103.317 42.9606 103.334 42.9588C103.343 42.9578 103.352 42.9586 103.361 42.9612C103.369 42.9638 103.377 42.9681 103.384 42.9738C103.39 42.9795 103.396 42.9866 103.4 42.9945C103.404 43.0025 103.406 43.0111 103.406 43.02C103.448 43.3073 103.555 43.5814 103.719 43.8214C103.882 44.0615 104.098 44.2614 104.35 44.406C104.357 44.4101 104.364 44.4157 104.37 44.4226C104.375 44.4294 104.379 44.4372 104.381 44.4456C104.384 44.454 104.384 44.4628 104.383 44.4715C104.382 44.4801 104.379 44.4885 104.375 44.496C104.37 44.5038 104.364 44.5107 104.357 44.5162C104.35 44.5216 104.342 44.5257 104.333 44.528C104.325 44.5304 104.315 44.531 104.307 44.5298C104.298 44.5286 104.289 44.5257 104.281 44.5212C104.204 44.4758 104.13 44.4265 104.058 44.3736Z" fill="#263238"/>
<path d="M102.524 40.14C102.503 40.1453 102.481 40.1453 102.46 40.14C102.443 40.132 102.429 40.1209 102.417 40.1072C102.406 40.0936 102.397 40.0777 102.392 40.0605C102.386 40.0434 102.384 40.0253 102.386 40.0074C102.388 39.9895 102.393 39.9722 102.402 39.9564C102.497 39.7635 102.638 39.5969 102.812 39.4714C102.987 39.3458 103.19 39.2651 103.403 39.2364C103.421 39.2349 103.438 39.2371 103.455 39.2426C103.472 39.2482 103.488 39.2572 103.501 39.2689C103.515 39.2807 103.526 39.295 103.534 39.3111C103.541 39.3271 103.546 39.3446 103.547 39.3624C103.548 39.3802 103.546 39.3981 103.541 39.4151C103.535 39.432 103.526 39.4477 103.514 39.4611C103.503 39.4745 103.488 39.4855 103.472 39.4932C103.456 39.501 103.439 39.5055 103.421 39.5064C103.255 39.5301 103.098 39.5932 102.962 39.6903C102.826 39.7874 102.716 39.9157 102.64 40.0644C102.63 40.0868 102.614 40.1059 102.593 40.1194C102.573 40.1328 102.549 40.14 102.524 40.14Z" fill="#263238"/>
<path d="M107.003 39.4848C106.981 39.4854 106.959 39.4805 106.94 39.4704C106.92 39.4603 106.903 39.4455 106.891 39.4272C106.795 39.2825 106.668 39.1618 106.518 39.0744C106.368 38.987 106.2 38.9353 106.027 38.9232C105.995 38.918 105.966 38.9015 105.945 38.8768C105.924 38.852 105.912 38.8206 105.912 38.7882C105.912 38.7558 105.924 38.7244 105.945 38.6996C105.966 38.6749 105.995 38.6584 106.027 38.6532C106.243 38.6653 106.453 38.7276 106.64 38.8351C106.828 38.9426 106.988 39.0923 107.107 39.2724C107.117 39.2868 107.125 39.303 107.129 39.3203C107.133 39.3375 107.133 39.3554 107.13 39.3728C107.127 39.3902 107.121 39.4069 107.111 39.4218C107.102 39.4367 107.089 39.4495 107.075 39.4596C107.054 39.4757 107.029 39.4845 107.003 39.4848Z" fill="#263238"/>
<path d="M94.2984 52.6536C93.5784 53.2404 92.8188 53.892 92.0952 54.5292C91.3716 55.1664 90.6336 55.8216 89.9352 56.4912C88.5456 57.7774 87.2443 59.1557 86.04 60.6168L85.6296 61.1496L85.5792 61.218C85.59 61.2019 85.5997 61.1851 85.608 61.1676C85.6297 61.1273 85.6477 61.0851 85.662 61.0416C85.6894 60.9691 85.704 60.8923 85.7052 60.8148C85.7052 60.6924 85.6836 60.6924 85.7052 60.75C85.7209 60.8607 85.7524 60.9686 85.7988 61.0704C85.9439 61.4103 86.1249 61.7338 86.3388 62.0352C86.5868 62.3992 86.8535 62.7501 87.138 63.0864C87.7176 63.8064 88.3656 64.494 89.046 65.1744C89.7264 65.8548 90.4464 66.5424 91.134 67.1724L91.1808 67.212C91.4841 67.4845 91.6732 67.8616 91.7102 68.2677C91.7472 68.6738 91.6293 69.0788 91.3802 69.4017C91.1312 69.7245 90.7693 69.9413 90.3671 70.0086C89.9649 70.0758 89.5522 69.9886 89.2116 69.7644C87.4058 68.6197 85.7176 67.2993 84.1716 65.8224C83.7792 65.43 83.394 65.0196 83.016 64.566C82.6071 64.0743 82.2455 63.5452 81.936 62.9856C81.7484 62.6415 81.5953 62.2798 81.4788 61.9056C81.3222 61.4018 81.266 60.8722 81.3132 60.3468C81.3427 60.0176 81.4178 59.6941 81.5364 59.3856C81.5986 59.2258 81.672 59.0706 81.756 58.9212L81.8856 58.7088L81.9432 58.6224L82.4112 57.9276C83.6587 56.186 85.0469 54.5497 86.562 53.0352C87.282 52.2864 88.038 51.5556 88.8048 50.85C89.5716 50.1444 90.3312 49.464 91.1772 48.7728C91.6971 48.4649 92.3103 48.354 92.9051 48.4604C93.4999 48.5668 94.0367 48.8834 94.4176 49.3524C94.7985 49.8215 94.9982 50.4118 94.9803 51.0157C94.9624 51.6197 94.728 52.1971 94.32 52.6428L94.2984 52.6536Z" fill="#407BFF"/>
<path opacity="0.2" d="M94.2984 52.6536C93.5784 53.2404 92.8188 53.892 92.0952 54.5292C91.3716 55.1664 90.6336 55.8216 89.9352 56.4912C88.5456 57.7774 87.2443 59.1557 86.04 60.6168L85.6296 61.1496L85.5792 61.218C85.59 61.2019 85.5997 61.1851 85.608 61.1676C85.6297 61.1273 85.6477 61.0851 85.662 61.0416C85.6894 60.9691 85.704 60.8923 85.7052 60.8148C85.7052 60.6924 85.6836 60.6924 85.7052 60.75C85.7209 60.8607 85.7524 60.9686 85.7988 61.0704C85.9439 61.4103 86.1249 61.7338 86.3388 62.0352C86.5868 62.3992 86.8535 62.7501 87.138 63.0864C87.7176 63.8064 88.3656 64.494 89.046 65.1744C89.7264 65.8548 90.4464 66.5424 91.134 67.1724L91.1808 67.212C91.4841 67.4845 91.6732 67.8616 91.7102 68.2677C91.7472 68.6738 91.6293 69.0788 91.3802 69.4017C91.1312 69.7245 90.7693 69.9413 90.3671 70.0086C89.9649 70.0758 89.5522 69.9886 89.2116 69.7644C87.4058 68.6197 85.7176 67.2993 84.1716 65.8224C83.7792 65.43 83.394 65.0196 83.016 64.566C82.6071 64.0743 82.2455 63.5452 81.936 62.9856C81.7484 62.6415 81.5953 62.2798 81.4788 61.9056C81.3222 61.4018 81.266 60.8722 81.3132 60.3468C81.3427 60.0176 81.4178 59.6941 81.5364 59.3856C81.5986 59.2258 81.672 59.0706 81.756 58.9212L81.8856 58.7088L81.9432 58.6224L82.4112 57.9276C83.6587 56.186 85.0469 54.5497 86.562 53.0352C87.282 52.2864 88.038 51.5556 88.8048 50.85C89.5716 50.1444 90.3312 49.464 91.1772 48.7728C91.6971 48.4649 92.3103 48.354 92.9051 48.4604C93.4999 48.5668 94.0367 48.8834 94.4176 49.3524C94.7985 49.8215 94.9982 50.4118 94.9803 51.0157C94.9624 51.6197 94.728 52.1971 94.32 52.6428L94.2984 52.6536Z" fill="#1C1C1C"/>
<path d="M91.6812 67.7664L94.1292 69.264L91.0008 71.046C91.0008 71.046 88.92 69.4908 89.8092 68.4864L90.8532 67.7664C90.9764 67.6863 91.1202 67.6437 91.2672 67.6437C91.4141 67.6437 91.558 67.6863 91.6812 67.7664Z" fill="#FFB573"/>
<path d="M94.2623 72L92.9159 72.792C92.8228 72.8476 92.7194 72.8839 92.6119 72.8987C92.5044 72.9136 92.3951 72.9067 92.2903 72.8785C92.1856 72.8503 92.0875 72.8014 92.0021 72.7345C91.9166 72.6677 91.8454 72.5844 91.7927 72.4896L91.0007 71.0496L94.1291 69.2676L94.6331 71.0676C94.6832 71.2421 94.6739 71.4283 94.6068 71.597C94.5397 71.7658 94.4186 71.9075 94.2623 72Z" fill="#FFB573"/>
<path d="M117.68 46.5768L120.996 45.9252C120.085 47.5308 121.424 49.068 122.627 50.0328C123.199 50.4936 122.796 51.318 121.907 51.4728L119.747 51.8976C117.14 52.4232 117.68 46.5768 117.68 46.5768Z" fill="#407BFF"/>
<path d="M116.363 46.8324L123.966 45.36C125.153 45.1234 126.198 44.4262 126.873 43.421C127.548 42.4158 127.797 41.1844 127.566 39.996C127.328 38.8097 126.63 37.7657 125.625 37.0914C124.621 36.4171 123.39 36.1672 122.202 36.396L114.602 37.8864C113.416 38.1257 112.372 38.8239 111.698 39.8292C111.023 40.8345 110.773 42.0654 111.002 43.254C111.245 44.4361 111.944 45.4748 112.947 46.1447C113.951 46.8147 115.178 47.0618 116.363 46.8324Z" fill="#407BFF"/>
<path opacity="0.3" d="M116.363 46.8324L123.966 45.36C125.153 45.1234 126.198 44.4262 126.873 43.421C127.548 42.4158 127.797 41.1844 127.566 39.996C127.328 38.8097 126.63 37.7657 125.625 37.0914C124.621 36.4171 123.39 36.1672 122.202 36.396L114.602 37.8864C113.416 38.1257 112.372 38.8239 111.698 39.8292C111.023 40.8345 110.773 42.0654 111.002 43.254C111.245 44.4361 111.944 45.4748 112.947 46.1447C113.951 46.8147 115.178 47.0618 116.363 46.8324Z" fill="white"/>
<path d="M137.056 48.384L124.096 48.2112C122.972 48.4308 120.136 33.8868 121.244 33.6672L133.175 28.6272L137.056 48.384Z" fill="#407BFF"/>
<path d="M134.082 38.7036C135.162 44.1612 136.483 48.4956 137.056 48.384C137.628 48.2724 137.225 43.7544 136.152 38.304C135.079 32.8536 133.751 28.512 133.178 28.6236C132.606 28.7352 133.013 33.2424 134.082 38.7036Z" fill="#407BFF"/>
<path opacity="0.3" d="M134.082 38.7036C135.162 44.1612 136.483 48.4956 137.056 48.384C137.628 48.2724 137.225 43.7544 136.152 38.304C135.079 32.8536 133.751 28.512 133.178 28.6236C132.606 28.7352 133.013 33.2424 134.082 38.7036Z" fill="#1C1C1C"/>
<path d="M138.96 38.0304C138.697 36.6948 135.72 36.1512 135.09 36.2772C134.46 36.4032 134.154 37.584 134.413 38.9196C134.672 40.2552 135.403 41.2344 136.037 41.112C136.67 40.9896 139.212 39.3624 138.96 38.0304Z" fill="#407BFF"/>
<path d="M159.007 34.5653L142.144 37.2935L142.206 37.6737L159.069 34.9456L159.007 34.5653Z" fill="#407BFF"/>
<path d="M147.469 27.2847L140.555 33.1798L140.804 33.4729L147.719 27.5778L147.469 27.2847Z" fill="#407BFF"/>
<path d="M150.892 45.5156L150.764 45.8788L153.3 46.7738L153.428 46.4106L150.892 45.5156Z" fill="#407BFF"/>
<path d="M141.704 42.3855L141.581 42.7507L147.998 44.9027L148.121 44.5375L141.704 42.3855Z" fill="#407BFF"/>
</svg>
