<svg width="180" height="180" viewBox="0 0 180 180" fill="none" xmlns="http://www.w3.org/2000/svg">
<path d="M180 137.664H0V137.754H180V137.664Z" fill="#EBEBEB"/>
<path d="M161.964 143.456H150.041V143.546H161.964V143.456Z" fill="#EBEBEB"/>
<path d="M119.239 144.436H116.111V144.526H119.239V144.436Z" fill="#EBEBEB"/>
<path d="M149.681 140.116H142.772V140.206H149.681V140.116Z" fill="#EBEBEB"/>
<path d="M34.4339 140.72H18.8855V140.81H34.4339V140.72Z" fill="#EBEBEB"/>
<path d="M39.9204 140.72H37.6416V140.81H39.9204V140.72Z" fill="#EBEBEB"/>
<path d="M81.0539 142.24H47.3291V142.33H81.0539V142.24Z" fill="#EBEBEB"/>
<path d="M85.32 121.608H15.8076C15.2631 121.607 14.7411 121.39 14.3564 121.005C13.9717 120.619 13.7556 120.097 13.7556 119.552V21.8376C13.7604 21.2962 13.9785 20.7785 14.3627 20.397C14.7469 20.0155 15.2662 19.801 15.8076 19.8H85.32C85.8652 19.8 86.388 20.0166 86.7735 20.4021C87.159 20.7876 87.3756 21.3105 87.3756 21.8556V119.552C87.3756 120.098 87.159 120.62 86.7735 121.006C86.388 121.391 85.8652 121.608 85.32 121.608ZM15.8076 19.872C15.2869 19.873 14.7879 20.0805 14.4201 20.449C14.0522 20.8175 13.8456 21.317 13.8456 21.8376V119.552C13.8456 120.073 14.0522 120.573 14.4201 120.941C14.7879 121.31 15.2869 121.517 15.8076 121.518H85.32C85.841 121.517 86.3404 121.31 86.7089 120.941C87.0773 120.573 87.2847 120.073 87.2856 119.552V21.8376C87.2847 21.3166 87.0773 20.8172 86.7089 20.4488C86.3404 20.0804 85.841 19.873 85.32 19.872H15.8076Z" fill="#EBEBEB"/>
<path d="M163.192 121.608H93.6757C93.1308 121.607 92.6085 121.39 92.2232 121.005C91.838 120.62 91.6211 120.097 91.6201 119.552V21.8376C91.6258 21.2959 91.8448 20.7782 92.2296 20.3968C92.6143 20.0154 93.1339 19.801 93.6757 19.8H163.192C163.733 19.8019 164.251 20.0169 164.634 20.3983C165.018 20.7797 165.235 21.2968 165.24 21.8376V119.552C165.24 120.096 165.025 120.618 164.641 121.003C164.257 121.389 163.736 121.606 163.192 121.608ZM93.6757 19.872C93.1547 19.873 92.6553 20.0804 92.2869 20.4488C91.9185 20.8172 91.7111 21.3166 91.7101 21.8376V119.552C91.7111 120.073 91.9185 120.573 92.2869 120.941C92.6553 121.31 93.1547 121.517 93.6757 121.518H163.192C163.713 121.517 164.212 121.31 164.581 120.941C164.949 120.573 165.156 120.073 165.157 119.552V21.8376C165.156 21.3166 164.949 20.8172 164.581 20.4488C164.212 20.0804 163.713 19.873 163.192 19.872H93.6757Z" fill="#EBEBEB"/>
<path d="M96.4009 137.664H109.037V90.6013H96.4009V137.664Z" fill="#E6E6E6"/>
<path d="M98.5033 137.664H96.4009V133.427H100.71L98.5033 137.664Z" fill="#F0F0F0"/>
<path d="M147.83 137.664H160.466V90.6013H147.83V137.664Z" fill="#E6E6E6"/>
<path d="M96.4009 136.037H149.667V90.6013H96.4009V136.037Z" fill="#F0F0F0"/>
<path d="M98.0352 105.073H148.036V92.6136H98.0352V105.073Z" fill="#E6E6E6"/>
<path d="M120.672 96.48H125.395C127.447 96.48 129.409 94.9428 130.82 92.2284H115.247C116.658 94.95 118.62 96.48 120.672 96.48Z" fill="#F0F0F0"/>
<path d="M147.564 137.664H149.666V133.427H145.357L147.564 137.664Z" fill="#F0F0F0"/>
<path d="M98.0352 119.549H148.036V107.089H98.0352V119.549Z" fill="#E6E6E6"/>
<path d="M120.672 110.959H125.395C127.447 110.959 129.409 109.422 130.82 106.708H115.247C116.658 109.44 118.62 110.959 120.672 110.959Z" fill="#F0F0F0"/>
<path d="M98.0352 134.024H148.036V121.565H98.0352V134.024Z" fill="#E6E6E6"/>
<path d="M120.672 125.435H125.395C127.447 125.435 129.409 123.898 130.82 121.183H115.247C116.658 123.898 118.62 125.435 120.672 125.435Z" fill="#F0F0F0"/>
<path d="M28.0764 79.9272H76.3308V31.1004L28.0764 31.1004L28.0764 79.9272Z" fill="#E6E6E6"/>
<path d="M24.7248 79.9272H75.4417V31.1004L24.7248 31.1004L24.7248 79.9272Z" fill="#F0F0F0"/>
<path d="M71.1973 75.6793V35.3485H28.9801V75.6793H71.1973Z" fill="white"/>
<path d="M49.7952 40.68L42.048 48.4416C40.1759 50.3184 39.1245 52.8611 39.1245 55.512C39.1245 58.1629 40.1759 60.7056 42.048 62.5824L49.7952 70.3332C49.833 70.3711 49.8779 70.4011 49.9273 70.4216C49.9767 70.4421 50.0297 70.4527 50.0832 70.4527C50.1367 70.4527 50.1897 70.4421 50.2391 70.4216C50.2885 70.4011 50.3334 70.3711 50.3712 70.3332L58.122 62.5824C59.9941 60.7056 61.0455 58.1629 61.0455 55.512C61.0455 52.8611 59.9941 50.3184 58.122 48.4416L50.3748 40.68C50.2974 40.6041 50.1933 40.5616 50.085 40.5616C49.9766 40.5616 49.8726 40.6041 49.7952 40.68ZM42.624 61.992C40.9051 60.2684 39.9398 57.9336 39.9398 55.4994C39.9398 53.0652 40.9051 50.7304 42.624 49.0068V61.992ZM57.546 61.992V49.0212C59.2649 50.7448 60.2302 53.0796 60.2302 55.5138C60.2302 57.948 59.2649 60.2828 57.546 62.0064V61.992Z" fill="#F0F0F0"/>
<path d="M146.466 73.8H119.506L117.969 89.7192H144.929L146.466 73.8Z" fill="#E6E6E6"/>
<path d="M144.929 89.7192L144.821 90.6012H117.857L117.968 89.7192H144.929Z" fill="#E6E6E6"/>
<path d="M145.638 73.8H118.678L117.137 89.7192H144.097L145.638 73.8Z" fill="#F0F0F0"/>
<path d="M143.554 88.6824L144.68 74.88C144.683 74.8341 144.677 74.7881 144.661 74.7447C144.646 74.7014 144.622 74.6617 144.591 74.628C144.559 74.5943 144.521 74.5673 144.479 74.5488C144.437 74.5302 144.392 74.5204 144.346 74.52H119.56C119.475 74.5197 119.393 74.5514 119.33 74.6087C119.267 74.6661 119.228 74.745 119.221 74.8296L118.08 88.6284C118.077 88.6746 118.084 88.721 118.099 88.7646C118.115 88.8081 118.139 88.848 118.171 88.8818C118.203 88.9155 118.241 88.9424 118.284 88.9608C118.326 88.9791 118.372 88.9885 118.418 88.9884H143.204C143.291 88.9925 143.376 88.9628 143.441 88.9058C143.506 88.8487 143.546 88.7687 143.554 88.6824Z" fill="white"/>
<path d="M137.074 89.7192L136.966 90.6012H107.276L107.384 89.7192H137.074Z" fill="#F0F0F0"/>
<path d="M100.832 65.2897H151.459V31.6333L100.832 31.6333V65.2897Z" fill="#E6E6E6"/>
<path d="M99.7091 65.2897H150.336V31.6333L99.7091 31.6333V65.2897Z" fill="#F5F5F5"/>
<path d="M148.316 63.0217V33.9049H101.729V63.0217H148.316Z" fill="white"/>
<path d="M102.575 63.018V33.9012H101.725V63.018H102.575Z" fill="#E6E6E6"/>
<path d="M100.544 59.1588L149.501 59.1588V56.1132L100.544 56.1132V59.1588Z" fill="#F5F5F5"/>
<path d="M97.5061 27.8821H153.666C153.748 27.883 153.826 27.9159 153.884 27.9738C153.942 28.0317 153.975 28.1099 153.976 28.1917C153.976 28.2738 153.943 28.3525 153.885 28.4106C153.827 28.4687 153.748 28.5013 153.666 28.5013H97.5061C97.4651 28.5018 97.4245 28.4941 97.3865 28.4788C97.3485 28.4634 97.3139 28.4407 97.2848 28.4119C97.2557 28.3831 97.2326 28.3488 97.2168 28.311C97.201 28.2732 97.1929 28.2326 97.1929 28.1917C97.1938 28.1092 97.2272 28.0305 97.2859 27.9725C97.3445 27.9146 97.4236 27.8821 97.5061 27.8821Z" fill="#E6E6E6"/>
<path d="M96.4187 28.1917C96.4187 28.3453 96.4642 28.4955 96.5495 28.6233C96.6348 28.7511 96.756 28.8508 96.8979 28.9097C97.0398 28.9687 97.196 28.9843 97.3467 28.9546C97.4974 28.9249 97.636 28.8512 97.7449 28.7428C97.8538 28.6344 97.9281 28.4962 97.9585 28.3456C97.9889 28.195 97.974 28.0387 97.9157 27.8966C97.8574 27.7544 97.7583 27.6327 97.6309 27.5469C97.5035 27.461 97.3535 27.4148 97.1999 27.4141C97.0975 27.4136 96.996 27.4334 96.9012 27.4722C96.8065 27.5111 96.7203 27.5683 96.6477 27.6405C96.5751 27.7128 96.5175 27.7987 96.4782 27.8933C96.4389 27.9878 96.4187 28.0892 96.4187 28.1917Z" fill="#E6E6E6"/>
<path d="M151.038 29.9341C151.148 29.9341 151.255 29.8907 151.333 29.8132C151.412 29.7358 151.457 29.6305 151.459 29.5201V28.6201C151.459 28.5083 151.415 28.4012 151.336 28.3222C151.257 28.2432 151.15 28.1989 151.038 28.1989C150.983 28.1989 150.928 28.2098 150.877 28.231C150.826 28.2522 150.78 28.2833 150.741 28.3224C150.703 28.3616 150.672 28.4081 150.651 28.4591C150.63 28.5102 150.62 28.5649 150.62 28.6201V29.5201C150.622 29.6299 150.667 29.7346 150.745 29.812C150.823 29.8893 150.928 29.9331 151.038 29.9341Z" fill="#E6E6E6"/>
<path d="M102.193 29.9341C102.301 29.9295 102.403 29.8842 102.478 29.8074C102.554 29.7305 102.597 29.6278 102.6 29.5201V28.6201C102.6 28.5083 102.556 28.4012 102.477 28.3222C102.398 28.2432 102.291 28.1989 102.179 28.1989C102.124 28.1989 102.069 28.2098 102.018 28.231C101.967 28.2522 101.921 28.2833 101.882 28.3224C101.843 28.3616 101.813 28.4081 101.792 28.4591C101.771 28.5102 101.761 28.5649 101.761 28.6201V29.5201C101.762 29.5757 101.774 29.6306 101.796 29.6815C101.819 29.7325 101.851 29.7786 101.891 29.8171C101.931 29.8556 101.979 29.8857 102.03 29.9058C102.082 29.9259 102.138 29.9355 102.193 29.9341Z" fill="#E6E6E6"/>
<path opacity="0.4" d="M97.6067 60.8905L149.501 60.8905V28.1917L97.6067 28.1917V60.8905Z" fill="#E0E0E0"/>
<path d="M145.264 28.1917C145.264 28.3455 145.309 28.4958 145.395 28.6237C145.48 28.7515 145.602 28.8512 145.744 28.9101C145.886 28.9689 146.042 28.9843 146.193 28.9543C146.344 28.9243 146.482 28.8503 146.591 28.7415C146.7 28.6328 146.774 28.4942 146.804 28.3434C146.834 28.1925 146.819 28.0362 146.76 27.8941C146.701 27.752 146.601 27.6306 146.473 27.5451C146.345 27.4597 146.195 27.4141 146.041 27.4141C145.835 27.4141 145.637 27.496 145.491 27.6418C145.346 27.7876 145.264 27.9854 145.264 28.1917Z" fill="#E6E6E6"/>
<path d="M71.8201 135.331H75.9817V99.2341H71.8201V135.331Z" fill="#F0F0F0"/>
<path d="M26.6761 137.617H74.3833V135.331H26.6761V137.617Z" fill="#F0F0F0"/>
<path d="M71.82 99.234H25.0776V135.331H71.82V99.234Z" fill="#F5F5F5"/>
<path d="M65.9845 103.676H30.9133C29.4977 103.676 28.3501 104.824 28.3501 106.24V112.95C28.3501 114.366 29.4977 115.513 30.9133 115.513H65.9845C67.4001 115.513 68.5477 114.366 68.5477 112.95V106.24C68.5477 104.824 67.4001 103.676 65.9845 103.676Z" fill="#F0F0F0"/>
<path d="M65.9845 119.048H30.9133C29.4977 119.048 28.3501 120.196 28.3501 121.612V128.322C28.3501 129.738 29.4977 130.885 30.9133 130.885H65.9845C67.4001 130.885 68.5477 129.738 68.5477 128.322V121.612C68.5477 120.196 67.4001 119.048 65.9845 119.048Z" fill="#F0F0F0"/>
<path d="M39.7404 110.408H57.1572C57.3723 110.408 57.5787 110.323 57.7312 110.171C57.8837 110.02 57.9698 109.814 57.9708 109.598C57.9698 109.383 57.8838 109.177 57.7314 109.024C57.579 108.872 57.3727 108.786 57.1572 108.785H39.7404C39.5249 108.786 39.3185 108.872 39.1661 109.024C39.0137 109.177 38.9277 109.383 38.9268 109.598C38.9277 109.814 39.0138 110.02 39.1663 110.171C39.3188 110.323 39.5252 110.408 39.7404 110.408Z" fill="#F5F5F5"/>
<path d="M39.7404 125.78H57.1572C57.3723 125.78 57.5787 125.695 57.7312 125.543C57.8837 125.392 57.9698 125.186 57.9708 124.97C57.9698 124.755 57.8838 124.549 57.7314 124.396C57.579 124.244 57.3727 124.158 57.1572 124.157H39.7404C39.5249 124.158 39.3185 124.244 39.1661 124.396C39.0137 124.549 38.9277 124.755 38.9268 124.97C38.9277 125.186 39.0138 125.392 39.1663 125.543C39.3188 125.695 39.5252 125.78 39.7404 125.78Z" fill="#F5F5F5"/>
<path d="M90.0001 153.922C128.55 153.922 159.801 152.097 159.801 149.846C159.801 147.596 128.55 145.771 90.0001 145.771C51.4504 145.771 20.1997 147.596 20.1997 149.846C20.1997 152.097 51.4504 153.922 90.0001 153.922Z" fill="#F5F5F5"/>
<path d="M105.426 36.522H38.8979L44.0675 127.123H110.592L105.426 36.522Z" fill="#263238"/>
<path d="M106.718 36.522H40.1904L45.36 127.123H111.888L106.718 36.522Z" fill="#407BFF"/>
<path opacity="0.5" d="M102.136 39.5676H43.2324L47.4552 121.579H107.888L102.136 39.5676Z" fill="#1C1C1C"/>
<path d="M43.2324 39.5676C47.61 66.906 44.6076 94.2444 48.9924 121.579H109.418C105.041 94.2444 108.043 66.906 103.658 39.5676H43.2324Z" fill="white"/>
<g opacity="0.3">
<path d="M55.5875 64.1412C56.922 64.1519 58.2014 64.6743 59.162 65.6007C60.1226 66.5271 60.691 67.7868 60.7499 69.12C60.7768 69.7613 60.6729 70.4014 60.4446 71.0013C60.2162 71.6012 59.8681 72.1483 59.4215 72.6094C58.9749 73.0704 58.4392 73.4358 57.8469 73.6832C57.2546 73.9306 56.6182 74.0549 55.9763 74.0484C54.6501 74.0375 53.379 73.5165 52.4265 72.5935C51.4741 71.6706 50.9134 70.4164 50.8607 69.0912C50.833 68.4518 50.9344 67.8133 51.1589 67.214C51.3835 66.6146 51.7265 66.0666 52.1675 65.6028C52.6099 65.1432 53.1413 64.7784 53.7293 64.5309C54.3173 64.2833 54.9496 64.1581 55.5875 64.1628M55.5515 63.1224C54.7756 63.1176 54.0068 63.271 53.2921 63.5734C52.5775 63.8759 51.9321 64.3208 51.3953 64.8812C50.8585 65.4416 50.4416 66.1056 50.1702 66.8325C49.8988 67.5595 49.7785 68.3342 49.8167 69.1092C49.8796 70.7092 50.5559 72.2237 51.7055 73.3384C52.855 74.4531 54.3895 75.0825 55.9907 75.096C56.7702 75.1025 57.543 74.9506 58.2621 74.6497C58.9812 74.3488 59.6317 73.905 60.1743 73.3452C60.7168 72.7855 61.1401 72.1215 61.4185 71.3934C61.6969 70.6652 61.8247 69.8882 61.7939 69.1092C61.7166 67.5023 61.0264 65.986 59.8652 64.8724C58.7041 63.7588 57.1603 63.1325 55.5515 63.1224Z" fill="#407BFF"/>
</g>
<path d="M88.9991 109.051H69.9191C69.7764 109.049 69.6348 109.077 69.5037 109.133C69.3727 109.19 69.2552 109.274 69.1591 109.38C69.0631 109.485 68.9906 109.61 68.9466 109.746C68.9026 109.882 68.8881 110.025 68.9039 110.167C68.9387 110.471 69.0822 110.751 69.3079 110.957C69.5335 111.163 69.8262 111.28 70.1315 111.287H89.2115C89.3544 111.289 89.4961 111.261 89.6271 111.204C89.7581 111.148 89.8754 111.063 89.971 110.957C90.0666 110.851 90.1382 110.725 90.1811 110.589C90.224 110.453 90.2371 110.309 90.2195 110.167C90.1856 109.865 90.0433 109.585 89.8188 109.38C89.5944 109.175 89.3032 109.058 88.9991 109.051Z" fill="#E0E0E0"/>
<path d="M99.2052 104.353H69.534C69.3904 104.351 69.2478 104.378 69.1157 104.434C68.9836 104.491 68.8649 104.574 68.7673 104.68C68.6697 104.785 68.5955 104.91 68.5496 105.046C68.5037 105.182 68.487 105.326 68.5008 105.469C68.5266 105.772 68.664 106.054 68.8862 106.261C69.1084 106.468 69.3996 106.585 69.7032 106.589H99.36C99.5038 106.593 99.6468 106.567 99.7797 106.511C99.9126 106.456 100.032 106.374 100.131 106.269C100.23 106.164 100.305 106.04 100.352 105.904C100.399 105.768 100.417 105.623 100.404 105.48C100.381 105.177 100.245 104.893 100.023 104.684C99.8012 104.476 99.5095 104.358 99.2052 104.353Z" fill="#E0E0E0"/>
<g opacity="0.3">
<path d="M56.196 83.5199C57.5206 83.5294 58.7903 84.0505 59.7397 84.9743C60.689 85.8982 61.2445 87.1533 61.29 88.4771C61.3143 89.118 61.2091 89.7572 60.9809 90.3566C60.7527 90.9559 60.406 91.5031 59.9616 91.9655C59.5169 92.4261 58.983 92.7913 58.3925 93.0389C57.8021 93.2865 57.1674 93.4112 56.5272 93.4055C55.1994 93.3964 53.926 92.8764 52.9715 91.9533C52.0169 91.0303 51.4544 89.7751 51.4008 88.4483C51.3789 87.8065 51.487 87.1668 51.7186 86.5678C51.9501 85.9687 52.3004 85.4227 52.7482 84.9624C53.1961 84.5021 53.7324 84.137 54.3248 83.8891C54.9173 83.6413 55.5538 83.5157 56.196 83.5199ZM56.196 82.4759C55.416 82.4711 54.643 82.6239 53.9235 82.9252C53.2039 83.2264 52.5526 83.6699 52.0087 84.2289C51.4647 84.788 51.0393 85.4512 50.7579 86.1787C50.4765 86.9063 50.345 87.6831 50.3712 88.4627C50.4351 90.0671 51.1151 91.5851 52.2698 92.7008C53.4244 93.8166 54.9648 94.4442 56.5704 94.4531C57.3481 94.4562 58.1184 94.3017 58.8348 93.999C59.5512 93.6964 60.1989 93.2517 60.7388 92.692C61.2787 92.1322 61.6996 91.4689 61.9763 90.742C62.2529 90.0152 62.3795 89.2398 62.3484 88.4627C62.2945 86.8635 61.6239 85.3471 60.4771 84.2311C59.3303 83.1152 57.7961 82.4862 56.196 82.4759Z" fill="#407BFF"/>
</g>
<path d="M78.408 67.8563H68.202C67.9021 67.8538 67.6147 67.7363 67.3989 67.5279C67.1832 67.3196 67.0557 67.0364 67.0428 66.7367C67.038 66.5919 67.0624 66.4476 67.1145 66.3124C67.1666 66.1772 67.2454 66.0538 67.3461 65.9497C67.4469 65.8455 67.5676 65.7628 67.7011 65.7062C67.8345 65.6497 67.9779 65.6206 68.1228 65.6207H78.3252C78.6253 65.6231 78.9131 65.7399 79.1299 65.9473C79.3466 66.1547 79.476 66.4371 79.4916 66.7367C79.497 66.8822 79.4729 67.0272 79.4208 67.163C79.3687 67.2989 79.2896 67.4229 79.1884 67.5274C79.0872 67.632 78.9659 67.715 78.8318 67.7716C78.6977 67.8281 78.5536 67.8569 78.408 67.8563Z" fill="#E0E0E0"/>
<path d="M90.1872 67.8563H83.2752C82.975 67.8539 82.6871 67.7364 82.4708 67.5282C82.2545 67.3199 82.1262 67.0367 82.1124 66.7367C82.1076 66.5919 82.132 66.4476 82.1841 66.3124C82.2362 66.1772 82.315 66.0538 82.4157 65.9497C82.5165 65.8455 82.6372 65.7628 82.7706 65.7062C82.9041 65.6497 83.0475 65.6206 83.1924 65.6207H90.108C90.4077 65.6231 90.6951 65.7401 90.9113 65.9476C91.1275 66.1551 91.2561 66.4374 91.2708 66.7367C91.2762 66.8822 91.252 67.0272 91.1999 67.163C91.1478 67.2989 91.0688 67.4229 90.9676 67.5274C90.8664 67.632 90.7451 67.715 90.611 67.7716C90.4769 67.8281 90.3327 67.8569 90.1872 67.8563Z" fill="#E0E0E0"/>
<path d="M95.76 72.5543H68.364C68.0642 72.5527 67.7766 72.4353 67.5613 72.2267C67.3459 72.0181 67.2195 71.7343 67.2084 71.4347C67.2035 71.2899 67.2279 71.1456 67.28 71.0104C67.3321 70.8751 67.4109 70.7518 67.5117 70.6477C67.6124 70.5435 67.7331 70.4608 67.8666 70.4042C68 70.3477 68.1435 70.3186 68.2884 70.3187H95.6808C95.9796 70.3204 96.2663 70.4374 96.4809 70.6453C96.6956 70.8533 96.8216 71.1361 96.8328 71.4347C96.8381 71.5792 96.8143 71.7234 96.7629 71.8585C96.7114 71.9937 96.6333 72.1171 96.5333 72.2215C96.4332 72.326 96.3132 72.4092 96.1804 72.4664C96.0476 72.5236 95.9046 72.5535 95.76 72.5543Z" fill="#E0E0E0"/>
<g opacity="0.3">
<path d="M56.9772 102.874C58.3201 102.9 59.6062 103.421 60.5892 104.336C61.5722 105.251 62.1832 106.497 62.3052 107.834C62.3698 108.461 62.3037 109.094 62.1109 109.694C61.9182 110.294 61.6032 110.847 61.1856 111.319C60.7646 111.783 60.2494 112.151 59.6745 112.4C59.0996 112.648 58.4782 112.771 57.852 112.759C56.4975 112.737 55.1976 112.221 54.1966 111.309C53.1956 110.396 52.5624 109.149 52.416 107.802C52.3543 107.171 52.4269 106.533 52.6292 105.932C52.8315 105.331 53.1588 104.779 53.5896 104.314C54.0231 103.851 54.5483 103.484 55.1316 103.236C55.7149 102.988 56.3435 102.865 56.9772 102.874ZM56.9268 101.833C56.1559 101.818 55.3904 101.966 54.6806 102.268C53.9709 102.569 53.3328 103.017 52.8084 103.582C52.2839 104.148 51.8848 104.817 51.6372 105.548C51.3897 106.278 51.2993 107.052 51.372 107.82C51.6492 111.125 54.648 113.807 57.9528 113.807C61.2576 113.807 63.6264 111.125 63.3528 107.82C63.21 106.205 62.475 104.701 61.2894 103.595C60.1037 102.49 58.5511 101.862 56.9304 101.833H56.9268Z" fill="#407BFF"/>
</g>
<path d="M100.44 89.6868H68.8284C68.6835 89.6867 68.5401 89.7158 68.4066 89.7723C68.2732 89.8289 68.1525 89.9116 68.0517 90.0158C67.9509 90.1199 67.8722 90.2432 67.82 90.3785C67.7679 90.5137 67.7436 90.658 67.7484 90.8028C67.7613 91.1015 67.8884 91.3838 68.1034 91.5915C68.3185 91.7992 68.6051 91.9163 68.904 91.9188H100.53C100.675 91.9189 100.818 91.8898 100.952 91.8333C101.085 91.7768 101.206 91.694 101.307 91.5899C101.407 91.4857 101.486 91.3624 101.538 91.2272C101.59 91.092 101.615 90.9477 101.61 90.8028C101.599 90.5011 101.47 90.2156 101.252 90.0072C101.033 89.7987 100.742 89.6838 100.44 89.6868Z" fill="#E0E0E0"/>
<path d="M92.9484 84.9852H68.6916C68.5463 84.9851 68.4026 85.0143 68.2689 85.0711C68.1352 85.1278 68.0144 85.2109 67.9135 85.3154C67.8127 85.4199 67.734 85.5437 67.6821 85.6794C67.6302 85.815 67.6062 85.9597 67.6116 86.1048C67.6218 86.4032 67.7471 86.686 67.9611 86.894C68.1752 87.102 68.4615 87.2191 68.76 87.2208H93.0204C93.1653 87.2209 93.3087 87.1918 93.4421 87.1353C93.5756 87.0788 93.6963 86.996 93.7971 86.8919C93.8978 86.7878 93.9766 86.6644 94.0287 86.5292C94.0808 86.394 94.1052 86.2497 94.1004 86.1048C94.0919 85.8049 93.9668 85.5202 93.7517 85.3111C93.5366 85.102 93.2484 84.9851 92.9484 84.9852Z" fill="#E0E0E0"/>
<path d="M56.1348 72.6192L55.71 71.9208C54.7776 70.398 52.83 69.0408 52.1604 68.6412L52.6644 67.7484C53.9867 68.5488 55.1648 69.5662 56.1492 70.758C57.6792 68.7024 59.9148 66.5892 62.9424 64.3068L63.594 65.1492C60.354 67.5864 58.0572 69.8292 56.5848 71.964C56.4372 72.1836 56.286 72.4032 56.1348 72.6192Z" fill="#407BFF"/>
<path d="M56.6747 91.9871C56.5343 91.7531 56.3903 91.5191 56.2463 91.2887C55.3103 89.7659 53.3663 88.4087 52.7039 88.0055L53.2151 87.1127C54.5306 87.9154 55.7024 88.9326 56.6819 90.1223C58.2155 88.0703 60.4691 85.9535 63.5435 83.6711L64.1807 84.5135C60.8975 86.9507 58.5863 89.1935 57.1211 91.3283L56.6747 91.9871Z" fill="#407BFF"/>
<path d="M57.9095 111.398L57.4343 110.7C56.3975 109.177 54.3887 107.82 53.6975 107.42L54.1655 106.528C55.5259 107.334 56.7515 108.348 57.7979 109.534C59.2091 107.482 61.3547 105.365 64.3355 103.086L65.0087 103.928C61.8263 106.366 59.6411 108.608 58.3127 110.743L57.9095 111.398Z" fill="#407BFF"/>
<path d="M80.6759 46.4399C80.0423 47.8223 79.3931 49.2035 78.7283 50.5835C80.0987 51.2652 81.2705 52.2884 82.1306 53.5546C82.9906 54.8207 83.51 56.2871 83.6387 57.8123H88.4231C88.1063 52.9199 84.9599 48.6611 80.6759 46.4399Z" fill="#407BFF"/>
<path d="M62.449 57.8196H67.2334C67.1161 56.4663 67.3627 55.1063 67.9475 53.8803C68.5324 52.6543 69.4343 51.6068 70.5598 50.8464C69.6286 49.464 68.683 48.0816 67.723 46.6992C64.231 48.96 62.143 53.1036 62.449 57.8196Z" fill="#263238"/>
<path d="M74.2031 44.8343C71.9076 44.8116 69.6555 45.4597 67.7231 46.6991C68.6831 48.0815 69.6287 49.4639 70.5599 50.8463C71.8072 50.0312 73.2676 49.6029 74.7575 49.6151C76.1361 49.6231 77.4931 49.9574 78.7175 50.5907C79.3799 49.2083 80.0291 47.8271 80.6651 46.4471C78.6707 45.4016 76.455 44.8486 74.2031 44.8343Z" fill="#407BFF"/>
<path opacity="0.5" d="M74.2031 44.8343C71.9076 44.8116 69.6555 45.4597 67.7231 46.6991C68.6831 48.0815 69.6287 49.4639 70.5599 50.8463C71.8072 50.0312 73.2676 49.6029 74.7575 49.6151C76.1361 49.6231 77.4931 49.9574 78.7175 50.5907C79.3799 49.2083 80.0291 47.8271 80.6651 46.4471C78.6707 45.4016 76.455 44.8486 74.2031 44.8343Z" fill="#263238"/>
<path d="M65.52 51.8688C65.5235 51.903 65.5198 51.9376 65.5091 51.9703C65.4984 52.0029 65.481 52.033 65.4579 52.0584C65.4348 52.0839 65.4066 52.1042 65.3751 52.1181C65.3436 52.1319 65.3096 52.139 65.2752 52.1388C65.2013 52.1383 65.1303 52.1104 65.0757 52.0605C65.0212 52.0106 64.9871 51.9424 64.98 51.8688C64.9759 51.8345 64.9792 51.7997 64.9896 51.7668C65.0001 51.7338 65.0176 51.7035 65.0408 51.6779C65.064 51.6523 65.0924 51.632 65.1242 51.6184C65.1559 51.6047 65.1902 51.598 65.2248 51.5988C65.2987 51.5994 65.3697 51.6273 65.4243 51.6771C65.4788 51.727 65.5129 51.7953 65.52 51.8688Z" fill="#263238"/>
<path d="M66.8088 51.8688C66.813 51.9031 66.8097 51.9379 66.7992 51.9709C66.7887 52.0038 66.7713 52.0341 66.748 52.0597C66.7248 52.0853 66.6964 52.1056 66.6646 52.1193C66.6329 52.1329 66.5986 52.1396 66.564 52.1388C66.4906 52.1367 66.4204 52.1083 66.3662 52.0587C66.312 52.0092 66.2774 51.9418 66.2688 51.8688C66.2647 51.8345 66.268 51.7997 66.2785 51.7668C66.2889 51.7338 66.3064 51.7035 66.3296 51.6779C66.3528 51.6523 66.3813 51.632 66.413 51.6184C66.4448 51.6047 66.4791 51.598 66.5136 51.5988C66.5877 51.5985 66.6592 51.6262 66.7139 51.6762C66.7686 51.7262 66.8025 51.795 66.8088 51.8688Z" fill="#263238"/>
<path d="M92.4264 39.8016C91.3032 37.4364 88.6824 35.8704 85.8564 35.8704H80.0964C79.7009 35.8878 79.3078 35.8005 78.957 35.6171C78.6061 35.4338 78.3099 35.161 78.0984 34.8264C77.2956 33.3216 75.3804 32.2488 73.206 32.2488C71.0316 32.2488 69.246 33.3288 68.6124 34.8264C68.3496 35.46 67.5972 35.8704 66.7332 35.8704H60.9732C58.1472 35.8704 55.7028 37.4364 54.8532 39.8016C54.8217 39.8841 54.8094 39.9728 54.8172 40.0608C54.8265 40.2454 54.9064 40.4194 55.0404 40.5468C55.1744 40.6741 55.3523 40.745 55.5372 40.7448H91.854C91.965 40.745 92.0742 40.7166 92.1709 40.6623C92.2677 40.608 92.3488 40.5296 92.4064 40.4347C92.4639 40.3398 92.496 40.2317 92.4996 40.1208C92.5031 40.0099 92.4779 39.8999 92.4264 39.8016ZM73.44 36.522C73.0104 36.5131 72.5996 36.3438 72.2884 36.0473C71.9773 35.7509 71.7884 35.3487 71.7588 34.92C71.7444 34.7135 71.7729 34.5063 71.8426 34.3113C71.9122 34.1164 72.0216 33.9381 72.1636 33.7875C72.3057 33.637 72.4775 33.5176 72.668 33.4367C72.8586 33.3559 73.0638 33.3155 73.2708 33.318C73.7032 33.3224 74.118 33.4899 74.4324 33.7869C74.7467 34.0839 74.9374 34.4885 74.9664 34.92C74.981 35.1277 74.9521 35.3362 74.8815 35.5321C74.811 35.728 74.7004 35.907 74.5567 36.0578C74.4131 36.2086 74.2396 36.3277 74.0473 36.4076C73.855 36.4875 73.6482 36.5265 73.44 36.522Z" fill="#263238"/>
<path d="M129.751 147.28C129.47 147.314 129.185 147.244 128.952 147.082C128.921 147.044 128.903 146.997 128.898 146.949C128.894 146.9 128.904 146.851 128.927 146.808C128.944 146.771 128.97 146.738 129.002 146.713C129.033 146.687 129.071 146.669 129.111 146.66C129.535 146.542 130.518 147.067 130.551 147.092C130.563 147.098 130.573 147.107 130.579 147.119C130.586 147.13 130.588 147.144 130.587 147.157C130.586 147.169 130.581 147.181 130.574 147.19C130.566 147.199 130.555 147.205 130.543 147.208C130.282 147.254 130.017 147.278 129.751 147.28ZM129.276 146.768C129.237 146.762 129.197 146.762 129.157 146.768C129.133 146.773 129.11 146.783 129.09 146.798C129.07 146.813 129.053 146.832 129.042 146.855C129.006 146.934 129.042 146.974 129.042 146.995C129.186 147.164 129.856 147.168 130.338 147.1C130.007 146.926 129.647 146.814 129.276 146.768Z" fill="#407BFF"/>
<path d="M130.543 147.208H130.518C130.183 147.064 129.485 146.488 129.499 146.192C129.499 146.12 129.542 146.034 129.715 146.016C129.845 146.005 129.973 146.044 130.075 146.124C130.345 146.406 130.527 146.76 130.601 147.143C130.605 147.152 130.608 147.162 130.608 147.172C130.608 147.182 130.605 147.191 130.601 147.2C130.593 147.206 130.583 147.21 130.573 147.211C130.563 147.213 130.553 147.211 130.543 147.208ZM129.776 146.128H129.74C129.629 146.128 129.625 146.182 129.625 146.196C129.625 146.376 130.097 146.826 130.446 147.02C130.378 146.713 130.224 146.431 130.003 146.207C129.938 146.158 129.858 146.132 129.776 146.135V146.128Z" fill="#407BFF"/>
<path d="M133.445 147.146H130.799L129.852 141.019H132.498L133.445 147.146Z" fill="#FFC3BD"/>
<path d="M130.781 146.84H133.661C133.715 146.842 133.768 146.86 133.812 146.892C133.855 146.924 133.888 146.969 133.906 147.02L134.691 149.371C134.707 149.424 134.711 149.48 134.703 149.534C134.695 149.589 134.674 149.641 134.642 149.686C134.611 149.731 134.569 149.769 134.52 149.795C134.472 149.822 134.418 149.837 134.363 149.839C133.319 149.839 131.807 149.764 130.497 149.764C128.967 149.764 129.103 149.846 127.307 149.846C126.227 149.846 125.799 148.748 126.227 148.648C128.247 148.198 128.481 148.147 130.144 147.046C130.33 146.913 130.553 146.842 130.781 146.84Z" fill="#263238"/>
<path opacity="0.2" d="M129.852 141.023L130.342 144.18H132.988L132.498 141.023H129.852Z" fill="#1C1C1C"/>
<path d="M133.143 81.162L131.343 82.98L134.1 83.9556C134.1 83.9556 135.18 82.4724 134.421 81.4572L133.143 81.162Z" fill="#FFC3BD"/>
<path d="M130.738 85.5216L133.492 85.9248L134.107 83.9556L131.35 82.98L130.738 85.5216Z" fill="#FFC3BD"/>
<path d="M134.345 58.7772C134.579 59.2812 134.766 59.7096 134.953 60.1776C135.14 60.6456 135.313 61.0956 135.493 61.5564C135.835 62.4816 136.141 63.4248 136.426 64.3788C136.715 65.344 136.955 66.3233 137.146 67.3128L137.282 68.0688L137.394 68.8392C137.434 69.0948 137.459 69.3612 137.48 69.624C137.502 69.8868 137.538 70.1244 137.538 70.4556V70.9236V71.3376L137.516 71.7444L137.477 72.1296C137.43 72.648 137.362 73.134 137.297 73.6272C137.153 74.5992 136.987 75.5496 136.804 76.5072C136.422 78.39 136.004 80.2296 135.5 82.0836L132.221 81.4356C132.43 79.6068 132.646 77.7492 132.818 75.9204C132.901 75.006 132.991 74.0952 133.042 73.2024C133.063 72.7632 133.088 72.3168 133.088 71.8956V71.5788V71.2872V70.9956L133.063 70.758C133.047 70.5684 133.02 70.3797 132.984 70.1928C132.952 69.9912 132.923 69.7896 132.876 69.5844L132.743 68.9688L132.588 68.3496C132.365 67.5216 132.113 66.69 131.825 65.8584C131.537 65.0268 131.216 64.1988 130.878 63.378C130.712 62.964 130.54 62.5536 130.36 62.1504C130.18 61.7472 130 61.326 129.823 60.9768L134.345 58.7772Z" fill="#263238"/>
<path d="M121.914 79.8733C121.914 79.8733 122.353 100.12 123.541 108.184C124.78 116.572 129.301 143.568 129.301 143.568H133.78C133.78 143.568 132.174 117.875 131.663 109.62C131.105 100.62 131.227 79.8733 131.227 79.8733H121.914Z" fill="#407BFF"/>
<path d="M128.225 141.782C128.203 141.782 128.686 143.644 128.686 143.644H134.136L134.096 141.984L128.225 141.782Z" fill="#263238"/>
<path d="M120.905 47.0517C120.919 46.8275 120.811 46.6384 120.664 46.6293C120.517 46.6203 120.387 46.7948 120.373 47.019C120.359 47.2433 120.467 47.4324 120.614 47.4414C120.761 47.4504 120.891 47.276 120.905 47.0517Z" fill="#263238"/>
<path d="M120.795 47.4408C120.503 48.1271 120.12 48.7713 119.657 49.356C119.808 49.4658 119.982 49.5409 120.165 49.5757C120.349 49.6106 120.538 49.6044 120.719 49.5576L120.795 47.4408Z" fill="#ED847E"/>
<path d="M121.745 45.792C121.717 45.7921 121.69 45.7846 121.666 45.7704C121.537 45.6691 121.386 45.6004 121.224 45.5704C121.063 45.5403 120.897 45.5496 120.741 45.5977C120.725 45.604 120.707 45.6071 120.69 45.6067C120.673 45.6063 120.656 45.6025 120.64 45.5954C120.624 45.5884 120.61 45.5783 120.598 45.5657C120.587 45.5531 120.577 45.5382 120.571 45.522C120.566 45.5055 120.563 45.488 120.564 45.4705C120.566 45.4531 120.57 45.436 120.578 45.4203C120.585 45.4046 120.596 45.3905 120.609 45.379C120.622 45.3674 120.638 45.3585 120.654 45.3529C120.851 45.2887 121.061 45.2735 121.266 45.3086C121.47 45.3437 121.663 45.4281 121.828 45.5545C121.855 45.5758 121.873 45.6069 121.878 45.6411C121.882 45.6754 121.873 45.7102 121.853 45.7381C121.84 45.7547 121.824 45.7682 121.805 45.7776C121.787 45.787 121.766 45.7919 121.745 45.792Z" fill="#263238"/>
<path d="M127.908 49.5072C127.462 51.444 126.958 54.99 128.268 56.2788C128.268 56.2788 127.671 58.2408 124.074 58.2408C120.114 58.2408 122.256 56.2788 122.256 56.2788C124.416 55.764 124.434 54.1656 124.11 52.6608L127.908 49.5072Z" fill="#FFC3BD"/>
<path d="M129.661 57.186C130.05 56.3976 130.478 55.4904 129.661 55.2096C128.768 54.8964 123.833 54.5796 122.101 55.1628C121.639 55.2807 121.242 55.5776 120.998 55.988C120.754 56.3985 120.684 56.889 120.802 57.3516L129.661 57.186Z" fill="#407BFF"/>
<path d="M133.449 57.0384C135.727 58.0896 136.887 66.06 136.887 66.06L132.297 67.5C131.477 65.3912 130.811 63.2254 130.306 61.02C129.6 57.6936 131.116 55.9656 133.449 57.0384Z" fill="#263238"/>
<path d="M105.239 69.4405L103.122 67.6189L101.218 70.3909C101.218 70.3909 102.928 71.7625 104.818 71.2009L105.239 69.4405Z" fill="#FFC3BD"/>
<path d="M100.332 66.7368L100.041 69.4764L101.218 70.3908L103.122 67.6188L100.332 66.7368Z" fill="#FFC3BD"/>
<path d="M128.394 46.5589C128.128 49.3093 128.11 50.9293 126.67 52.3405C126.206 52.7999 125.626 53.1245 124.992 53.2797C124.358 53.4348 123.693 53.4146 123.07 53.2212C122.446 53.0277 121.887 52.6684 121.452 52.1816C121.017 51.6948 120.723 51.0989 120.6 50.4577C120.096 47.9881 120.6 43.9057 123.347 42.8113C123.932 42.5592 124.572 42.4652 125.205 42.5387C125.837 42.6123 126.439 42.8508 126.951 43.2304C127.462 43.61 127.864 44.1174 128.118 44.7015C128.371 45.2857 128.466 45.9262 128.394 46.5589Z" fill="#FFC3BD"/>
<path d="M122.76 47.4408C122.519 45.54 122.559 44.82 123.574 44.3988C122.519 44.19 121.605 44.1612 121.169 43.5456C120.733 42.93 120.629 41.3568 122.746 40.6368C122.551 40.9968 123.167 41.7456 125.115 41.0688C127.062 40.392 129.899 40.32 130.155 42.3C131.184 41.94 132.909 45.1188 130.875 47.4408C129.179 49.3848 128.049 50.7276 127.714 51.7608C127.698 51.8092 127.672 51.8538 127.638 51.8915C127.604 51.9292 127.562 51.9593 127.516 51.9797C127.469 52.0001 127.419 52.0104 127.368 52.0099C127.317 52.0094 127.267 51.9981 127.221 51.9768C126.519 51.6492 125.262 51.93 124.701 52.0812C124.622 52.1018 124.538 52.0947 124.463 52.0614C124.389 52.028 124.328 51.9703 124.29 51.8976C123.927 51.1488 122.944 49.0104 122.76 47.4408Z" fill="#263238"/>
<path d="M129.773 42.5412C129.773 42.5412 130.608 41.364 132.21 42.2388C131.386 42.2004 130.562 42.3027 129.773 42.5412Z" fill="#263238"/>
<path d="M129.91 42.7933C129.91 42.7933 131.072 42.0733 130.165 40.7161C130.221 41.4186 130.134 42.1252 129.91 42.7933Z" fill="#263238"/>
<path d="M124.107 47.52C123.98 48.2007 123.643 48.8242 123.142 49.302C122.476 49.932 121.9 49.4856 121.882 48.6756C121.864 47.9556 122.188 46.7388 122.962 46.4148C123.736 46.0908 124.243 46.7064 124.107 47.52Z" fill="#FFC3BD"/>
<path opacity="0.3" d="M122.285 91.1233C122.544 97.1641 122.951 104.177 123.541 108.184C123.768 109.71 124.099 111.848 124.495 114.329C126.087 105.646 127.037 94.4569 122.285 91.1233Z" fill="#1C1C1C"/>
<path d="M120.301 147.28C119.963 147.28 119.635 147.233 119.531 147.082C119.504 147.041 119.489 146.994 119.489 146.945C119.489 146.896 119.504 146.848 119.531 146.808C119.579 146.736 119.652 146.683 119.736 146.66C120.179 146.542 121.086 147.067 121.126 147.092C121.137 147.098 121.145 147.108 121.15 147.12C121.155 147.132 121.155 147.145 121.151 147.157C121.148 147.17 121.142 147.181 121.133 147.19C121.124 147.199 121.113 147.205 121.1 147.208C120.836 147.254 120.569 147.278 120.301 147.28ZM119.902 146.768C119.861 146.762 119.82 146.762 119.779 146.768C119.753 146.773 119.729 146.784 119.707 146.798C119.685 146.813 119.667 146.832 119.653 146.855C119.606 146.934 119.621 146.974 119.635 146.995C119.754 147.164 120.42 147.168 120.917 147.1C120.603 146.924 120.258 146.811 119.902 146.768Z" fill="#407BFF"/>
<path d="M121.104 147.208H121.079C120.766 147.064 120.15 146.488 120.211 146.192C120.211 146.12 120.276 146.034 120.449 146.016C120.513 146.008 120.578 146.013 120.64 146.032C120.702 146.051 120.76 146.082 120.809 146.124C121.136 146.401 121.169 147.114 121.169 147.143C121.169 147.154 121.166 147.165 121.161 147.175C121.156 147.185 121.149 147.194 121.14 147.2C121.129 147.206 121.117 147.209 121.104 147.208ZM120.496 146.128H120.46C120.344 146.128 120.337 146.182 120.334 146.196C120.298 146.376 120.712 146.826 121.032 147.02C121.012 146.723 120.9 146.438 120.712 146.207C120.65 146.158 120.574 146.133 120.496 146.135V146.128Z" fill="#407BFF"/>
<path d="M124.013 147.146H121.37L121.32 141.019H123.966L124.013 147.146Z" fill="#FFC3BD"/>
<path d="M121.396 146.84H124.276C124.327 146.84 124.377 146.858 124.417 146.891C124.457 146.924 124.483 146.97 124.492 147.02L124.935 149.371C124.945 149.429 124.942 149.489 124.926 149.545C124.911 149.602 124.883 149.655 124.845 149.699C124.807 149.744 124.759 149.78 124.705 149.804C124.652 149.828 124.594 149.84 124.535 149.839C123.495 149.839 121.99 149.764 120.683 149.764C119.149 149.764 117.825 149.846 116.028 149.846C114.948 149.846 114.682 148.748 115.139 148.648C117.223 148.198 118.915 148.147 120.741 147.046C120.936 146.919 121.163 146.848 121.396 146.84Z" fill="#263238"/>
<path opacity="0.2" d="M121.324 141.023L121.345 144.18H123.991L123.97 141.023H121.324Z" fill="#1C1C1C"/>
<path d="M117.194 79.8733C117.194 79.8733 116.114 99.6481 116.136 107.712C116.136 116.1 120.384 143.568 120.384 143.568H124.862C124.862 143.568 123.696 116.59 124.2 108.36C124.736 99.3601 127.336 79.8805 127.336 79.8805L117.194 79.8733Z" fill="#407BFF"/>
<path d="M119.585 141.782C119.563 141.782 119.768 143.644 119.768 143.644H125.219L125.428 141.984L119.585 141.782Z" fill="#263238"/>
<path d="M118.159 57.0132C118.159 57.0132 113.652 68.4 115.614 88.0812H132.073C132.246 85.9212 130.525 67.1076 132.981 56.8764C131.423 56.5749 129.848 56.3753 128.264 56.2788C126.262 56.1636 124.255 56.1636 122.252 56.2788C120.871 56.4178 119.503 56.6633 118.159 57.0132Z" fill="#263238"/>
<path opacity="0.2" d="M115.83 67.32C115.585 69.12 115.384 71.1756 115.254 73.44C118.451 70.5024 119.545 63.1836 119.545 63.1836L115.83 67.32Z" fill="#1C1C1C"/>
<path d="M119.855 62.4348C119.207 64.1196 118.552 65.7432 117.832 67.374C117.112 69.0048 116.367 70.614 115.528 72.2268L115.2 72.828L115.035 73.1304C114.966 73.2528 114.973 73.26 114.786 73.5732C114.463 74.0808 114.016 74.4972 113.487 74.7828C113.049 75.013 112.571 75.1572 112.079 75.2076C111.403 75.2695 110.721 75.2147 110.063 75.0456C109.543 74.9169 109.033 74.7508 108.537 74.5488C107.646 74.18 106.783 73.7469 105.955 73.2528C105.549 73.0188 105.16 72.7668 104.775 72.5328C104.389 72.2988 104.04 72 103.626 71.712L105.57 68.7312C106.965 69.4999 108.43 70.1351 109.944 70.6284C110.266 70.7277 110.594 70.8023 110.927 70.8516C111.117 70.892 111.313 70.892 111.503 70.8516C111.525 70.8516 111.456 70.83 111.337 70.8912C111.193 70.9649 111.069 71.0739 110.977 71.208C110.902 71.334 110.999 71.1468 111.031 71.0748L111.161 70.7904L111.42 70.2252C112.104 68.6988 112.738 67.1184 113.353 65.5452C113.969 63.972 114.567 62.3304 115.117 60.7428L119.855 62.4348Z" fill="#263238"/>
<path d="M121.644 58.2085C122.487 60.5629 116.525 70.0417 116.525 70.0417L112.99 66.5389C112.99 66.5389 113.893 63.5617 115.085 59.9761C116.259 56.4517 120.841 55.9585 121.644 58.2085Z" fill="#263238"/>
</svg>
